<?xml version="1.0" encoding="utf-8"?>
<!-- Generator: Adobe Illustrator 23.0.3, SVG Export Plug-In . SVG Version: 6.00 Build 0)  -->
<svg version="1.1" id="Layer_1" xmlns="http://www.w3.org/2000/svg" xmlns:xlink="http://www.w3.org/1999/xlink" x="0px" y="0px"
	 height="360" width="360" viewBox="0 0 360 360" style="enable-background:new 0 0 360 360;" xml:space="preserve">
<style type="text/css">
	.st0{fill:none;stroke:#000000;stroke-width:4;stroke-linecap:round;stroke-linejoin:round;stroke-miterlimit:10;}
	.st1{fill:none;stroke:#000000;stroke-width:4;stroke-miterlimit:10;}
</style>
<g>
	<path class="st0" d="M198.5,80.5c0,0,45.5-0.5,49-56c0,0,4,55,51,56c0,0-50-1-50,54C248.5,134.5,248.5,80.5,198.5,80.5z"/>
	<path class="st0" d="M161,176.19c0,0,31.4-0.35,33.81-38.64c0,0,2.76,37.95,35.19,38.64c0,0-34.5-0.69-34.5,37.26
		C195.5,213.45,195.5,176.19,161,176.19z"/>
	<line class="st0" x1="222" y1="241" x2="222" y2="222"/>
	<line class="st0" x1="230" y1="249" x2="249" y2="249"/>
	<line class="st0" x1="222" y1="255" x2="222" y2="274"/>
	<line class="st0" x1="216" y1="249" x2="196" y2="249"/>
	<path class="st1" d="M328.83,175.74l-38-64.68c-2.49-4.24-6.36-7.5-10.97-9.22l-17.63-6.58c-7.79,7.99-13.73,20.29-13.73,39.25
		c0,0-0.01-28.68-19.36-44.24c-5.68,12.35-25.83,24.24-49.64,24.24c-25.47,0-46.57-13.6-50.39-26.82c-0.62-2.14-2.91-3.32-5-2.53
		l-44.5,16.69c-4.6,1.73-8.48,4.98-10.97,9.22l-38,64.68c-3.15,5.36-1.72,12.21,3.29,15.88c10.7,7.84,31.22,19.38,59.56,19.58v94.21
		c0,7.41,4.78,13.97,11.83,16.28c50.1,16.44,99.86,16.23,149.29-0.28c6.48-2.16,10.89-8.18,10.89-15.01l0.23-92.94l0.01-2.25
		c28.34-0.2,49.11-11.74,59.8-19.58C330.55,187.95,331.98,181.09,328.83,175.74z"/>
	<line class="st0" x1="93.5" y1="215.21" x2="93.5" y2="178.5"/>
	<path class="st1" d="M265,211"/>
	<line class="st0" x1="265.74" y1="211.79" x2="266" y2="178"/>
</g>
</svg>
