<?xml version="1.0" encoding="utf-8"?>
<!-- Generator: Adobe Illustrator 23.0.3, SVG Export Plug-In . SVG Version: 6.00 Build 0)  -->
<svg version="1.1" id="Layer_1" xmlns="http://www.w3.org/2000/svg" xmlns:xlink="http://www.w3.org/1999/xlink" x="0px" y="0px"
	 height="360" width="360" viewBox="0 0 360 360" style="enable-background:new 0 0 360 360;" xml:space="preserve">
<style type="text/css">
	.st0{fill:none;stroke:#000000;stroke-width:4;stroke-linejoin:round;stroke-miterlimit:10;}
	.st1{fill:none;stroke:#000000;stroke-width:4;stroke-miterlimit:10;}
	.st2{stroke:#000000;stroke-miterlimit:10;}
	.st3{fill:none;stroke:#000000;stroke-width:1.4;stroke-miterlimit:10;}
	.st4{fill:#FF0000;stroke:#000000;stroke-miterlimit:10;}
	.st5{fill:none;stroke:#000000;stroke-width:2;stroke-miterlimit:10;}
</style>
<polygon class="st0" points="48,173 48,317 191,317 "/>
<path class="st1" d="M279.94,51.24c-4.27-7.84-12.59-13.15-22.14-13.15H102.2c-13.92,0-25.2,11.28-25.2,25.2v121.2"/>
<line class="st1" x1="283" y1="210.18" x2="283" y2="123.01"/>
<path class="st1" d="M184.58,290.91h73.22c12.81,0,23.38-9.55,24.99-21.92"/>
<g>
	<polygon class="st0" points="74,291 74,236.08 128.54,291 	"/>
</g>
<rect x="206" y="58" class="st2" width="9" height="9"/>
<rect x="225" y="58" class="st2" width="9" height="9"/>
<rect x="244" y="58" class="st2" width="9" height="9"/>
<path class="st1" d="M129.19,173.24C105.95,166.31,89,144.77,89,119.27c0-31.1,25.22-56.32,56.32-56.32
	c18.74,0,35.35,9.16,45.59,23.24"/>
<polyline class="st1" points="173.55,101.67 173.9,101.67 226.74,101.67 "/>
<polyline class="st1" points="265,144.08 265,199.05 145.32,199.05 145.32,161.76 "/>
<rect x="165" y="222" class="st1" width="150" height="36"/>
<line class="st1" x1="185" y1="236" x2="185" y2="222"/>
<line class="st1" x1="203" y1="236" x2="203" y2="222"/>
<line class="st1" x1="222" y1="236" x2="222" y2="222"/>
<line class="st1" x1="241" y1="236" x2="241" y2="222"/>
<line class="st1" x1="259" y1="236" x2="259" y2="222"/>
<line class="st1" x1="279" y1="236" x2="279" y2="222"/>
<line class="st1" x1="297" y1="236" x2="297" y2="222"/>
<path class="st1" d="M213,137c0,0,22-6,18,18"/>
<path class="st1" d="M286,68c0,0,22-6,18,18"/>
<g>
	<polygon points="236,132 288.64,80.53 291.36,83.47 	"/>
</g>
<g>
	<path class="st3" d="M170.25,194.15c-0.59-0.31-1.07-0.7-1.08-1.46c0-0.85,0.58-1.48,1.49-1.5c1.04-0.03,2.07-0.01,3.23-0.01
		c0-0.37,0-0.71,0-1.04c0-15.19,0-30.37,0-45.56c0-0.54,0-1.1,0.12-1.62c0.39-1.71,1.91-2.98,3.68-3.01c2.55-0.04,5.1-0.05,7.64,0
		c2.06,0.04,3.68,1.69,3.78,3.74c0.02,0.35,0.01,0.69,0.01,1.04c0,15.14,0,30.27,0,45.41c0,0.32,0,0.63,0,0.99c2.78,0,5.48,0,8.28,0
		c0-0.3,0-0.59,0-0.88c0-8.14,0-16.27,0-24.41c0-2.91,1.59-4.51,4.47-4.51c2.18,0,4.35-0.01,6.53,0c2.59,0.01,4.26,1.68,4.26,4.28
		c0.01,8.19,0,16.37,0,24.56c0,0.3,0,0.59,0,0.94c2.74,0,5.44,0,8.25,0c0-0.29,0-0.57,0-0.86c0-3.98,0.07-7.97-0.02-11.95
		c-0.06-2.93,2.06-4.67,4.57-4.54c2.19,0.12,4.4,0.02,6.6,0.03c2.38,0.01,4.08,1.67,4.09,4.05c0.02,4.11,0.01,8.21,0.01,12.32
		c0,0.29,0,0.59,0,1c1.14,0,2.24-0.02,3.34,0c1.07,0.02,1.81,0.83,1.5,1.79c-0.15,0.45-0.66,0.79-1.01,1.17
		C216.76,194.15,193.51,194.15,170.25,194.15z M186.14,191.15c0.01-0.22,0.03-0.39,0.03-0.56c0-15.46,0-30.92,0-46.38
		c0-0.99-0.3-1.29-1.28-1.3c-2.1-0.01-4.21,0-6.31,0c-1.54,0-1.71,0.16-1.71,1.7c0,15.21,0,30.43,0,45.64c0,0.29,0,0.58,0,0.9
		C179.99,191.15,183.02,191.15,186.14,191.15z M209.69,191.16c0.01-0.19,0.03-0.31,0.03-0.43c0-8.38,0-16.76,0-25.15
		c0-0.92-0.38-1.27-1.33-1.27c-2.18-0.01-4.35,0-6.53,0c-1.17,0-1.47,0.3-1.47,1.5c0,8.18,0,16.37,0,24.55c0,0.26,0,0.52,0,0.79
		C203.53,191.16,206.57,191.16,209.69,191.16z M233.17,191.15c0.02-0.15,0.04-0.22,0.04-0.29c0-4.3,0.01-8.61,0-12.91
		c0-0.82-0.36-1.16-1.19-1.17c-2.2-0.01-4.4,0-6.61,0c-1.25,0-1.51,0.26-1.51,1.54c0,4.03,0,8.06,0,12.1c0,0.24,0.03,0.48,0.05,0.74
		C227.05,191.15,230.09,191.15,233.17,191.15z"/>
	<path class="st3" d="M200.32,133.29c-1.88,1.89-3.57,3.59-5.27,5.29c-1.09,1.09-1.74,1.09-2.82,0.02
		c-4.88-4.88-9.76-9.76-14.64-14.64c-0.19-0.19-0.38-0.36-0.68-0.64c-0.02,0.39-0.04,0.65-0.04,0.9c-0.01,1.34,0.02,2.67-0.02,4.01
		c-0.03,0.91-0.69,1.52-1.51,1.5c-0.8-0.02-1.42-0.61-1.42-1.5c-0.02-2.84-0.03-5.69,0-8.53c0.01-1.01,0.59-1.52,1.62-1.53
		c2.94-0.01,5.89-0.01,8.83,0c0.96,0,1.61,0.61,1.62,1.47c0.01,0.86-0.64,1.48-1.59,1.49c-1.51,0.02-3.02,0-4.53,0.01
		c-0.24,0-0.48,0-0.66,0c4.85,4.85,9.68,9.68,14.56,14.56c1.59-1.59,3.26-3.27,4.94-4.95c1.23-1.23,1.81-1.23,3.03-0.01
		c8.59,8.59-4.82-4.82,3.76,3.76c0.16,0.16,0.32,0.31,0.47,0.48c0.56,0.65,0.56,1.51-0.01,2.08c-0.56,0.56-1.43,0.56-2.08,0.01
		c-0.21-0.18-0.39-0.38-0.58-0.57c-8.13-8.13,5.73,5.73-2.4-2.4C200.69,133.87,200.54,133.6,200.32,133.29z"/>
	<path class="st2" d="M234.73,164.16c0.01,1.03-0.76,1.82-1.79,1.84c-1.05,0.02-1.9-0.83-1.88-1.86c0.02-0.99,0.87-1.82,1.85-1.81
		C233.92,162.33,234.73,163.16,234.73,164.16z"/>
	<path class="st3" d="M186.14,191.15c-3.12,0-6.15,0-9.27,0c0-0.33,0-0.61,0-0.9c0-15.21,0-30.43,0-45.64c0-1.53,0.17-1.7,1.71-1.7
		c2.1,0,4.21-0.01,6.31,0c0.98,0,1.28,0.31,1.28,1.3c0,15.46,0,30.92,0,46.38C186.17,190.76,186.15,190.93,186.14,191.15z"/>
	<path class="st3" d="M209.69,191.16c-3.12,0-6.15,0-9.3,0c0-0.27,0-0.53,0-0.79c0-8.18,0-16.37,0-24.55c0-1.2,0.29-1.5,1.47-1.5
		c2.18,0,4.35,0,6.53,0c0.96,0,1.33,0.35,1.33,1.27c0.01,8.38,0,16.76,0,25.15C209.72,190.85,209.7,190.97,209.69,191.16z"/>
	<path class="st3" d="M233.17,191.15c-3.08,0-6.12,0-9.21,0c-0.02-0.26-0.05-0.5-0.05-0.74c0-4.03,0-8.06,0-12.1
		c0-1.28,0.26-1.54,1.51-1.54c2.2,0,4.4-0.01,6.61,0c0.82,0,1.19,0.35,1.19,1.17c0.01,4.3,0,8.61,0,12.91
		C233.21,190.94,233.19,191.01,233.17,191.15z"/>
</g>
<path class="st1" d="M207,161l6-24l76-72c0,0,13.05-15.06,22-7c10,9,2,18-5,25s-75,72-75,72L207,161z"/>
<g>
	<g>
		<g>
			<path class="st2" d="M114.38,106.14c0.21,4.93,0.16,9.86,0.16,14.79c0,4.42-0.01,8.83-0.34,13.23c-0.3,4.05-0.8,8.26-0.21,12.3
				c0.26,1.76,0.4,4.01,1.37,5.54c0.75,1.19,1.98,1.45,3.28,1.61c3.81,0.49,7.72,0.4,11.57,0.4c9.06-0.01,18.22,0.28,27.23-0.79
				c2.09-0.25,4.31-0.43,6.34-1.01c1.06-0.3,2.29-0.63,2.79-1.69c0.8-1.7,0.27-3.89,0.19-5.68c-0.11-2.26-0.02-4.53-0.02-6.79
				c0.01-4.61-0.35-9.21-0.41-13.82c-0.06-4.63,0-9.26,0.11-13.89c0.12-4.75-0.12-9.52-0.12-14.28c0-2.4,0.06-4.8-0.03-7.21
				c-0.06-1.63,0.17-3.51-0.52-5.04c-0.71-1.57-2.42-1.4-3.9-1.58c-1.86-0.21-3.76-0.13-5.63-0.22c-4.38-0.21-8.78,0.03-13.16,0.15
				c-5.64,0.14-11.3,0.17-16.94,0.31c-0.83-0.03-1.67-0.04-2.52-0.06c-2.32-0.05-4.75-0.44-7.06-0.11c-1.57,0.23-2.5,1.19-2.82,2.77
				c-0.2,1-0.01,2.12-0.01,3.13c0,1.11,0,2.22,0,3.32C113.71,96.43,114.18,101.27,114.38,106.14z M152.89,83.67
				c-0.1,0.83-0.19,1.66-0.29,2.49c-0.07,0.63-0.1,1.25-0.17,1.87c0-0.02-0.07,0.85-0.05,0.84c-0.04,0.03-0.07,0.06-0.1,0.09
				c-0.13,0-0.25,0-0.38,0c-1.61-0.02-3.22,0.04-4.82,0.11c0.16-0.86,0.09-1.86,0.17-2.67c0.07-0.77,0.01-1.55-0.01-2.31
				c0-0.07-0.02-0.19-0.04-0.33C149.1,83.7,151,83.66,152.89,83.67z M158.24,87.57c-0.08,1.02-0.05,1.44-1.15,1.45
				c-0.31,0-3.7-0.09-3.7-0.04c0.02-0.22,0.01-0.46,0.03-0.67c0.08-0.64,0.14-1.29,0.18-1.94c0.05-0.9,0.13-1.8,0.07-2.69
				c0.95,0.01,1.9,0.03,2.85,0.08c0.57,0.03,1.14,0.04,1.71,0.06C158.15,85.05,158.24,86.33,158.24,87.57z M164.66,89.18
				c-1.88-0.07-3.76-0.11-5.64-0.14c0.07,0,0.05-4.78,0.05-5.21c1.15,0.04,2.29,0.08,3.44,0.2c1.05,0.11,1.48-0.04,1.85,0.98
				c0.13,0.35,0.15,0.95,0.17,1.25C164.6,87.24,164.62,88.22,164.66,89.18z M115.53,141.55c0.65,0.57,1.54,0.99,2.14,1.12
				c0.72,0.15,1.56-0.15,2.2-0.49c0.45-0.24,0.84-0.63,1.31-0.84c0.86-0.38,1.71-0.18,2.56,0.04c2.17,0.56,4.16,1.68,6.43,1.93
				c1.06,0.12,2.01-0.15,3.06-0.19c0.36-0.01,0.73-0.01,1.1-0.01c-0.11,0.06-0.22,0.12-0.32,0.17c-1.88,1.02-3.26,2.68-5.19,3.64
				c-1.19,0.59-2.14,0.98-3.46,1.15c-1.23,0.16-2.43,0.2-3.67,0.25c-1.21,0.05-2.27-0.02-3.46-0.24c-0.72-0.13-1.53-0.44-2.27-0.46
				c-0.15-0.85-0.3-1.68-0.37-2.55C115.49,143.89,115.49,142.73,115.53,141.55z M133.23,141.8c-0.91-0.01-1.79,0.15-2.7,0.01
				c-1.92-0.29-3.71-1.08-5.52-1.72c-1.49-0.52-3.19-0.93-4.66-0.16c-1.11,0.59-1.83,1.21-3.23,0.8c-0.56-0.16-1.05-0.58-1.51-0.95
				c0-0.08,0.01-0.16,0.01-0.24c0.04-0.79,0.08-1.58,0.11-2.37c1.43,0.32,2.8,0.14,4.31-0.33c0.74-0.23,1.43-0.59,2.02-1.1
				c0.6-0.51,0.89-1.16,1.29-1.76c1.73,1.98,3.46,3.64,5.75,5.05c1.65,1.02,3.29,2,5.02,2.8
				C133.79,141.83,133.48,141.8,133.23,141.8z M115.46,93.12c0-0.87,0.01-1.75,0.01-2.63c0.55,0.12,1.21,0.02,1.68,0.01
				c1.84-0.03,3.67,0.14,5.52,0.09c4.72-0.12,9.43-0.06,14.15-0.15c4.71-0.09,9.43-0.37,14.14-0.42c4.57-0.05,9.14,0.18,13.72,0.05
				c0.12,4.02-0.07,8.05-0.01,12.08c0.07,4.19,0.06,8.35-0.01,12.55c-0.15,8.33,0.45,16.64,0.37,24.97c-0.02,2.1-0.06,4.2,0.09,6.3
				c0.06,0.86,0.16,1.72,0.11,2.58c-0.09,1.28-0.32,1.51-1.43,1.88c-3.55,1.16-7.52,1.16-11.2,1.46c-8.38,0.69-16.84,0.42-25.25,0.4
				c-1.95,0-3.9-0.02-5.85-0.18c-1.2-0.1-3.54,0.11-4.47-0.77c-0.49-0.46-0.67-1.24-0.79-1.99c1.3,0.54,2.95,0.68,4.26,0.7
				c2.11,0.04,4.4-0.12,6.47-0.58c1.67-0.37,3.56-1.48,4.85-2.59c0.96-0.82,1.83-1.71,2.89-2.4c0.79-0.52,2.55-1.1,2.01-2.32
				c-0.38-0.86-1.58-1.23-2.32-1.66c-1.34-0.79-2.68-1.58-4.01-2.4c-2.56-1.57-4.58-3.38-6.63-5.54c-0.23-0.24-0.66-0.24-0.89,0
				c-0.34,0.36-0.45,0.72-0.71,1.13c-0.65,1.03-1.64,1.59-2.79,1.89c-1.22,0.33-2.39,0.26-3.59,0.27c0.07-1.59,0.13-3.17,0.22-4.76
				c1.69,0.58,3.47-0.19,4.74-1.39c1.05-0.99,2.05-0.98,3.39-1.14c0.95-0.12,1.87-0.5,2.47-1.26c1.51-1.92-0.18-4.72-0.99-6.59
				c-1.2-2.79-1.9-5.76-2.61-8.72c-0.09-0.36-0.69-0.39-0.76,0c-0.76,4.35,2.02,8.45,3.09,12.47c0.85,3.19-2.94,2.08-4.63,3.04
				c-0.9,0.51-1.38,1.49-2.36,1.87c-0.76,0.29-1.5,0.12-2.25,0.16c0.03-0.43,0.05-0.86,0.08-1.29c0.29-3.91,0.1-7.9,0.11-11.83
				c0-3.85-0.06-7.7-0.25-11.54C115.86,100.97,115.46,97.05,115.46,93.12z M116.68,83.93c4.31,0.25,8.65,0.31,12.96,0.09
				c4.57-0.24,9.18-0.08,13.76-0.17c0.97-0.02,1.93-0.04,2.9-0.07c0.01,0.56-0.03,1.13-0.05,1.69c-0.03,0.66-0.1,1.32-0.14,1.98
				c-0.03,0.37,0,1.21-0.12,1.69c-2.31,0.12-4.63,0.25-6.95,0.23c-4.37-0.03-8.76-0.09-13.13,0c-2.2,0.05-4.42,0.21-6.62,0.11
				c-0.18-0.01-3.58,0.02-3.65-0.13c-0.05-0.09-0.11-0.16-0.17-0.2c0-0.7-0.01-1.39-0.03-2.08
				C115.41,85.77,115.19,84.54,116.68,83.93z"/>
		</g>
	</g>
	<g>
		<g>
			<path class="st2" d="M132.08,111.53c1.8,0.41,3.54,0.95,5.41,0.8c1.97-0.16,4.23-0.51,6.05-1.28c2.81-1.19,6.08-3.28,7.04-6.37
				c1.09,0.29,2.21,0.39,3.39,0.14c0.5-0.1,0.47-0.86,0-0.98c-2.78-0.69-5.31-1.57-7.89-2.81c-2.17-1.05-4.3-1.6-6.72-1.65
				c-1.9-0.04-3.98,0.18-5.93,0.64c-0.73,0.17-1.43,0.37-2.11,0.61c-2.05,0.72-4.15,2.07-4.54,4.37
				C126.25,108.2,129.31,110.9,132.08,111.53z M141.96,104.22c0.22,1.54-0.67,3.08-2.21,3.49c-1.37,0.37-2.35,0.42-3.53-0.45
				c-1.12-0.83-1.7-2.32-1.46-3.67c0.26-1.54,1.19-2.17,2.38-2.51c0.54-0.06,1.08-0.1,1.62-0.12
				C140.29,101.45,141.74,102.6,141.96,104.22z M129.83,103.09c1.27-0.86,3.11-1.26,4.54-1.54c-0.53,0.69-0.83,1.6-0.82,2.76
				c0.04,2.75,2.69,5.26,5.47,4.8c2.38-0.39,4.07-2.03,4.12-4.54c0.03-1.32-0.91-2.65-2.12-3.51c0.52,0.06,1.04,0.16,1.56,0.29
				c2.43,0.62,4.72,2.22,7.14,3.07c-1.25,2.32-4.1,3.92-6.33,4.95c-2.6,1.21-5.89,1.57-8.68,1.07c-2.63-0.47-5.35-1.22-6.15-4.14
				C128.24,105.12,128.86,104.02,129.83,103.09z"/>
		</g>
	</g>
	<g>
		<g>
			<path class="st2" d="M137.33,103.49c0.4-0.46,1.13-0.38,1.62-0.14c0.55,0.26,0.78,0.91,0.67,1.49c0,0.07-0.01,0.14-0.02,0.21
				c-0.12,0.58-0.72,1.04-1.32,0.94c-0.52-0.09-0.89-0.52-1.08-0.99C137,104.52,136.97,103.9,137.33,103.49z"/>
		</g>
	</g>
	<g>
		<g>
			<path class="st2" d="M153.7,135.6c0.31,0.85,0.87,1.56,1.83,1.67c0.96,0.1,2.07-0.4,2.59-1.22c0.04-0.06,0.07-0.13,0.1-0.2
				c0.43-0.33,0.65-1.05,0.61-1.54c-0.09-0.98-0.99-1.99-1.85-2.38C154.62,130.86,152.94,133.53,153.7,135.6z M156.45,132.72
				c0.39,0.12,0.82,0.48,1.11,0.91c0.21,0.52,0.26,1.1,0.08,1.59c-0.49,1.35-2.43,1.52-2.96,0.17
				C154.19,134.19,154.86,132.23,156.45,132.72z"/>
		</g>
	</g>
	<g>
		<g>
			<path class="st2" d="M146.94,119.48c0.31,0.85,0.87,1.56,1.83,1.67c0.96,0.1,2.07-0.4,2.59-1.22c0.04-0.06,0.07-0.13,0.1-0.2
				c0.43-0.33,0.65-1.05,0.61-1.54c-0.09-0.98-0.99-1.99-1.85-2.38C147.85,114.74,146.18,117.41,146.94,119.48z M149.69,116.6
				c0.39,0.12,0.82,0.48,1.11,0.91c0.21,0.52,0.26,1.1,0.08,1.59c-0.49,1.35-2.43,1.52-2.96,0.17
				C147.43,118.07,148.09,116.11,149.69,116.6z"/>
		</g>
	</g>
	<g>
		<g>
			<path class="st2" d="M137.04,124.64c0.12-0.47,0.6-0.75,1.07-0.75c0.44,0,0.88,0.27,1.07,0.63c0.14,0.23,0.2,0.51,0.15,0.78
				c-0.07,0.42-0.43,0.82-0.84,0.93c-0.46,0.13-0.82-0.14-1.08-0.5C137.19,125.42,136.94,125.04,137.04,124.64z"/>
		</g>
	</g>
	<g>
		<g>
			<path class="st4" d="M151.41,118.41C151.41,118.41,151.41,118.41,151.41,118.41L151.41,118.41
				C151.41,118.41,151.41,118.41,151.41,118.41z"/>
		</g>
	</g>
	<g>
		<g>
			<path class="st2" d="M141.23,137.34c0.13,0.34-0.3,1.41-0.37,1.73c-0.13,0.59-0.19,1.18-0.3,1.77c-0.31,1.69-0.18,2.18,1.48,2.79
				c1.53,0.56,3.29,1.28,3.92-0.65c0.22-0.69,0.33-1.45,0.5-2.15c0.12-0.53,0.15-1.78,0.44-2.22c0.27-0.4,0.26-0.35,0.82-0.24
				c0.6,0.12,1.19,0.3,1.8,0.4c1.84,0.3,2.01-0.9,1.81-2.57c-0.27-2.19-0.62-4.52-1.21-6.7c-0.22-1.2-0.23-2.35-0.7-3.5
				c-0.86-2.09-1.95-1.32-3.24,0.08c-1.95,2.12-3.79,4.33-5.74,6.46c-0.64,0.7-2.33,2.23-1.36,3.24
				C139.56,136.28,140.96,136.64,141.23,137.34z M141,135.62c-0.23-0.16-0.78-0.33-0.92-0.58c-0.25-0.44,1.2-1.71,1.57-2.12
				c0.94-1.05,1.85-2.14,2.73-3.24c0.89-1.11,1.96-2.16,2.96-3.17c0.19-0.2,0.44-0.64,0.75-0.52c0.21,0.08,0.45,0.66,0.52,0.86
				c0.33,0.88,0.29,1.94,0.42,2.86c0.14,1.04,0.32,2.07,0.49,3.1c0.15,0.89,1.74,4.61,0.02,4.8c-1.04,0.11-2.49-1.12-3.4-0.18
				c-0.64,0.65-0.6,2.26-0.79,3.1c-0.12,0.52-0.16,1.33-0.42,1.82c-0.44,0.83-0.8,0.69-1.66,0.46c-0.2-0.05-1.86-0.38-1.78-0.73
				c0.14-0.67,0.17-1.35,0.32-2.02c0.17-0.73,0.39-1.45,0.51-2.19C142.5,136.76,141.86,136.21,141,135.62z"/>
		</g>
	</g>
</g>
<line class="st5" x1="55" y1="189" x2="59.5" y2="184.5"/>
<line class="st5" x1="61" y1="195" x2="65.5" y2="190.5"/>
<line class="st5" x1="67" y1="201" x2="71.5" y2="196.5"/>
<line class="st5" x1="73" y1="207" x2="77.5" y2="202.5"/>
<line class="st5" x1="79" y1="213" x2="83.5" y2="208.5"/>
<line class="st5" x1="85" y1="219" x2="89.5" y2="214.5"/>
<line class="st5" x1="91" y1="225" x2="95.5" y2="220.5"/>
<line class="st5" x1="97" y1="231" x2="101.5" y2="226.5"/>
<line class="st5" x1="103" y1="237" x2="107.5" y2="232.5"/>
<line class="st5" x1="109" y1="243" x2="113.5" y2="238.5"/>
<line class="st5" x1="115" y1="249" x2="119.5" y2="244.5"/>
<line class="st5" x1="121" y1="255" x2="125.5" y2="250.5"/>
<line class="st5" x1="127" y1="261" x2="131.5" y2="256.5"/>
<line class="st5" x1="133" y1="267" x2="137.5" y2="262.5"/>
<line class="st5" x1="139" y1="273" x2="143.5" y2="268.5"/>
<line class="st5" x1="145" y1="279" x2="149.5" y2="274.5"/>
<line class="st5" x1="151" y1="285" x2="155.5" y2="280.5"/>
<line class="st5" x1="157" y1="291" x2="161.5" y2="286.5"/>
<line class="st5" x1="163" y1="297" x2="167.5" y2="292.5"/>
<line class="st5" x1="169" y1="303" x2="173.5" y2="298.5"/>
<line class="st5" x1="175" y1="309" x2="179.5" y2="304.5"/>
<g>
	<path d="M194,248c8-0.39,16-0.65,24-0.78c8-0.16,16-0.2,24-0.22c8,0.02,16,0.06,24,0.22c8,0.13,16,0.39,24,0.78
		c-8,0.39-16,0.65-24,0.78c-8,0.16-16,0.2-24,0.22c-8-0.02-16-0.06-24-0.22C210,248.65,202,248.39,194,248z"/>
</g>
</svg>
