<?xml version="1.0" encoding="utf-8"?>
<!-- Generator: Adobe Illustrator 23.0.3, SVG Export Plug-In . SVG Version: 6.00 Build 0)  -->
<svg version="1.1" id="Layer_1" xmlns="http://www.w3.org/2000/svg" xmlns:xlink="http://www.w3.org/1999/xlink" x="0px" y="0px"
	 height="360" width="360" viewBox="0 0 360 360" style="enable-background:new 0 0 360 360;" xml:space="preserve">
<style type="text/css">
	.st0{fill:none;stroke:#000000;stroke-width:4;stroke-linecap:round;stroke-linejoin:round;stroke-miterlimit:10;}
</style>
<g>
	<polyline class="st0" points="55,120 55,78 298,78 298,236 	"/>
	<polyline class="st0" points="55.5,133.5 55.5,299.5 298.5,299.5 298.5,249.5 	"/>
	<line class="st0" x1="55.5" y1="36.5" x2="55.5" y2="61.5"/>
	<line class="st0" x1="13.5" y1="77.5" x2="39.5" y2="77.5"/>
	<line class="st0" x1="13.5" y1="299.5" x2="39.5" y2="299.5"/>
	<line class="st0" x1="55.5" y1="315.5" x2="55.5" y2="341.5"/>
	<line class="st0" x1="297.5" y1="315.5" x2="297.5" y2="341.5"/>
	<line class="st0" x1="313.5" y1="299.5" x2="339.5" y2="299.5"/>
	<line class="st0" x1="297.5" y1="36.5" x2="297.5" y2="61.5"/>
	<line class="st0" x1="313.5" y1="77.5" x2="339.5" y2="77.5"/>
	<polyline class="st0" points="55.5,238.92 113.5,182.5 176.5,238.5 265.5,136.5 297.5,167.76 	"/>
	<circle class="st0" cx="176.5" cy="131.5" r="26"/>
	<line class="st0" x1="160.5" y1="20.5" x2="191.5" y2="61.5"/>
	<line class="st0" x1="191.5" y1="20.5" x2="160.5" y2="61.5"/>
	<polyline class="st0" points="313.5,167.5 329.5,187.5 344.5,167.5 	"/>
	<line class="st0" x1="329.5" y1="187.5" x2="329.5" y2="209.5"/>
</g>
</svg>
