<?xml version="1.0" encoding="utf-8"?>
<!-- Generator: Adobe Illustrator 23.0.3, SVG Export Plug-In . SVG Version: 6.00 Build 0)  -->
<svg version="1.1" id="Layer_1" xmlns="http://www.w3.org/2000/svg" xmlns:xlink="http://www.w3.org/1999/xlink" x="0px" y="0px"
	 height="360" width="360" viewBox="0 0 360 360" style="enable-background:new 0 0 360 360;" xml:space="preserve">
<style type="text/css">
	.st0{fill:none;stroke:#000000;stroke-width:4;stroke-linecap:round;stroke-linejoin:round;stroke-miterlimit:10;}
	.st1{fill:none;stroke:#000000;stroke-width:4;stroke-miterlimit:10;}
	.st2{fill:none;stroke:#000000;stroke-width:4;stroke-linecap:round;stroke-miterlimit:10;}
</style>
<g>
	<path class="st0" d="M85,40H39.93C30.58,40,23,47.58,23,56.93v246.14c0,9.35,7.58,16.93,16.93,16.93h282.14
		c9.35,0,16.93-7.58,16.93-16.93V240"/>
	<path class="st0" d="M102,40h220.86c8.91,0,16.14,7.23,16.14,16.14V224"/>
	<line class="st1" x1="23" y1="87.8" x2="339" y2="87.8"/>
	<line class="st2" x1="43" y1="182" x2="61" y2="182"/>
	<line class="st2" x1="48" y1="162" x2="66" y2="162"/>
	<line class="st2" x1="48" y1="203" x2="66" y2="203"/>
	<line class="st2" x1="245.51" y1="275" x2="313" y2="275"/>
	<line class="st2" x1="48" y1="275" x2="202" y2="275"/>
	<g>
		<path d="M186.34,103.65c3.04,0,8.86,1.25,18.66,3.35c14,3,20,19,23,37c0,0,1.94-0.48,4.97-0.48c5.68,0,15.21,1.7,23.03,11.48
			c12,15,18,43-5,43h-14.51c-2.72,0-5.18,1.62-6.25,4.12l-2.32,5.42c-1.14,2.67-0.47,5.77,1.69,7.72l14.97,13.54
			c1.56,1.41,2.49,3.38,2.6,5.48l0.35,6.64c0.13,2.46-1.87,4.23-4.02,4.23c-0.81,0-1.63-0.25-2.38-0.81
			c-4.35-3.26-9.93-6.81-14.13-7.34c-2.67-0.33-6.56-0.44-10.56-0.44c-4.13,0-8.37,0.12-11.51,0.23c-0.09,0-0.18,0-0.27,0
			c-2.89,0-5.51-1.7-6.69-4.36l-4.02-9.04c-1.19-2.68-3.84-4.4-6.77-4.4h-25.59c-3.41,0-6.42,2.34-7.12,5.67
			c-1.35,6.38-5.95,15.87-21.39,15.87c-3.97,0-8.65-0.63-14.18-2.09c-0.34-0.09-0.68-0.13-1.02-0.13c-2.08,0-3.88,1.67-3.88,3.87
			l0,12.81c0,0-2.78,6.94-11.23,6.94c-0.36,0-0.72-0.01-1.1-0.04c-2.64-0.18-4.68-2.42-4.68-5.07V222c0,0-0.62-6.79,6.39-6.79
			c1.1,0,2.38,0.17,3.89,0.55c0.22,0.06,0.44,0.08,0.66,0.08c1.64,0,2.95-1.56,2.52-3.26c-1.06-4.11-4.12-9.68-12.95-10.09
			c-24.63-1.14-20.54-28.7-3.41-28.7c5.47,0,12.28,2.81,19.91,10.2c0,0,23.35-23.96,60.22-23.96c10.18,0,21.38,1.82,33.42,6.48
			c0.02,0.01,0.04,0.01,0.06,0.01c1.02,0-1.04-11.61-19.7-15.53c-9.49-2-5.34-14.05-26.44-14.06c-0.81,0-1.66,0.02-2.56,0.06
			c-0.1,0-0.2,0.01-0.3,0.01c-6.09,0,3.93-8.58,20.79-8.58c7.97,0,17.47,1.92,27.52,7.57c0.01,0.01,0.02,0.01,0.03,0.01
			c0.25,0-14.05-12.05-15.03-14.01C185.34,108.68,180.26,103.65,186.34,103.65 M186.34,99.65c-2.88,0-4.9,0.95-6,2.82
			c-1.89,3.22-0.04,6.5,3.31,12.45c1.34,2.39,3.01,5.36,4.77,8.87c0.21,0.43,0.53,0.9,1.1,1.56c-3.33-0.61-6.67-0.91-10.03-0.91
			c-6.37,0-12.72,1.18-17.88,3.32c-3.97,1.65-8.7,4.44-8.7,8.36c0,1.78,0.97,3.35,2.58,4.2c0.9,0.47,1.95,0.7,3.21,0.7
			c0.15,0,0.31,0,0.47-0.01c0.82-0.03,1.63-0.05,2.39-0.05c11.03,0,13.52,3.39,16.16,6.98c1.94,2.64,4.35,5.92,9.46,6.99
			c4.93,1.04,8.49,2.64,11.02,4.33c-8-2.13-16.03-3.2-23.98-3.2c-31.09,0-52.76,16.05-60.24,22.53c-8.41-7.17-15.36-8.77-19.89-8.77
			c-10.98,0-17.76,8.99-17.96,17.67c-0.21,8.97,6.26,18.33,21.18,19.02c4.17,0.19,6.97,1.8,8.47,4.89
			c-0.83-0.12-1.63-0.18-2.39-0.18c-4.08,0-6.48,1.7-7.78,3.12c-2.66,2.92-2.67,6.74-2.61,7.8v34.71c0,4.76,3.69,8.74,8.41,9.06
			c0.46,0.03,0.92,0.05,1.37,0.05c11.03,0,14.79-9.07,14.94-9.46l0.29-0.72V255l0-12.65c5.51,1.46,10.59,2.19,15.08,2.19
			c13.53,0,22.75-6.94,25.31-19.04c0.31-1.45,1.65-2.5,3.21-2.5h25.59c1.35,0,2.57,0.8,3.12,2.03l4.02,9.04
			c1.82,4.09,5.88,6.73,10.35,6.73c0.14,0,0.28,0,0.41-0.01c2.88-0.1,7.19-0.23,11.37-0.23c4.48,0,7.86,0.14,10.06,0.41
			c2.63,0.33,7.09,2.72,12.22,6.57c1.4,1.05,3.05,1.6,4.77,1.6c2.19,0,4.33-0.92,5.85-2.52c1.52-1.6,2.29-3.7,2.17-5.92l-0.35-6.64
			c-0.17-3.18-1.56-6.1-3.92-8.23l-14.97-13.54c-0.89-0.8-1.17-2.08-0.69-3.18l2.32-5.42c0.44-1.03,1.45-1.7,2.58-1.7H251
			c10.71,0,15.48-5.26,17.6-9.67c5.46-11.35-0.81-29-9.48-39.83c-9.04-11.3-20.27-12.99-26.16-12.99c-0.6,0-1.17,0.02-1.7,0.05
			c-1.74-8.94-4.08-16.04-7.13-21.61c-4.5-8.23-10.66-13.23-18.3-14.87l-0.26-0.06C195.39,100.85,189.78,99.65,186.34,99.65
			L186.34,99.65z"/>
	</g>
	<path class="st2" d="M205.78,287.03c-2.38-3.41-3.78-7.55-3.78-12.03c0-11.6,9.4-21,21-21s21,9.4,21,21s-9.4,21-21,21
		c-2.25,0-4.41-0.35-6.44-1.01"/>
	<circle cx="244" cy="166" r="5"/>
	<circle cx="252" cy="65" r="8"/>
	<circle cx="278" cy="65" r="8"/>
	<circle cx="304" cy="65" r="8"/>
</g>
</svg>
