<?xml version="1.0" encoding="utf-8"?>
<!-- Generator: Adobe Illustrator 23.0.3, SVG Export Plug-In . SVG Version: 6.00 Build 0)  -->
<svg version="1.1" id="Layer_1" xmlns="http://www.w3.org/2000/svg" xmlns:xlink="http://www.w3.org/1999/xlink" x="0px" y="0px"
	 viewBox="0 0 260 260" style="enable-background:new 0 0 260 260;" xml:space="preserve">
<style type="text/css">
	.st0{fill:none;stroke:#EAEAEA;stroke-width:2;stroke-linecap:round;stroke-linejoin:round;stroke-miterlimit:10;}
</style>
<polyline class="st0" points="137,13.5 24.5,13.5 24.5,243.5 196.5,243.5 196.5,216.5 "/>
<path class="st0" d="M195.5,13.5"/>
<path class="st0" d="M195.5,129.5"/>
<polyline class="st0" points="137,28.5 41.5,28.5 41.5,228.5 178.5,228.5 178.5,216.5 "/>
<path class="st0" d="M177.5,28.5"/>
<path class="st0" d="M100.53,93.17L121.25,124H55.32c-2.64,0-4.2-2.94-2.73-5.13l29.87-44.45c1.3-1.94,4.16-1.94,5.46,0l8.7,12.94"
	/>
<path class="st0" d="M136.3,109.64l6.25,9.37c1.42,2.13-0.11,4.99-2.67,4.99h-18.63l-16.96-25.23l9.08-15.25
	c1.21-2.03,4.12-2.1,5.43-0.14L132.54,104"/>
<path class="st0" d="M229.14,186.5H88.86c-4.06,0-7.36-3.29-7.36-7.36v-29.28c0-4.06,3.29-7.36,7.36-7.36h140.28
	c4.06,0,7.36,3.29,7.36,7.36v29.28C236.5,183.21,233.21,186.5,229.14,186.5z"/>
<path class="st0" d="M107.39,203.5H93.86c-2.96,0-5.36-2.4-5.36-5.36V186.5h142v11.64c0,2.96-2.4,5.36-5.36,5.36h-73.6"/>
<path class="st0" d="M107.18,186.5c0,0,0.32,23,0.32,31c0,9,14,10,14,0c-0.03-17.89,14.84-14.61,15-5c0,13,15,15,15,0l0.04-26"/>
<path class="st0" d="M235,46.04v11.93c0,2.23-1.81,4.04-4.04,4.04h-74.93c-2.23,0-4.04-1.81-4.04-4.04V18.04
	c0-2.23,1.81-4.04,4.04-4.04h39.93c2.23,0,4.04,1.81,4.04,4.04V42h30.96C233.19,42,235,43.81,235,46.04z"/>
<path class="st0" d="M231.21,95h-75.42c-1.54,0-2.79-1.25-2.79-2.79V72.79c0-1.54,1.25-2.79,2.79-2.79h75.42
	c1.54,0,2.79,1.25,2.79,2.79v19.42C234,93.75,232.75,95,231.21,95z"/>
<path class="st0" d="M230.72,130h-74.44c-1.81,0-3.28-1.47-3.28-3.28v-19.44c0-1.81,1.47-3.28,3.28-3.28h74.44
	c1.81,0,3.28,1.47,3.28,3.28v19.44C234,128.53,232.53,130,230.72,130z"/>
<line class="st0" x1="228" y1="26" x2="200" y2="42"/>
<polyline class="st0" points="159,28 159,20 167,20 "/>
<polyline class="st0" points="228,117 228,124 221,124 "/>
<circle class="st0" cx="102" cy="57" r="6"/>
<line class="st0" x1="102" y1="44" x2="102" y2="48"/>
<line class="st0" x1="111.19" y1="47.81" x2="108.36" y2="50.64"/>
<line class="st0" x1="115" y1="57" x2="111" y2="57"/>
<line class="st0" x1="111.19" y1="66.19" x2="108.36" y2="63.36"/>
<line class="st0" x1="102" y1="70" x2="102" y2="66"/>
<line class="st0" x1="92.81" y1="66.19" x2="95.64" y2="63.36"/>
<line class="st0" x1="89" y1="57" x2="93" y2="57"/>
<line class="st0" x1="92.81" y1="47.81" x2="95.64" y2="50.64"/>
<line class="st0" x1="7" y1="1" x2="7" y2="13"/>
<line class="st0" x1="1" y1="7" x2="13" y2="7"/>
<line class="st0" x1="7" y1="247" x2="7" y2="259"/>
<line class="st0" x1="1" y1="253" x2="13" y2="253"/>
<line class="st0" x1="253" y1="247" x2="253" y2="259"/>
<line class="st0" x1="247" y1="253" x2="259" y2="253"/>
<line class="st0" x1="253" y1="1" x2="253" y2="13"/>
<line class="st0" x1="247" y1="7" x2="259" y2="7"/>
</svg>
