<?xml version="1.0" encoding="utf-8"?>
<!-- Generator: Adobe Illustrator 23.0.3, SVG Export Plug-In . SVG Version: 6.00 Build 0)  -->
<svg version="1.1" id="Layer_1" xmlns="http://www.w3.org/2000/svg" xmlns:xlink="http://www.w3.org/1999/xlink" x="0px" y="0px"
	 viewBox="0 0 260 260" style="enable-background:new 0 0 260 260;" xml:space="preserve">
<style type="text/css">
	.st0{fill:none;stroke:#EAEAEA;stroke-width:2;stroke-miterlimit:10;}
	.st1{fill:none;stroke:#EAEAEA;stroke-width:2;stroke-linecap:round;stroke-linejoin:round;stroke-miterlimit:10;}
</style>
<polygon class="st0" points="186.06,108.48 197.72,108.48 246.9,108.48 246.9,216.99 186.06,216.99 "/>
<polygon class="st0" points="197.21,85.15 232.87,85.15 232.87,108.48 197.72,108.48 "/>
<line class="st0" x1="210.23" y1="93.94" x2="232.87" y2="93.94"/>
<line class="st1" x1="135.34" y1="41.54" x2="178.94" y2="41.54"/>
<path class="st0" d="M135.77,79.37c3.11-3.35,7.16-5.82,11.74-7.01l0-47.05h19.27l-0.06,46.9c11.07,2.27,19.34,11.81,19.34,23.56
	v121.22h-56.72"/>
<polyline class="st0" points="186.06,114.39 156.65,114.39 156.65,196.2 186.06,196.2 "/>
<polyline class="st0" points="186.06,175.92 171.35,175.92 171.35,133.49 186.06,133.49 "/>
<polygon class="st0" points="117.94,88.37 127.24,69.94 143.63,88.37 143.63,216.99 117.94,216.99 "/>
<polygon class="st0" points="59.3,69.94 127.24,69.94 117.94,88.37 49.32,88.37 "/>
<line class="st0" x1="143.63" y1="88.37" x2="117.94" y2="88.37"/>
<polyline class="st0" points="59.3,69.94 59.3,49.79 127.94,50.36 127.94,70.51 "/>
<polygon class="st0" points="13.83,130 59.3,130 57.87,143.46 51.01,208.2 23.63,208.2 "/>
<line class="st0" x1="25.32" y1="143.46" x2="57.87" y2="143.46"/>
<line class="st0" x1="28.03" y1="199.07" x2="51.82" y2="199.07"/>
<line class="st0" x1="49.32" y1="88.37" x2="49.32" y2="130"/>
<polyline class="st0" points="117.94,216.99 20.93,216.99 20.93,208.2 54.23,208.2 54.1,216.99 "/>
<polygon class="st0" points="71.25,128.25 107.42,128.25 100.83,169.1 65.34,169.1 "/>
<path class="st0" d="M45.77,169.1c0,8.17-4.52,14.25-8.32,14.25c-3.8,0-8.41-6.62-8.41-14.79c0-8.17,4.6-14.79,8.41-14.79
	C41.25,153.77,45.77,160.93,45.77,169.1z"/>
<rect x="204.54" y="164.71" transform="matrix(0.7071 0.7071 -0.7071 0.7071 187.4127 -100.9613)" class="st0" width="22.07" height="22.07"/>
<path class="st0" d="M204.99,170.73l10.59-10.59l10.16,10.16c2.93-2.8,4.77-6.74,4.77-11.12c0-8.49-6.89-15.38-15.38-15.38
	c-8.49,0-15.38,6.89-15.38,15.38C199.75,163.79,201.78,167.91,204.99,170.73z"/>
<line class="st0" x1="57.87" y1="227.13" x2="197.21" y2="227.13"/>
<line class="st0" x1="208.37" y1="227.13" x2="246.9" y2="227.13"/>
<line class="st0" x1="11.63" y1="237.27" x2="49.32" y2="237.27"/>
<line class="st0" x1="80.59" y1="237.27" x2="98.34" y2="237.27"/>
<line class="st0" x1="115.58" y1="237.27" x2="199.75" y2="237.27"/>
</svg>
