<?xml version="1.0" encoding="utf-8"?>
<!-- Generator: Adobe Illustrator 23.0.3, SVG Export Plug-In . SVG Version: 6.00 Build 0)  -->
<svg version="1.1" id="Layer_1" xmlns="http://www.w3.org/2000/svg" xmlns:xlink="http://www.w3.org/1999/xlink" x="0px" y="0px"
	 viewBox="0 0 260 260" style="enable-background:new 0 0 260 260;" xml:space="preserve">
<style type="text/css">
	.st0{fill:none;stroke:#EAEAEA;stroke-width:2;stroke-miterlimit:10;}
	.st1{fill:none;stroke:#EAEAEA;stroke-width:2;stroke-linecap:round;stroke-linejoin:round;stroke-miterlimit:10;}
	.st2{fill:none;stroke:#EAEAEA;stroke-width:2;stroke-linecap:round;stroke-linejoin:round;}
	.st3{fill:none;stroke:#EAEAEA;stroke-width:2;stroke-linecap:round;stroke-linejoin:round;stroke-dasharray:3.9321,3.9321;}
	.st4{fill:#EAEAEA;}
</style>
<rect x="18.49" y="125.01" class="st0" width="8.79" height="8.79"/>
<rect x="76.69" y="125.01" class="st0" width="8.79" height="8.79"/>
<rect x="135.99" y="123.91" class="st0" width="8.79" height="8.79"/>
<rect x="135.99" y="83.28" class="st0" width="8.79" height="8.79"/>
<rect x="135.99" y="41.55" class="st0" width="8.79" height="8.79"/>
<rect x="239.21" y="123.91" class="st0" width="8.79" height="8.79"/>
<rect x="239.21" y="227.14" class="st0" width="8.79" height="8.79"/>
<rect x="135.99" y="227.14" class="st0" width="8.79" height="8.79"/>
<rect x="76.69" y="41.55" class="st0" width="8.79" height="8.79"/>
<line class="st0" x1="22.88" y1="125.01" x2="22.88" y2="97.56"/>
<line class="st1" x1="33.86" y1="129.4" x2="76.69" y2="129.4"/>
<line class="st1" x1="90.97" y1="129.4" x2="135.99" y2="129.4"/>
<line class="st1" x1="140.38" y1="123.91" x2="140.38" y2="97.56"/>
<line class="st1" x1="140.38" y1="83.28" x2="140.38" y2="55.83"/>
<line class="st1" x1="135.99" y1="45.94" x2="90.97" y2="45.94"/>
<line class="st1" x1="76.69" y1="45.94" x2="33.86" y2="45.94"/>
<polygon class="st1" points="13,25.08 13,108.54 36.06,83.28 69,84.38 "/>
<line class="st1" x1="47.04" y1="74.5" x2="13" y2="25.08"/>
<path class="st0" d="M144.78,128.3"/>
<line class="st1" x1="144.78" y1="128.3" x2="239.21" y2="128.3"/>
<g>
	<g>
		<line class="st2" x1="243.61" y1="132.7" x2="243.61" y2="134.7"/>
		<line class="st3" x1="243.61" y1="138.63" x2="243.61" y2="223.17"/>
		<line class="st2" x1="243.61" y1="225.14" x2="243.61" y2="227.14"/>
	</g>
</g>
<g>
	<g>
		<line class="st2" x1="239.21" y1="231.53" x2="237.21" y2="231.53"/>
		<line class="st3" x1="233.28" y1="231.53" x2="148.74" y2="231.53"/>
		<line class="st2" x1="146.78" y1="231.53" x2="144.78" y2="231.53"/>
	</g>
</g>
<line class="st1" x1="140.38" y1="227.14" x2="140.38" y2="132.7"/>
<circle class="st1" cx="210" cy="85" r="16"/>
<path class="st1" d="M194,85c0-4.15,1.59-7.92,4.19-10.76C194.42,67.53,187.24,63,179,63c-12.15,0-22,9.85-22,22s9.85,22,22,22
	c8.24,0,15.42-4.53,19.19-11.24C195.59,92.92,194,89.15,194,85z"/>
<path class="st1" d="M75.75,168.5c20.99,0,38,17.5,38,17.5s-17.01,17.5-38,17.5s-38-17.5-38-17.5S54.76,168.5,75.75,168.5z"/>
<circle class="st1" cx="69.75" cy="181" r="11"/>
<g>
	<path class="st4" d="M119.75,191c-2.26,2.8-4.95,5.24-7.8,7.44c-2.86,2.21-5.95,4.11-9.19,5.74c-3.24,1.63-6.7,2.82-10.24,3.63
		c-3.54,0.83-7.21,0.99-10.78,0.69c3.56-0.53,7.03-1.11,10.38-2.2c0.85-0.21,1.66-0.57,2.49-0.84c0.83-0.29,1.66-0.56,2.46-0.93
		l2.43-1l2.37-1.14c3.15-1.54,6.2-3.31,9.18-5.21C114.02,195.25,116.92,193.2,119.75,191z"/>
</g>
</svg>
