<?xml version="1.0" encoding="utf-8"?>
<!-- Generator: Adobe Illustrator 23.0.3, SVG Export Plug-In . SVG Version: 6.00 Build 0)  -->
<svg version="1.1" id="Layer_1" xmlns="http://www.w3.org/2000/svg" xmlns:xlink="http://www.w3.org/1999/xlink" x="0px" y="0px"
	 viewBox="0 0 260 260" style="enable-background:new 0 0 260 260;" xml:space="preserve">
<style type="text/css">
	.st0{fill:none;stroke:#EAEAEA;stroke-width:2;stroke-miterlimit:10;}
</style>
<path class="st0" d="M42.39,33.1H19.41c-1.59,0-2.87-1.29-2.87-2.87v-8.79c0-1.59,1.29-2.87,2.87-2.87h22.99
	c1.59,0,2.87,1.29,2.87,2.87v8.79C45.27,31.81,43.98,33.1,42.39,33.1z"/>
<path class="st0" d="M50.85,29.63h-5.58v-8.03h5.58c1.35,0,2.45,1.1,2.45,2.45v3.13C53.3,28.54,52.2,29.63,50.85,29.63z"/>
<circle class="st0" cx="30.9" cy="25.83" r="6.42"/>
<path class="st0" d="M70.07,33.1h-6.51c-2.22,0-4.01-1.8-4.01-4.01v-6.51c0-2.22,1.8-4.01,4.01-4.01h6.51c2.22,0,4.01,1.8,4.01,4.01
	v6.51C74.08,31.3,72.29,33.1,70.07,33.1z"/>
<path class="st0" d="M103.07,33.1H89.04c-2.15,0-3.89-1.74-3.89-3.89v-3.72c0-2.15,1.74-3.89,3.89-3.89h14.03
	c2.15,0,3.89,1.74,3.89,3.89v3.72C106.96,31.36,105.22,33.1,103.07,33.1z"/>
<line class="st0" x1="92.59" y1="21.61" x2="92.59" y2="33.1"/>
<line class="st0" x1="99.86" y1="21.61" x2="99.86" y2="33.1"/>
<path class="st0" d="M106.96,58.62v117.97c0,2.89-2.35,5.24-5.24,5.24H21.77c-2.89,0-5.24-2.35-5.24-5.24V52.87
	c0-2.89,2.35-5.24,5.24-5.24h74.28L106.96,58.62z"/>
<line class="st0" x1="45.27" y1="64.87" x2="66.82" y2="64.87"/>
<line class="st0" x1="45.27" y1="72.65" x2="57.1" y2="72.65"/>
<polyline class="st0" points="92.59,53.38 92.59,61.49 101.04,61.49 "/>
<line class="st0" x1="30.9" y1="98" x2="92.59" y2="98"/>
<line class="st0" x1="30.9" y1="109.83" x2="92.59" y2="109.83"/>
<line class="st0" x1="30.9" y1="119.97" x2="92.59" y2="119.97"/>
<line class="st0" x1="30.9" y1="131.8" x2="92.59" y2="131.8"/>
<line class="st0" x1="30.9" y1="142.96" x2="59.55" y2="142.96"/>
<circle class="st0" cx="34.45" cy="69.27" r="4.23"/>
<circle class="st0" cx="86.85" cy="161.89" r="5.75"/>
<path class="st0" d="M129.73,109.17l-4.24,5.56l-4.24-5.56c-0.17-0.23-0.27-0.51-0.27-0.79V33.1V20.89c0-1.28,1.04-2.32,2.32-2.32
	h4.37c1.28,0,2.32,1.04,2.32,2.32v87.49C130,108.66,129.91,108.94,129.73,109.17z"/>
<line class="st0" x1="120.99" y1="25.58" x2="130" y2="25.58"/>
<line class="st0" x1="130" y1="33.1" x2="120.99" y2="33.1"/>
<circle class="st0" cx="125.32" cy="73.35" r="4.16"/>
<path class="st0" d="M244.7,104.76H143.3V20.42c0-3.08,2.5-5.58,5.58-5.58h90.25c3.08,0,5.58,2.5,5.58,5.58V104.76z"/>
<path class="st0" d="M243.7,113.04h-96.39c-2.22,0-4.01-1.8-4.01-4.01v-4.27H243.7c0,0-1.43,1.46-1.49,4.14
	C242.15,111.58,243.7,113.04,243.7,113.04z"/>
<path class="st0" d="M170.93,181.83h-45.46c-2.38,0-4.31-1.93-4.31-4.31v-45.46c0-2.38,1.93-4.31,4.31-4.31h45.46
	c2.38,0,4.31,1.93,4.31,4.31v45.46C175.24,179.9,173.31,181.83,170.93,181.83z"/>
<circle class="st0" cx="148.2" cy="154.85" r="13.75"/>
<polyline class="st0" points="142.2,160.7 148.2,152.08 154.62,160.7 "/>
<circle class="st0" cx="215.72" cy="156.39" r="4.31"/>
<circle class="st0" cx="216.1" cy="155.85" r="24.99"/>
<line class="st0" x1="225.15" y1="132.56" x2="217.31" y2="152.39"/>
<line class="st0" x1="219.67" y1="154.68" x2="239.39" y2="146.8"/>
<line class="st0" x1="163.24" y1="77.51" x2="225.15" y2="77.51"/>
<line class="st0" x1="175.24" y1="84.14" x2="212.93" y2="84.14"/>
<polyline class="st0" points="187.58,59.8 193.5,50.34 201.1,59.8 "/>
<circle class="st0" cx="194.2" cy="53.58" r="14.07"/>
<path class="st0" d="M101.55,243.01H21.94c-2.99,0-5.41-2.42-5.41-5.41v-35.83c0-2.99,2.42-5.41,5.41-5.41h79.61
	c2.99,0,5.41,2.42,5.41,5.41v35.83C106.96,240.59,104.54,243.01,101.55,243.01z"/>
<line class="st0" x1="21.94" y1="203.8" x2="42.56" y2="203.8"/>
<path class="st0" d="M59.55,230.59v4.56c0,0.79,0.64,1.44,1.44,1.44h36.93c0.79,0,1.44-0.64,1.44-1.44v-4.56
	c0-0.79-0.64-1.44-1.44-1.44H60.99C60.19,229.15,59.55,229.8,59.55,230.59z"/>
<path class="st0" d="M92.59,205.85v4.35c0,1.13,0.92,2.05,2.05,2.05h4.35c1.13,0,2.05-0.92,2.05-2.05v-4.35
	c0-1.13-0.92-2.05-2.05-2.05h-4.35C93.51,203.8,92.59,204.72,92.59,205.85z"/>
<line class="st0" x1="36.48" y1="232.87" x2="47.3" y2="232.87"/>
<circle class="st0" cx="27.35" cy="232.87" r="4.9"/>
<path class="st0" d="M206.92,244.37h-80.27c-3.03,0-5.49-2.46-5.49-5.49v-37.01c0-3.03,2.46-5.49,5.49-5.49h80.27
	c3.03,0,5.49,2.46,5.49,5.49v37.01C212.41,241.91,209.95,244.37,206.92,244.37z"/>
<line class="st0" x1="130" y1="214.62" x2="144.31" y2="214.62"/>
<line class="st0" x1="130" y1="225.77" x2="144.31" y2="225.77"/>
<line class="st0" x1="188.93" y1="214.62" x2="201.77" y2="214.62"/>
<line class="st0" x1="188.93" y1="225.77" x2="201.77" y2="225.77"/>
<polyline class="st0" points="161.94,225.77 166.78,218 172.7,225.77 "/>
<circle class="st0" cx="166.78" cy="220" r="12.68"/>
<path class="st0" d="M237.32,210.66h-6.77c-2.08,0-3.76-1.68-3.76-3.76v-6.77c0-2.08,1.68-3.76,3.76-3.76h6.77
	c2.08,0,3.76,1.68,3.76,3.76v6.77C241.08,208.98,239.4,210.66,237.32,210.66z"/>
<path class="st0" d="M241.08,211.62v31.35c0,0.77-0.62,1.39-1.39,1.39h-11.51c-0.77,0-1.39-0.62-1.39-1.39v-31.35"/>
<circle class="st0" cx="233.94" cy="228.99" r="6.42"/>
<line class="st0" x1="230.51" y1="202.45" x2="237.94" y2="202.45"/>
<circle class="st0" cx="234.21" cy="228.99" r="0.41"/>
</svg>
