<?xml version="1.0" encoding="utf-8"?>
<!-- Generator: Adobe Illustrator 23.0.3, SVG Export Plug-In . SVG Version: 6.00 Build 0)  -->
<svg version="1.1" id="Layer_1" xmlns="http://www.w3.org/2000/svg" xmlns:xlink="http://www.w3.org/1999/xlink" x="0px" y="0px"
	 width="28" height="28" viewBox="0 0 24 24" style="enable-background:new 0 0 24 24;" xml:space="preserve">
<style type="text/css">
	.st0{fill:#FFFFFF;}
</style>
<path class="st0" d="M12,7c-2.8,0-5,2.3-5,5c0,2.8,2.3,5,5,5c2.8,0,5-2.3,5-5C17,9.2,14.8,7,12,7L12,7z M12,15.3
	c-1.8,0-3.3-1.5-3.3-3.3s1.5-3.3,3.3-3.3s3.3,1.5,3.3,3.3C15.3,13.8,13.8,15.3,12,15.3z"/>
<path class="st0" d="M16.1,2.2c-1.8-0.1-6.3-0.1-8.1,0C6.4,2.3,5,2.7,3.8,3.8C1.9,5.7,2.2,8.3,2.2,12c0,3.8-0.2,6.3,1.6,8.2
	c1.9,1.9,4.5,1.6,8.2,1.6c3.8,0,5.1,0,6.4-0.5c1.8-0.7,3.2-2.3,3.3-5.3c0.1-1.8,0.1-6.3,0-8.1C21.6,4.5,19.8,2.4,16.1,2.2L16.1,2.2z
	 M18.9,18.9C17.7,20.2,16,20,12,20c-4.1,0-5.7,0.1-6.9-1.1c-1.4-1.4-1.1-3.6-1.1-6.9c0-4.5-0.5-7.8,4.1-8c1,0,1.4,0,4,0l0,0
	c4.4,0,7.8-0.5,8,4.1c0,1,0.1,1.3,0.1,4C20.1,16,20.1,17.7,18.9,18.9L18.9,18.9z"/>
<circle class="st0" cx="17.2" cy="6.8" r="1.2"/>
</svg>
