<?xml version="1.0" encoding="utf-8"?>
<!-- Generator: Adobe Illustrator 23.0.3, SVG Export Plug-In . SVG Version: 6.00 Build 0)  -->
<svg version="1.1" id="Layer_1" xmlns="http://www.w3.org/2000/svg" xmlns:xlink="http://www.w3.org/1999/xlink" x="0px" y="0px"
	 width="155" height="41" viewBox="0 0 260 80" style="enable-background:new 0 0 260 80;" xml:space="preserve">
<path d="M32.2,27.8c2.1,0,4.1,0.4,5.9,1.2s3.5,1.9,4.9,3.3c1.4,1.4,2.5,3,3.3,4.9c0.8,1.9,1.2,3.9,1.2,6s-0.4,4.1-1.2,5.9
	C45.5,51,44.4,52.6,43,54c-1.4,1.4-3,2.5-4.9,3.3c-1.8,0.8-3.8,1.2-5.9,1.2c-2.3,0-4.5-0.5-6.4-1.4s-3.7-2.2-5.1-3.8v20.4h-3.8V27.8
	h3.8v5.3c1.5-1.6,3.2-2.9,5.1-3.9C27.7,28.3,29.9,27.8,32.2,27.8z M32.2,54.6c1.5,0,3-0.3,4.3-0.9c1.4-0.6,2.6-1.4,3.6-2.5
	c1-1,1.8-2.3,2.4-3.6c0.6-1.4,0.9-2.9,0.9-4.4s-0.3-3.1-0.9-4.5s-1.4-2.6-2.4-3.7c-1-1-2.2-1.9-3.6-2.5c-1.4-0.6-2.8-0.9-4.3-0.9
	c-1.6,0-3.2,0.3-4.6,0.9S25.1,34,24,35.1c-1,1-1.9,2.3-2.5,3.7s-0.9,2.9-0.9,4.5c0,1.6,0.3,3.1,0.9,4.4c0.6,1.4,1.4,2.6,2.5,3.6
	c1,1,2.3,1.9,3.7,2.5S30.6,54.6,32.2,54.6z"/>
<path d="M78,27.7h3.9v30.8H78v-5.1c-1.4,1.6-3.1,2.8-5.1,3.7c-2,0.9-4.1,1.4-6.4,1.4c-2.1,0-4.1-0.4-6-1.2c-1.9-0.8-3.5-1.9-4.9-3.3
	c-1.4-1.4-2.5-3-3.3-4.9c-0.8-1.9-1.2-3.9-1.2-6c0-2.1,0.4-4.1,1.2-6c0.8-1.9,1.9-3.5,3.3-4.9c1.4-1.4,3-2.5,4.9-3.3
	c1.9-0.8,3.9-1.2,6-1.2c2.3,0,4.4,0.5,6.4,1.4c2,1,3.7,2.2,5.1,3.8V27.7z M66.5,54.7c1.6,0,3.1-0.3,4.5-0.9c1.4-0.6,2.6-1.4,3.7-2.5
	c1-1,1.9-2.3,2.5-3.7c0.6-1.4,0.9-2.9,0.9-4.5c0-1.6-0.3-3.1-0.9-4.5c-0.6-1.4-1.4-2.6-2.5-3.7c-1-1-2.3-1.9-3.7-2.5
	c-1.4-0.6-2.9-0.9-4.5-0.9s-3.1,0.3-4.5,0.9c-1.4,0.6-2.6,1.4-3.7,2.5c-1,1-1.9,2.3-2.5,3.7s-0.9,2.9-0.9,4.5c0,1.6,0.3,3.1,0.9,4.5
	c0.6,1.4,1.4,2.6,2.5,3.7c1,1,2.3,1.9,3.7,2.5C63.4,54.4,64.9,54.7,66.5,54.7z"/>
<path d="M116.4,37.3c-0.8-1.9-1.9-3.5-3.3-4.9c-1.4-1.4-3-2.5-4.9-3.3c-1.8-0.8-3.8-1.2-5.9-1.2c-2.3,0-4.5,0.5-6.4,1.4
	s-3.7,2.3-5.1,3.9v-5.4l0,0h-3.5l-0.3,0v46h3.8V53.3c1.5,1.6,3.2,2.8,5.1,3.8c2,0.9,4.1,1.4,6.4,1.4c2.1,0,4.1-0.4,5.9-1.2
	c1.8-0.8,3.5-1.9,4.9-3.3c1.4-1.4,2.5-3,3.3-4.8c0.8-1.8,1.2-3.8,1.2-5.9S117.2,39.1,116.4,37.3z M112.7,47.6
	c-0.6,1.4-1.4,2.6-2.4,3.6c-1,1-2.2,1.9-3.6,2.5c-1.4,0.6-2.8,0.9-4.3,0.9c-1.6,0-3.2-0.3-4.6-0.9c-1.4-0.6-2.6-1.4-3.7-2.5
	c-1-1-1.9-2.3-2.5-3.6c-0.6-1.4-0.9-2.9-0.9-4.4c0-1.6,0.3-3.1,0.9-4.5c0.6-1.4,1.4-2.6,2.5-3.7c1-1,2.3-1.9,3.7-2.5
	c1.4-0.6,2.9-0.9,4.6-0.9c1.5,0,3,0.3,4.3,0.9c1.4,0.6,2.6,1.4,3.6,2.5c1,1,1.8,2.3,2.4,3.7c0.6,1.4,0.9,2.9,0.9,4.5
	C113.6,44.8,113.3,46.3,112.7,47.6z"/>
<path d="M143.2,52.5c1-0.8,2-1.8,2.8-2.8l2.7,2.8c-0.2,0.3-0.5,0.5-0.7,0.7c-0.2,0.2-0.4,0.5-0.6,0.7c-0.3,0.2-0.5,0.4-0.7,0.6
	c-0.2,0.2-0.5,0.4-0.7,0.7c-1.3,1-2.8,1.8-4.4,2.4s-3.2,0.9-5,0.9c-1.8,0-3.5-0.3-5.1-0.9s-3-1.4-4.4-2.4c-0.3-0.2-0.5-0.5-0.7-0.7
	c-0.2-0.2-0.5-0.4-0.7-0.6c-0.2-0.3-0.4-0.5-0.6-0.7c-0.2-0.2-0.4-0.5-0.7-0.7c-0.8-1.1-1.5-2.3-2-3.6c-0.5-1.3-0.9-2.6-1-4
	c-0.1-0.3-0.2-0.6-0.2-0.9c0-0.3,0-0.6,0-0.9c0-0.4,0-0.7,0-1c0-0.3,0.1-0.6,0.2-0.9c0.1-1.4,0.4-2.7,1-4c0.5-1.3,1.2-2.4,2-3.6
	c0.2-0.3,0.5-0.5,0.7-0.7c0.2-0.2,0.4-0.5,0.6-0.7c0.3-0.2,0.5-0.4,0.7-0.6c0.2-0.2,0.5-0.4,0.7-0.6c2.8-2.1,5.9-3.2,9.5-3.2
	c3.5,0,6.6,1,9.4,3.2c0.3,0.2,0.5,0.4,0.7,0.6s0.5,0.4,0.7,0.6c0.2,0.3,0.4,0.5,0.6,0.7c0.2,0.2,0.4,0.5,0.7,0.7l-2.7,2.8l-4.8,4.7
	l-1.8,1.9l-1.9,1.8l-0.8,0.9l-6.7,6.7c0.9,0.6,2,1.2,3.1,1.5c1.1,0.4,2.3,0.6,3.6,0.6c1.2,0,2.4-0.2,3.5-0.6
	C141.2,53.7,142.3,53.2,143.2,52.5z M125.2,45c0.4,1.9,1,3.5,2,4.7L132,45l1.8-1.8l1.9-1.9l0.9-0.9l6.6-6.6
	c-1.9-1.5-4.1-2.2-6.6-2.2c-2.5,0-4.7,0.7-6.7,2.2c-1,0.8-2,1.7-2.7,2.7c-1,1.2-1.7,2.8-2,4.7c0,0.3,0,0.6-0.1,0.9
	c-0.1,0.3-0.1,0.7-0.1,1c0,0.3,0,0.6,0.1,0.9C125.2,44.4,125.2,44.7,125.2,45z"/>
<path d="M162.7,29.2c2-1,4.2-1.4,6.4-1.4v3.9c-1.6,0-3.1,0.3-4.5,0.9S162,34,161,35.1c-1,1-1.8,2.3-2.5,3.7
	c-0.6,1.4-0.9,2.9-0.9,4.5v10.1v5.2h-3.9V43.2V27.8h3.9v5.3C159,31.5,160.7,30.2,162.7,29.2z"/>
<path d="M178,6.7v22v-1h9.1v3.9H178v26.8h-3.8V6.7"/>
<path d="M194.6,6.7h3.9v51.8h-3.9V6.7z"/>
<path d="M227.9,27.8c2.1,0,4.1,0.4,5.9,1.2c1.8,0.8,3.5,1.9,4.9,3.3s2.5,3,3.3,4.9c0.8,1.9,1.2,3.9,1.2,6s-0.4,4.1-1.2,5.9
	c-0.8,1.8-1.9,3.4-3.3,4.8s-3,2.5-4.9,3.3c-1.8,0.8-3.8,1.2-5.9,1.2c-2.3,0-4.5-0.5-6.4-1.4c-2-0.9-3.7-2.2-5.1-3.8v20.4h-3.8V27.8
	h3.8v5.3c1.5-1.6,3.2-2.9,5.1-3.9C223.5,28.3,225.6,27.8,227.9,27.8z M227.9,54.6c1.5,0,3-0.3,4.3-0.9c1.4-0.6,2.6-1.4,3.6-2.5
	c1-1,1.8-2.3,2.4-3.6c0.6-1.4,0.9-2.9,0.9-4.4s-0.3-3.1-0.9-4.5s-1.4-2.6-2.4-3.7c-1-1-2.2-1.9-3.6-2.5c-1.4-0.6-2.8-0.9-4.3-0.9
	c-1.6,0-3.2,0.3-4.6,0.9c-1.4,0.6-2.6,1.4-3.7,2.5c-1,1-1.9,2.3-2.5,3.7s-0.9,2.9-0.9,4.5c0,1.6,0.3,3.1,0.9,4.4
	c0.6,1.4,1.4,2.6,2.5,3.6c1,1,2.3,1.9,3.7,2.5S226.3,54.6,227.9,54.6z"/>
<polygon points="7.8,69.5 11.8,69.5 11.8,73.7 3.9,73.7 3.9,6.7 170,6.7 170,10.6 7.8,10.6 "/>
<rect x="174.2" y="6.7" width="15.3" height="3.9"/>
<rect x="95.9" y="69.8" width="111.6" height="3.9"/>
<rect x="25.7" y="69.8" width="56.2" height="3.9"/>
<polygon points="256.1,10.6 256.1,6.7 252.2,6.7 212.6,6.7 212.6,10.6 252.2,10.6 252.2,69.8 221.7,69.8 221.7,73.6 252.2,73.6 
	256.1,73.6 256.1,69.8 "/>
<g>
	<polygon points="207.5,23.3 207.5,58.5 203.6,58.5 203.6,27.6 	"/>
	<polygon points="203.6,21.7 203.6,6.7 207.5,6.7 207.5,17.4 	"/>
</g>
</svg>
