<?xml version="1.0" encoding="utf-8"?>
<!-- Generator: Adobe Illustrator 23.0.3, SVG Export Plug-In . SVG Version: 6.00 Build 0)  -->
<svg version="1.1" id="Layer_1" xmlns="http://www.w3.org/2000/svg" xmlns:xlink="http://www.w3.org/1999/xlink" x="0px" y="0px"
	 width="156" height="42" viewBox="0 0 156 42" style="enable-background:new 0 0 156 42;" xml:space="preserve">
<path d="M27.64,14.47c1.08,0,2.09,0.21,3.03,0.63c0.94,0.42,1.77,0.99,2.49,1.71c0.72,0.72,1.28,1.56,1.68,2.52
	c0.4,0.96,0.61,1.98,0.61,3.06s-0.2,2.09-0.61,3.03c-0.4,0.94-0.97,1.77-1.68,2.47c-0.72,0.7-1.55,1.27-2.49,1.68
	c-0.94,0.42-1.95,0.63-3.03,0.63c-1.2,0-2.3-0.24-3.3-0.72c-1-0.48-1.88-1.12-2.63-1.93v10.43h-1.93v-23.5h1.93v2.74
	c0.75-0.84,1.62-1.51,2.63-2C25.34,14.72,26.44,14.47,27.64,14.47z M27.64,28.22c0.78,0,1.52-0.15,2.22-0.45
	c0.7-0.3,1.32-0.72,1.84-1.26c0.52-0.54,0.94-1.16,1.24-1.86c0.3-0.7,0.45-1.46,0.45-2.27c0-0.81-0.15-1.57-0.45-2.29
	c-0.3-0.72-0.71-1.35-1.24-1.89c-0.52-0.54-1.14-0.96-1.84-1.26c-0.7-0.3-1.45-0.45-2.22-0.45c-0.84,0-1.62,0.15-2.34,0.45
	c-0.72,0.3-1.35,0.72-1.89,1.26c-0.54,0.54-0.96,1.17-1.26,1.89c-0.3,0.72-0.45,1.48-0.45,2.29c0,0.81,0.15,1.57,0.45,2.27
	c0.3,0.7,0.72,1.33,1.26,1.86c0.54,0.54,1.17,0.96,1.89,1.26C26.02,28.07,26.8,28.22,27.64,28.22z"/>
<path d="M51.08,14.43h2.02V30.2h-2.02v-2.61c-0.72,0.81-1.59,1.45-2.61,1.91c-1.02,0.46-2.11,0.7-3.28,0.7
	c-1.08,0-2.1-0.2-3.06-0.61c-0.96-0.4-1.8-0.97-2.52-1.68c-0.72-0.72-1.28-1.56-1.68-2.52c-0.4-0.96-0.61-1.98-0.61-3.06
	s0.2-2.1,0.61-3.06c0.4-0.96,0.97-1.8,1.68-2.52c0.72-0.72,1.56-1.29,2.52-1.71c0.96-0.42,1.98-0.63,3.06-0.63
	c1.17,0,2.26,0.25,3.28,0.74c1.02,0.49,1.89,1.15,2.61,1.95V14.43z M45.19,28.26c0.81,0,1.57-0.16,2.29-0.47
	c0.72-0.31,1.35-0.74,1.89-1.28c0.54-0.54,0.96-1.17,1.26-1.89c0.3-0.72,0.45-1.48,0.45-2.29c0-0.81-0.15-1.57-0.45-2.29
	c-0.3-0.72-0.72-1.35-1.26-1.89c-0.54-0.54-1.17-0.96-1.89-1.26c-0.72-0.3-1.48-0.45-2.29-0.45c-0.81,0-1.57,0.15-2.29,0.45
	c-0.72,0.3-1.35,0.72-1.89,1.26c-0.54,0.54-0.97,1.17-1.28,1.89c-0.31,0.72-0.47,1.48-0.47,2.29c0,0.81,0.16,1.57,0.47,2.29
	c0.31,0.72,0.74,1.35,1.28,1.89c0.54,0.54,1.17,0.97,1.89,1.28C43.62,28.11,44.39,28.26,45.19,28.26z"/>
<path d="M70.78,19.32c-0.4-0.96-0.97-1.8-1.68-2.52c-0.72-0.72-1.55-1.29-2.49-1.71c-0.94-0.42-1.95-0.63-3.03-0.63
	c-1.2,0-2.3,0.25-3.3,0.74c-1,0.49-1.88,1.16-2.63,2v-2.79l-0.02,0h-1.77l-0.15,0V38h1.93V27.54c0.75,0.81,1.62,1.45,2.63,1.93
	c1,0.48,2.1,0.72,3.3,0.72c1.08,0,2.09-0.21,3.03-0.63c0.94-0.42,1.77-0.98,2.49-1.68c0.72-0.7,1.28-1.53,1.68-2.47
	c0.4-0.94,0.61-1.95,0.61-3.03S71.18,20.28,70.78,19.32z M68.87,24.65c-0.3,0.7-0.71,1.33-1.24,1.86c-0.52,0.54-1.14,0.96-1.84,1.26
	c-0.7,0.3-1.45,0.45-2.22,0.45c-0.84,0-1.62-0.15-2.34-0.45c-0.72-0.3-1.35-0.72-1.89-1.26c-0.54-0.54-0.96-1.16-1.26-1.86
	c-0.3-0.7-0.45-1.46-0.45-2.27c0-0.81,0.15-1.57,0.45-2.29c0.3-0.72,0.72-1.35,1.26-1.89c0.54-0.54,1.17-0.96,1.89-1.26
	c0.72-0.3,1.5-0.45,2.34-0.45c0.78,0,1.52,0.15,2.22,0.45c0.7,0.3,1.32,0.72,1.84,1.26c0.52,0.54,0.94,1.17,1.24,1.89
	c0.3,0.72,0.45,1.48,0.45,2.29C69.32,23.19,69.16,23.94,68.87,24.65z"/>
<path d="M84.49,27.14c0.54-0.42,1.02-0.9,1.44-1.44l1.39,1.44c-0.12,0.15-0.23,0.28-0.34,0.38c-0.11,0.11-0.2,0.23-0.29,0.38
	c-0.15,0.09-0.28,0.19-0.38,0.29c-0.11,0.11-0.23,0.22-0.38,0.34c-0.69,0.51-1.44,0.91-2.25,1.21c-0.81,0.3-1.66,0.45-2.56,0.45
	c-0.93,0-1.8-0.15-2.61-0.45c-0.81-0.3-1.56-0.7-2.25-1.21c-0.15-0.12-0.28-0.23-0.38-0.34c-0.11-0.1-0.23-0.2-0.38-0.29
	c-0.09-0.15-0.19-0.28-0.29-0.38c-0.11-0.1-0.22-0.23-0.34-0.38c-0.42-0.57-0.76-1.18-1.03-1.82c-0.27-0.64-0.43-1.33-0.49-2.04
	c-0.06-0.15-0.09-0.31-0.09-0.47c0-0.16,0-0.32,0-0.47c0-0.18,0-0.35,0-0.52c0-0.16,0.03-0.32,0.09-0.47
	c0.06-0.72,0.22-1.4,0.49-2.04c0.27-0.64,0.61-1.25,1.03-1.82c0.12-0.15,0.23-0.28,0.34-0.38c0.1-0.1,0.2-0.23,0.29-0.38
	c0.15-0.09,0.28-0.19,0.38-0.31c0.1-0.12,0.23-0.22,0.38-0.31c1.41-1.08,3.02-1.62,4.85-1.62c1.8,0,3.4,0.54,4.81,1.62
	c0.15,0.09,0.28,0.19,0.38,0.31c0.1,0.12,0.23,0.22,0.38,0.31c0.09,0.15,0.19,0.28,0.29,0.38c0.1,0.11,0.22,0.23,0.34,0.38
	l-1.39,1.44l-2.47,2.43l-0.94,0.99l-0.99,0.94l-0.4,0.45l-3.41,3.41c0.48,0.33,1,0.59,1.57,0.79c0.57,0.2,1.18,0.29,1.84,0.29
	c0.63,0,1.23-0.1,1.8-0.29C83.48,27.73,84.01,27.47,84.49,27.14z M75.28,23.28c0.18,0.99,0.52,1.8,1.03,2.43l2.43-2.43l0.94-0.94
	l0.99-0.99l0.45-0.45l3.37-3.37c-0.99-0.75-2.11-1.12-3.37-1.12c-1.29,0-2.43,0.37-3.41,1.12c-0.54,0.39-1,0.85-1.39,1.39
	c-0.51,0.63-0.85,1.44-1.03,2.43c0,0.15-0.02,0.31-0.05,0.47c-0.03,0.17-0.04,0.34-0.04,0.52c0,0.15,0.01,0.31,0.04,0.47
	C75.26,22.97,75.28,23.13,75.28,23.28z"/>
<path d="M94.48,15.21c1.03-0.49,2.13-0.74,3.3-0.74v2.02c-0.81,0-1.57,0.15-2.29,0.45c-0.72,0.3-1.34,0.72-1.86,1.26
	c-0.52,0.54-0.94,1.17-1.26,1.89c-0.31,0.72-0.47,1.48-0.47,2.29v5.17v2.65h-1.98v-7.82v-7.91h1.98v2.74
	C92.58,16.37,93.44,15.71,94.48,15.21z"/>
<path d="M102.31,3.65v11.29v-0.51h4.68v2.02h-4.68V30.2h-1.93V3.65"/>
<path d="M110.8,3.65h1.98V30.2h-1.98V3.65z"/>
<path d="M127.9,14.47c1.08,0,2.09,0.21,3.03,0.63c0.94,0.42,1.77,0.99,2.49,1.71c0.72,0.72,1.28,1.56,1.68,2.52
	c0.4,0.96,0.61,1.98,0.61,3.06s-0.2,2.09-0.61,3.03c-0.4,0.94-0.97,1.77-1.68,2.47c-0.72,0.7-1.55,1.27-2.49,1.68
	c-0.94,0.42-1.95,0.63-3.03,0.63c-1.2,0-2.3-0.24-3.3-0.72c-1-0.48-1.88-1.12-2.63-1.93v10.43h-1.93v-23.5h1.93v2.74
	c0.75-0.84,1.62-1.51,2.63-2C125.6,14.72,126.71,14.47,127.9,14.47z M127.9,28.22c0.78,0,1.52-0.15,2.22-0.45
	c0.7-0.3,1.32-0.72,1.84-1.26c0.52-0.54,0.94-1.16,1.24-1.86c0.3-0.7,0.45-1.46,0.45-2.27c0-0.81-0.15-1.57-0.45-2.29
	c-0.3-0.72-0.71-1.35-1.24-1.89c-0.52-0.54-1.14-0.96-1.84-1.26c-0.7-0.3-1.45-0.45-2.22-0.45c-0.84,0-1.62,0.15-2.34,0.45
	c-0.72,0.3-1.35,0.72-1.89,1.26c-0.54,0.54-0.96,1.17-1.26,1.89c-0.3,0.72-0.45,1.48-0.45,2.29c0,0.81,0.15,1.57,0.45,2.27
	c0.3,0.7,0.72,1.33,1.26,1.86c0.54,0.54,1.17,0.96,1.89,1.26C126.29,28.07,127.07,28.22,127.9,28.22z"/>
<polygon points="15.12,35.86 17.18,35.86 17.18,37.97 13.13,37.97 13.13,3.65 98.22,3.65 98.22,5.64 15.12,5.64 "/>
<rect x="100.39" y="3.65" width="7.82" height="2"/>
<rect x="60.23" y="35.97" width="57.2" height="2"/>
<rect x="24.31" y="35.97" width="28.79" height="2"/>
<polygon points="142.31,5.65 142.31,3.65 140.31,3.65 120.04,3.65 120.04,5.65 140.31,5.65 140.32,35.97 124.68,35.97 124.68,37.97 
	140.32,37.97 142.31,37.97 142.31,35.97 "/>
<g>
	<polygon points="117.44,12.17 117.44,30.2 115.42,30.2 115.42,14.36 	"/>
	<polygon points="115.42,11.38 115.42,3.65 117.44,3.65 117.44,9.18 	"/>
</g>
</svg>
