<?xml version="1.0" encoding="utf-8"?>
<!-- Generator: Adobe Illustrator 23.0.3, SVG Export Plug-In . SVG Version: 6.00 Build 0)  -->
<svg version="1.1" id="Layer_1" xmlns="http://www.w3.org/2000/svg" xmlns:xlink="http://www.w3.org/1999/xlink" x="0px" y="0px"
	 height="80" width="260" viewBox="0 0 213.46 61.35" style="enable-background:new 0 0 213.46 61.35;" xml:space="preserve">
<g>
	<path d="M26.47,20.64c1.73,0,3.35,0.34,4.86,1.01c1.51,0.67,2.84,1.58,4,2.74s2.05,2.5,2.7,4.03c0.65,1.54,0.97,3.17,0.97,4.9
		c0,1.73-0.32,3.35-0.97,4.86c-0.65,1.51-1.55,2.83-2.7,3.96c-1.15,1.13-2.48,2.03-4,2.7c-1.51,0.67-3.13,1.01-4.86,1.01
		c-1.92,0-3.68-0.38-5.29-1.15c-1.61-0.77-3.01-1.8-4.21-3.1v16.71h-3.1V20.64h3.1v4.39c1.2-1.34,2.6-2.41,4.21-3.2
		C22.78,21.04,24.55,20.64,26.47,20.64z M26.47,42.68c1.25,0,2.44-0.24,3.56-0.72c1.13-0.48,2.11-1.15,2.95-2.02
		c0.84-0.86,1.5-1.86,1.98-2.99c0.48-1.13,0.72-2.34,0.72-3.64c0-1.3-0.24-2.52-0.72-3.67c-0.48-1.15-1.14-2.16-1.98-3.02
		c-0.84-0.86-1.83-1.54-2.95-2.02c-1.13-0.48-2.32-0.72-3.56-0.72c-1.34,0-2.59,0.24-3.74,0.72c-1.15,0.48-2.16,1.15-3.02,2.02
		c-0.86,0.86-1.54,1.87-2.02,3.02c-0.48,1.15-0.72,2.38-0.72,3.67c0,1.3,0.24,2.51,0.72,3.64c0.48,1.13,1.15,2.12,2.02,2.99
		c0.86,0.86,1.87,1.54,3.02,2.02C23.88,42.44,25.12,42.68,26.47,42.68z"/>
	<path d="M64.03,20.57h3.24v25.27h-3.24v-4.18c-1.15,1.3-2.54,2.32-4.18,3.06c-1.63,0.75-3.38,1.12-5.26,1.12
		c-1.73,0-3.36-0.32-4.9-0.97c-1.54-0.65-2.88-1.55-4.03-2.7c-1.15-1.15-2.05-2.5-2.7-4.03c-0.65-1.54-0.97-3.17-0.97-4.9
		c0-1.73,0.32-3.36,0.97-4.9c0.65-1.54,1.55-2.88,2.7-4.03c1.15-1.15,2.5-2.06,4.03-2.74c1.54-0.67,3.17-1.01,4.9-1.01
		c1.87,0,3.62,0.4,5.26,1.19c1.63,0.79,3.02,1.84,4.18,3.13V20.57z M54.59,42.75c1.3,0,2.52-0.25,3.67-0.76
		c1.15-0.5,2.16-1.19,3.02-2.05c0.86-0.86,1.54-1.87,2.02-3.02c0.48-1.15,0.72-2.38,0.72-3.67c0-1.3-0.24-2.52-0.72-3.67
		c-0.48-1.15-1.15-2.16-2.02-3.02c-0.86-0.86-1.87-1.54-3.02-2.02c-1.15-0.48-2.38-0.72-3.67-0.72s-2.52,0.24-3.67,0.72
		c-1.15,0.48-2.16,1.15-3.02,2.02c-0.86,0.86-1.55,1.87-2.05,3.02c-0.5,1.15-0.76,2.38-0.76,3.67c0,1.3,0.25,2.52,0.76,3.67
		c0.5,1.15,1.19,2.16,2.05,3.02c0.86,0.86,1.87,1.55,3.02,2.05S53.3,42.75,54.59,42.75z"/>
	<path d="M95.59,28.42c-0.65-1.54-1.55-2.88-2.7-4.03s-2.48-2.06-4-2.74c-1.51-0.67-3.13-1.01-4.86-1.01c-1.92,0-3.68,0.4-5.29,1.19
		c-1.61,0.79-3.01,1.86-4.21,3.2v-4.46l-0.03-0.01h-2.84l-0.23,0.01v37.78h3.1V41.6c1.2,1.3,2.6,2.33,4.21,3.1
		c1.61,0.77,3.37,1.15,5.29,1.15c1.73,0,3.35-0.34,4.86-1.01c1.51-0.67,2.84-1.57,4-2.7c1.15-1.13,2.05-2.45,2.7-3.96
		c0.65-1.51,0.97-3.13,0.97-4.86C96.56,31.59,96.24,29.96,95.59,28.42z M92.53,36.95c-0.48,1.13-1.14,2.12-1.98,2.99
		c-0.84,0.86-1.83,1.54-2.95,2.02c-1.13,0.48-2.32,0.72-3.56,0.72c-1.34,0-2.59-0.24-3.74-0.72c-1.15-0.48-2.16-1.15-3.02-2.02
		c-0.86-0.86-1.54-1.86-2.02-2.99c-0.48-1.13-0.72-2.34-0.72-3.64c0-1.3,0.24-2.52,0.72-3.67c0.48-1.15,1.15-2.16,2.02-3.02
		c0.86-0.86,1.87-1.54,3.02-2.02c1.15-0.48,2.4-0.72,3.74-0.72c1.25,0,2.44,0.24,3.56,0.72c1.13,0.48,2.11,1.15,2.95,2.02
		c0.84,0.86,1.5,1.87,1.98,3.02c0.48,1.15,0.72,2.38,0.72,3.67C93.25,34.61,93.01,35.82,92.53,36.95z"/>
	<path d="M117.56,40.95c0.86-0.67,1.63-1.44,2.3-2.3l2.23,2.3c-0.19,0.24-0.37,0.44-0.54,0.61c-0.17,0.17-0.32,0.37-0.47,0.61
		c-0.24,0.14-0.44,0.3-0.61,0.47c-0.17,0.17-0.37,0.35-0.61,0.54c-1.1,0.82-2.3,1.46-3.6,1.94c-1.3,0.48-2.66,0.72-4.1,0.72
		c-1.49,0-2.88-0.24-4.18-0.72c-1.3-0.48-2.5-1.13-3.6-1.94c-0.24-0.19-0.44-0.37-0.61-0.54c-0.17-0.17-0.37-0.32-0.61-0.47
		c-0.14-0.24-0.3-0.44-0.47-0.61c-0.17-0.17-0.35-0.37-0.54-0.61c-0.67-0.91-1.22-1.88-1.66-2.92c-0.43-1.03-0.7-2.12-0.79-3.28
		c-0.1-0.24-0.14-0.49-0.14-0.76c0-0.26,0-0.52,0-0.76c0-0.29,0-0.56,0-0.83c0-0.26,0.05-0.52,0.14-0.76
		c0.1-1.15,0.36-2.24,0.79-3.28c0.43-1.03,0.98-2,1.66-2.92c0.19-0.24,0.37-0.44,0.54-0.61c0.17-0.17,0.32-0.37,0.47-0.61
		c0.24-0.14,0.44-0.31,0.61-0.5c0.17-0.19,0.37-0.36,0.61-0.5c2.26-1.73,4.85-2.59,7.78-2.59c2.88,0,5.45,0.86,7.7,2.59
		c0.24,0.14,0.44,0.31,0.61,0.5c0.17,0.19,0.37,0.36,0.61,0.5c0.14,0.24,0.3,0.44,0.47,0.61c0.17,0.17,0.35,0.37,0.54,0.61
		l-2.23,2.3l-3.96,3.89l-1.51,1.58l-1.58,1.51l-0.65,0.72l-5.47,5.47c0.77,0.53,1.61,0.95,2.52,1.26c0.91,0.31,1.9,0.47,2.95,0.47
		c1.01,0,1.97-0.16,2.88-0.47C115.95,41.9,116.79,41.48,117.56,40.95z M102.8,34.76c0.29,1.58,0.84,2.88,1.66,3.89l3.89-3.89
		l1.51-1.51l1.58-1.58l0.72-0.72l5.4-5.4c-1.58-1.2-3.38-1.8-5.4-1.8c-2.06,0-3.89,0.6-5.47,1.8c-0.86,0.62-1.61,1.37-2.23,2.23
		c-0.82,1.01-1.37,2.3-1.66,3.89c0,0.24-0.02,0.49-0.07,0.76c-0.05,0.26-0.07,0.54-0.07,0.83c0,0.24,0.02,0.49,0.07,0.76
		C102.78,34.26,102.8,34.52,102.8,34.76z"/>
	<path d="M133.57,21.83c1.66-0.79,3.42-1.19,5.29-1.19v3.24c-1.3,0-2.52,0.24-3.67,0.72c-1.15,0.48-2.15,1.15-2.99,2.02
		c-0.84,0.86-1.51,1.87-2.02,3.02c-0.5,1.15-0.76,2.38-0.76,3.67v8.28v4.25h-3.17V33.32V20.64h3.17v4.39
		C130.54,23.69,131.92,22.62,133.57,21.83z"/>
	<path d="M146.13,3.31V21.4v-0.82h7.5v3.24h-7.5v22.03h-3.1V3.31"/>
	<path d="M159.73,3.3h3.17v42.54h-3.17V3.3z"/>
	<path d="M187.14,20.64c1.73,0,3.35,0.34,4.86,1.01c1.51,0.67,2.84,1.58,4,2.74s2.05,2.5,2.7,4.03c0.65,1.54,0.97,3.17,0.97,4.9
		c0,1.73-0.32,3.35-0.97,4.86c-0.65,1.51-1.55,2.83-2.7,3.96c-1.15,1.13-2.48,2.03-4,2.7c-1.51,0.67-3.13,1.01-4.86,1.01
		c-1.92,0-3.68-0.38-5.29-1.15c-1.61-0.77-3.01-1.8-4.21-3.1v16.71h-3.1V20.64h3.1v4.39c1.2-1.34,2.6-2.41,4.21-3.2
		C183.46,21.04,185.22,20.64,187.14,20.64z M187.14,42.68c1.25,0,2.44-0.24,3.56-0.72c1.13-0.48,2.11-1.15,2.95-2.02
		c0.84-0.86,1.5-1.86,1.98-2.99c0.48-1.13,0.72-2.34,0.72-3.64c0-1.3-0.24-2.52-0.72-3.67c-0.48-1.15-1.14-2.16-1.98-3.02
		c-0.84-0.86-1.83-1.54-2.95-2.02c-1.13-0.48-2.32-0.72-3.56-0.72c-1.34,0-2.59,0.24-3.74,0.72c-1.15,0.48-2.16,1.15-3.02,2.02
		c-0.86,0.86-1.54,1.87-2.02,3.02c-0.48,1.15-0.72,2.38-0.72,3.67c0,1.3,0.24,2.51,0.72,3.64c0.48,1.13,1.15,2.12,2.02,2.99
		c0.86,0.86,1.87,1.54,3.02,2.02C184.55,42.44,185.8,42.68,187.14,42.68z"/>
	<polygon points="6.4,54.92 9.7,54.92 9.7,58.31 3.2,58.31 3.2,3.3 139.57,3.3 139.57,6.5 6.4,6.5 	"/>
	<rect x="143.05" y="3.31" width="12.53" height="3.2"/>
	<rect x="78.7" y="55.1" width="91.66" height="3.2"/>
	<rect x="21.13" y="55.1" width="46.14" height="3.2"/>
	<polygon points="210.22,6.51 210.22,3.31 207.02,3.31 174.54,3.31 174.54,6.51 207.02,6.51 207.04,55.1 181.98,55.1 181.98,58.3 
		207.04,58.3 210.24,58.3 210.24,55.1 	"/>
	<g>
		<polygon points="170.38,16.95 170.38,45.84 167.14,45.84 167.14,20.47 		"/>
		<polygon points="167.14,15.68 167.14,3.31 170.38,3.31 170.38,12.16 		"/>
	</g>
</g>
</svg>
