<?xml version="1.0" encoding="utf-8"?>
<!-- Generator: Adobe Illustrator 23.0.3, SVG Export Plug-In . SVG Version: 6.00 Build 0)  -->
<svg version="1.1" id="Capa_1" xmlns="http://www.w3.org/2000/svg" xmlns:xlink="http://www.w3.org/1999/xlink" x="0px" y="0px"
	 width="28" height="28" viewBox="0 0 36 36" style="enable-background:new 0 0 36 36;" xml:space="preserve">
<style type="text/css">
	.st0{fill:#FFFFFF;}
</style>
<g>
	<g>
		<path class="st0" d="M18.4,3.3c-8,0-12.3,5.2-12.3,10.8c0,2.6,1.5,5.9,3.8,6.9c0.4,0.2,0.5,0.1,0.6-0.2c0.1-0.2,0.4-1.5,0.5-2
			c0-0.2,0-0.3-0.1-0.5c-0.8-0.9-1.4-2.5-1.4-4.1c0-3.9,3.1-7.7,8.4-7.7c4.6,0,7.8,3,7.8,7.2c0,4.8-2.5,8.2-5.9,8.2
			c-1.8,0-3.2-1.4-2.8-3.2c0.5-2.1,1.5-4.4,1.5-5.9c0-1.4-0.8-2.5-2.4-2.5c-1.9,0-3.4,1.8-3.4,4.3c0,1.6,0.6,2.6,0.6,2.6
			s-1.8,7.5-2.2,8.9c-0.6,2.4,0.1,6.2,0.1,6.5c0,0.2,0.2,0.2,0.4,0.1c0.2-0.2,2.4-3.4,3-5.7C15,26,16,22.6,16,22.6
			c0.6,1.1,2.4,2,4.3,2c5.6,0,9.7-4.9,9.7-11.1C29.9,7.7,24.9,3.3,18.4,3.3z"/>
	</g>
</g>
</svg>
