<?xml version="1.0" encoding="utf-8"?>
<!-- Generator: Adobe Illustrator 23.0.3, SVG Export Plug-In . SVG Version: 6.00 Build 0)  -->
<svg version="1.1" id="Layer_1" xmlns="http://www.w3.org/2000/svg" xmlns:xlink="http://www.w3.org/1999/xlink" x="0px" y="0px"
	 viewBox="0 0 256 256" style="enable-background:new 0 0 256 256;" xml:space="preserve">
<style type="text/css">
	.st0{fill:#FFFFFF;}
</style>
<g>
	<path class="st0" d="M69.37,51.29c7.1,0,13.76,1.38,19.97,4.14c6.21,2.76,11.69,6.51,16.42,11.24c4.73,4.73,8.43,10.26,11.09,16.57
		c2.66,6.31,3.99,13.02,3.99,20.12s-1.33,13.75-3.99,19.97c-2.66,6.21-6.36,11.64-11.09,16.27c-4.73,4.64-10.21,8.33-16.42,11.09
		c-6.21,2.76-12.87,4.14-19.97,4.14c-7.89,0-15.14-1.58-21.74-4.73c-6.61-3.15-12.38-7.4-17.31-12.72v68.56H17.6V51.29h12.72v18.05
		c4.93-5.52,10.7-9.91,17.31-13.16C54.24,52.92,61.48,51.29,69.37,51.29z M69.37,141.82c5.13,0,10.01-0.99,14.64-2.96
		c4.63-1.97,8.68-4.73,12.13-8.28c3.45-3.55,6.16-7.64,8.14-12.28c1.97-4.63,2.96-9.61,2.96-14.94c0-5.33-0.99-10.35-2.96-15.09
		c-1.97-4.73-4.69-8.87-8.14-12.42c-3.45-3.55-7.5-6.31-12.13-8.28c-4.64-1.97-9.52-2.96-14.64-2.96c-5.52,0-10.65,0.99-15.38,2.96
		c-4.73,1.97-8.88,4.73-12.42,8.28c-3.55,3.55-6.31,7.69-8.28,12.42c-1.97,4.73-2.96,9.76-2.96,15.09c0,5.32,0.98,10.31,2.96,14.94
		c1.97,4.64,4.73,8.73,8.28,12.28c3.55,3.55,7.69,6.31,12.42,8.28C58.72,140.83,63.85,141.82,69.37,141.82z"/>
	<path class="st0" d="M223.7,50.99h13.31v103.84H223.7v-17.16c-4.73,5.32-10.46,9.52-17.16,12.57c-6.71,3.06-13.91,4.59-21.6,4.59
		c-7.1,0-13.81-1.33-20.12-3.99c-6.31-2.66-11.83-6.36-16.57-11.09c-4.73-4.73-8.43-10.25-11.09-16.57
		c-2.66-6.31-3.99-13.02-3.99-20.12c0-7.1,1.33-13.8,3.99-20.12c2.66-6.31,6.36-11.83,11.09-16.57c4.73-4.73,10.25-8.48,16.57-11.24
		c6.31-2.76,13.02-4.14,20.12-4.14c7.69,0,14.89,1.63,21.6,4.88c6.7,3.25,12.42,7.54,17.16,12.87V50.99z M184.94,142.11
		c5.32,0,10.35-1.04,15.09-3.11c4.73-2.07,8.88-4.88,12.43-8.43c3.55-3.55,6.31-7.69,8.28-12.43c1.97-4.73,2.96-9.76,2.96-15.09
		c0-5.32-0.99-10.35-2.96-15.09c-1.97-4.73-4.73-8.88-8.28-12.42c-3.55-3.55-7.69-6.31-12.43-8.28c-4.73-1.97-9.76-2.96-15.09-2.96
		c-5.32,0-10.35,0.99-15.09,2.96c-4.73,1.97-8.88,4.73-12.42,8.28c-3.55,3.55-6.36,7.69-8.43,12.42c-2.07,4.73-3.11,9.76-3.11,15.09
		c0,5.32,1.04,10.35,3.11,15.09c2.07,4.73,4.88,8.88,8.43,12.43c3.55,3.55,7.69,6.36,12.42,8.43
		C174.59,141.08,179.62,142.11,184.94,142.11z"/>
	<rect x="47.45" y="192.85" class="st0" width="189.56" height="13.15"/>
</g>
</svg>
