<?xml version="1.0" encoding="utf-8"?>
<!-- Generator: Adobe Illustrator 23.0.3, SVG Export Plug-In . SVG Version: 6.00 Build 0)  -->
<svg version="1.1" id="Layer_1" xmlns="http://www.w3.org/2000/svg" xmlns:xlink="http://www.w3.org/1999/xlink" x="0px" y="0px"
	 viewBox="0 0 752 512" style="enable-background:new 0 0 752 512;" xml:space="preserve">
<style type="text/css">
	.st0{fill:#E1E1E1;}
	.st1{fill:#FFFFFF;}
	.st2{fill:#1A2E35;}
	.st3{fill:#FF4F5B;}
	.st4{fill:#E7E7E7;}
	.st5{opacity:0.2;}
	.st6{opacity:0.1;}
	.st7{fill:#375A64;}
	.st8{fill:#F4BBAC;}
	.st9{fill:#EF8876;}
	.st10{fill:none;stroke:#1A2E35;stroke-width:2.000000e-02;stroke-miterlimit:10;}
	.st11{fill:none;stroke:#1A2E35;stroke-width:2.000000e-02;stroke-miterlimit:10;stroke-dasharray:1;}
</style>
<g>
	<g>
		<polygon class="st0" points="192.3,45 184.7,31.8 177.1,18.6 169.4,31.8 161.8,44.9 172.3,45 172.2,95.9 181.6,95.9 181.7,45 		
			"/>
	</g>
	<g>
		<polygon class="st0" points="162.2,78.5 157.6,70.5 153,62.5 148.4,70.5 143.8,78.5 150.2,78.5 150.1,109.3 155.8,109.3 
			155.9,78.5 		"/>
	</g>
	<g>
		<g>
			<rect x="212.3" y="63.9" class="st1" width="387" height="301.1"/>
			<g>
				<g>
					<path class="st2" d="M599.3,365.1c0-2.3-0.1-119.4-0.3-301.1l0.3,0.3c-110.1,0-243.4,0-386.9,0.1h0l0.3-0.3
						c0,108.5,0,211.2,0,301.1l-0.3-0.3C442,364.9,596.7,365.1,599.3,365.1c-2.6,0-157.3,0.1-387,0.3H212v-0.3
						c0-89.9,0-192.6,0-301.1v-0.3h0.3h0c143.5,0,276.8,0,386.9,0.1h0.3v0.3C599.4,245.7,599.3,362.8,599.3,365.1z"/>
				</g>
			</g>
		</g>
		<g>
			<g>
				<g>
					<path class="st2" d="M318.7,339.8c-0.2,0-0.3-32.7-0.3-73.1c0-40.4,0.1-73.1,0.3-73.1c0.2,0,0.3,32.7,0.3,73.1
						C319.1,307,318.9,339.8,318.7,339.8z"/>
				</g>
			</g>
			<g>
				<g>
					<path class="st2" d="M486.7,339.8c-0.2,0-0.3-32.7-0.3-73.1c0-40.4,0.1-73.1,0.3-73.1s0.3,32.7,0.3,73.1
						C487,307,486.9,339.8,486.7,339.8z"/>
				</g>
			</g>
			<g>
				<g>
					<path class="st2" d="M376.1,339.8c-0.2,0-0.3-41.8-0.3-93.5c0-51.6,0.1-93.5,0.3-93.5c0.2,0,0.3,41.8,0.3,93.5
						C376.4,297.9,376.3,339.8,376.1,339.8z"/>
				</g>
			</g>
			<g>
				<g>
					<path class="st2" d="M259.9,339.8c-0.2,0-0.3-41.8-0.3-93.5c0-51.6,0.1-93.5,0.3-93.5c0.2,0,0.3,41.8,0.3,93.5
						C260.2,297.9,260,339.8,259.9,339.8z"/>
				</g>
			</g>
			<g>
				<g>
					<path class="st2" d="M552.6,339.8c-0.2,0-0.3-41.8-0.3-93.5c0-51.6,0.1-93.5,0.3-93.5s0.3,41.8,0.3,93.5
						C552.9,297.9,552.8,339.8,552.6,339.8z"/>
				</g>
			</g>
			<g>
				<g>
					<path class="st2" d="M426.4,339.8c-0.2,0-0.3-48.3-0.3-107.9c0-59.6,0.1-107.9,0.3-107.9c0.2,0,0.3,48.3,0.3,107.9
						C426.7,291.5,426.5,339.8,426.4,339.8z"/>
				</g>
			</g>
			<g>
				<path class="st2" d="M320.1,193.6c0,0.8-0.6,1.4-1.4,1.4s-1.4-0.6-1.4-1.4c0-0.8,0.6-1.4,1.4-1.4
					C319.5,192.2,320.1,192.8,320.1,193.6z"/>
			</g>
			<g>
				<circle class="st2" cx="376.1" cy="152.9" r="1.4"/>
			</g>
			<g>
				<path class="st2" d="M376.1,157.7c-2.7,0-4.8-2.2-4.8-4.8c0-2.7,2.2-4.8,4.8-4.8c2.7,0,4.8,2.2,4.8,4.8
					C380.9,155.5,378.7,157.7,376.1,157.7z M376.1,148.4c-2.5,0-4.5,2-4.5,4.5s2,4.5,4.5,4.5c2.5,0,4.5-2,4.5-4.5
					S378.5,148.4,376.1,148.4z"/>
			</g>
			<g>
				<circle class="st2" cx="426.4" cy="124" r="1.4"/>
			</g>
			<g>
				<circle class="st2" cx="486.7" cy="194.9" r="1.4"/>
			</g>
			<g>
				<circle class="st2" cx="552.6" cy="152.9" r="1.4"/>
			</g>
			<g>
				<path class="st2" d="M261.2,154.2c0,0.8-0.6,1.4-1.4,1.4s-1.4-0.6-1.4-1.4c0-0.8,0.6-1.4,1.4-1.4S261.2,153.5,261.2,154.2z"/>
			</g>
			<g>
				<g>
					<path class="st3" d="M565.6,219c0,0-0.4,0.2-1.1,0.3c-0.7,0.2-1.8,0.5-3.1,1.1c-2.7,1.1-6.3,3.5-10,7.6c-3.7,4-7.5,9.7-12.2,16
						c-2.4,3.1-5,6.5-8.3,9.6c-1.6,1.6-3.4,3-5.4,4.5c-2,1.3-4.1,2.6-6.5,3.5c-4.7,1.9-10,2.9-15.5,2.6c-2.7-0.1-5.5-0.3-8.3-1
						c-2.8-0.6-5.6-1.8-8.1-3.6c-2.5-1.8-4.6-4.1-6.3-6.6c-1.7-2.5-3.3-5.2-4.8-7.9c-3-5.5-6.1-10.9-9.7-16.4
						c-3.5-5.6-6.7-11.5-10.4-17.3c-3.6-5.8-7.6-11.5-12.7-16.3c-2.5-2.4-5.4-4.5-8.5-6.1c-3.1-1.6-6.6-2.6-10.1-3
						c-3.5-0.3-7.2-0.1-10.8,0.6c-3.5,0.8-7,2.1-10.2,3.9c-6.4,3.7-11.6,9.1-16,14.9c-4.4,5.8-7.9,12.1-11.4,18.3
						c-3.4,6.3-7.1,12.3-11.1,17.9c-4,5.6-8.4,10.9-13.4,15.3c-1.3,1.1-2.5,2.2-3.9,3.1c-1.3,1-2.7,1.8-4.1,2.7
						c-2.9,1.6-5.8,2.9-8.9,3.7c-1.5,0.5-3.1,0.6-4.7,0.9c-0.8,0.2-1.6,0.1-2.3,0.1c-0.8,0-1.6,0.1-2.3,0c-3.1-0.1-6.1-0.8-8.9-1.7
						c-5.7-1.8-10.6-4.8-15.1-7.9c-4.5-3.1-8.6-6.3-12.6-9.2c-4-2.9-7.9-5.5-12-7.2c-4-1.8-8.1-3-11.9-3.4
						c-3.8-0.4-7.5-0.2-10.7,0.7c-0.8,0.1-1.6,0.5-2.3,0.7c-0.7,0.3-1.5,0.5-2.2,0.9c-1.3,0.7-2.7,1.3-3.8,2.1
						c-2.3,1.4-4.1,3.1-5.7,4.6c-0.7,0.8-1.4,1.5-2,2.2c-0.6,0.7-1.2,1.2-1.6,1.8c-0.9,1.1-1.5,2-2,2.6c-0.5,0.6-0.7,0.9-0.7,0.9
						c0,0,0.2-0.3,0.6-1c0.4-0.6,1-1.6,1.9-2.8c0.4-0.6,0.9-1.2,1.5-1.9c0.6-0.7,1.2-1.4,1.9-2.3c1.6-1.5,3.3-3.2,5.7-4.8
						c1.1-0.9,2.5-1.5,3.8-2.2c0.7-0.4,1.5-0.6,2.2-0.9c0.8-0.3,1.5-0.7,2.4-0.8c3.3-1,7.1-1.2,11.1-0.9c4,0.4,8.2,1.5,12.3,3.3
						c4.2,1.8,8.2,4.4,12.3,7.3c4.1,2.9,8.2,6,12.6,9c4.5,3,9.3,5.8,14.7,7.6c2.7,0.8,5.6,1.4,8.5,1.5c0.7,0,1.5,0,2.2,0
						c0.7,0,1.5,0,2.2-0.1c1.5-0.2,3-0.4,4.4-0.8c5.9-1.5,11.3-4.9,16.2-9.1c4.8-4.3,9.1-9.4,13-15c3.9-5.6,7.5-11.5,10.9-17.8
						c3.5-6.2,7.1-12.6,11.5-18.6c4.4-6,9.8-11.6,16.6-15.4c3.4-1.9,7-3.3,10.8-4.1c3.8-0.8,7.6-1,11.4-0.6
						c3.8,0.4,7.5,1.5,10.8,3.2c3.3,1.7,6.3,3.9,9,6.4c5.3,5,9.3,10.9,12.9,16.8c3.6,5.9,6.9,11.8,10.3,17.3
						c3.5,5.5,6.7,11.1,9.7,16.6c3,5.4,6,10.7,10.6,14c2.3,1.6,4.8,2.8,7.5,3.3c2.6,0.7,5.4,0.9,8,1.1c5.3,0.3,10.4-0.6,14.9-2.4
						c2.3-0.9,4.3-2.1,6.3-3.3c1.9-1.3,3.7-2.7,5.3-4.3c3.2-3,5.9-6.3,8.3-9.4c4.8-6.2,8.6-11.9,12.5-15.9c3.8-4.1,7.6-6.4,10.4-7.4
						c1.4-0.5,2.5-0.8,3.2-0.9C565.2,219,565.6,219,565.6,219z"/>
				</g>
			</g>
			<g>
				<rect x="258.5" y="97.7" class="st2" width="67.5" height="3.8"/>
			</g>
			<g>
				<rect x="258.5" y="106.5" class="st2" width="33.3" height="3.8"/>
			</g>
			<g>
				<path class="st2" d="M595.8,39.4H215.4c-1.9,0-3.5,1.6-3.5,3.5V64h387.4V42.9C599.3,40.9,597.7,39.4,595.8,39.4z"/>
			</g>
			<g>
				<path class="st1" d="M232,52.1c0,1.5-1.2,2.6-2.6,2.6c-1.5,0-2.6-1.2-2.6-2.6c0-1.5,1.2-2.6,2.6-2.6
					C230.8,49.5,232,50.7,232,52.1z"/>
			</g>
			<g>
				<path class="st1" d="M243.5,52.1c0,1.5-1.2,2.6-2.6,2.6c-1.5,0-2.6-1.2-2.6-2.6c0-1.5,1.2-2.6,2.6-2.6
					C242.3,49.5,243.5,50.7,243.5,52.1z"/>
			</g>
			<g>
				<path class="st1" d="M255,52.1c0,1.5-1.2,2.6-2.6,2.6c-1.5,0-2.6-1.2-2.6-2.6c0-1.5,1.2-2.6,2.6-2.6
					C253.8,49.5,255,50.7,255,52.1z"/>
			</g>
		</g>
	</g>
	<g>
		<g>
			<path class="st4" d="M217.9,285.7H67.2c-2.2,0-4.1-1.8-4.1-4.1v-36.4c0-2.2,1.8-4.1,4.1-4.1h150.8c2.2,0,4.1,1.8,4.1,4.1v36.4
				C222,283.9,220.2,285.7,217.9,285.7z"/>
		</g>
		<g>
			<path class="st1" d="M96.6,270.8c-3.3,4.2-9.4,4.8-13.6,1.5c-4.2-3.3-4.8-9.4-1.5-13.6c3.3-4.2,9.4-4.8,13.6-1.5
				C99.3,260.6,99.9,266.7,96.6,270.8z"/>
		</g>
		<g>
			<g>
				<path class="st2" d="M94.5,261.5c0.1,0.1-2.2,2.6-5.2,5.6c-0.4,0.4-0.9,0.8-1.3,1.2l-0.2,0.2l-0.2-0.2c-2.4-2.4-4-4.3-3.9-4.4
					c0.1-0.1,2,1.6,4.4,3.9h-0.5c0.4-0.4,0.8-0.8,1.3-1.3C91.8,263.7,94.4,261.4,94.5,261.5z"/>
			</g>
		</g>
		<g>
			<g>
				<path class="st2" d="M206.5,260.2c0,0.2-20.2,0.3-45.1,0.3c-24.9,0-45.1-0.1-45.1-0.3s20.2-0.3,45.1-0.3
					C186.3,259.8,206.5,260,206.5,260.2z"/>
			</g>
		</g>
		<g>
			<g>
				<path class="st2" d="M169.5,269c0,0.2-11.7,0.3-26.1,0.3c-14.4,0-26.1-0.1-26.1-0.3s11.7-0.3,26.1-0.3
					C157.8,268.6,169.5,268.8,169.5,269z"/>
			</g>
		</g>
	</g>
	<g>
		<g>
			<path class="st0" d="M264.6,198.9H112c-1.1,0-2-0.9-2-2v-61c0-1.1,0.9-2,2-2h152.6c1.1,0,2,0.9,2,2v61
				C266.7,197.9,265.8,198.9,264.6,198.9z"/>
		</g>
		<g>
			<g>
				<path class="st3" d="M142.5,154.4c0,4-3.3,7.3-7.3,7.3c-4,0-7.3-3.3-7.3-7.3s3.3-7.3,7.3-7.3
					C139.3,147.1,142.5,150.3,142.5,154.4z"/>
			</g>
			<g>
				<rect x="149.9" y="149.3" class="st3" width="50.9" height="2.8"/>
			</g>
			<g>
				<rect x="149.9" y="155.7" class="st1" width="99" height="2.8"/>
			</g>
		</g>
		<g>
			<g>
				<path class="st3" d="M142.5,176.8c0,4-3.3,7.3-7.3,7.3c-4,0-7.3-3.3-7.3-7.3s3.3-7.3,7.3-7.3
					C139.3,169.5,142.5,172.8,142.5,176.8z"/>
			</g>
			<g>
				<rect x="149.9" y="171.8" class="st3" width="26" height="2.8"/>
			</g>
			<g>
				<rect x="149.9" y="178.2" class="st1" width="99" height="2.8"/>
			</g>
		</g>
	</g>
	<g>
		<g>
			<path class="st0" d="M334.7,390.8H142.6c-2.7,0-5-2.2-5-5v-75.9c0-2.7,2.2-5,5-5h192.2c2.7,0,5,2.2,5,5v75.9
				C339.7,388.6,337.5,390.8,334.7,390.8z"/>
		</g>
		<g>
			<g>
				<g>
					<path class="st3" d="M174.6,346.4l-0.1-17.4c-5.1,0-10.4,2.1-14.4,5.6c-4.7,4.2-7.8,10.5-6.9,18c0.1,0.8,0.2,1.7,0.4,2.5
						c0,0,0,0,0,0.1l0,0l21-4.7L174.6,346.4L174.6,346.4z"/>
				</g>
				<g>
					<g>
						<path class="st3" d="M196.2,341c-2.9-6.1-8.7-11-16.9-11.9c-0.2,0-0.4,0-0.7-0.1c-0.1,0-0.3,0-0.4,0c-0.4,0-0.8,0-1.3,0
							c0,0,0,0-0.1,0l0,0c0,0,0,0-0.1,0l0,0l0,0l0.1,17.4l0,4.1l21,4.6l0,0l0,0c0.3-1.5,0.5-3,0.5-4.5
							C198.4,347.4,197.7,344.1,196.2,341z"/>
					</g>
					<g class="st5">
						<path d="M196.2,341c-2.9-6.1-8.7-11-16.9-11.9c-0.2,0-0.4,0-0.7-0.1c-0.1,0-0.3,0-0.4,0c-0.4,0-0.8,0-1.3,0c0,0,0,0-0.1,0l0,0
							c0,0,0,0-0.1,0l0,0l0,0l0.1,17.4l0,4.1l21,4.6l0,0l0,0c0.3-1.5,0.5-3,0.5-4.5C198.4,347.4,197.7,344.1,196.2,341z"/>
					</g>
				</g>
			</g>
			<g>
				<g>
					<path class="st3" d="M175.7,352.7l-21,4.7c2.2,9.6,10.7,16.8,21,16.8c10.3,0,18.9-7.3,21-16.9L175.7,352.7"/>
				</g>
				<g class="st6">
					<path d="M175.7,352.7l-21,4.7c2.2,9.6,10.7,16.8,21,16.8c10.3,0,18.9-7.3,21-16.9L175.7,352.7"/>
				</g>
			</g>
		</g>
		<g>
			<rect x="212.5" y="334.2" class="st1" width="106.7" height="4.8"/>
		</g>
		<g>
			<rect x="212.5" y="346.9" class="st1" width="106.7" height="4.8"/>
		</g>
		<g>
			<rect x="212.5" y="361" class="st1" width="57.7" height="4.8"/>
		</g>
	</g>
	<g>
		<g>
			<path class="st4" d="M577.4,446.9H379.7c-3.6,0-6.5-2.9-6.5-6.5V250.5c0-3.6,2.9-6.5,6.5-6.5h197.7c3.6,0,6.5,2.9,6.5,6.5v189.8
				C584,444,581,446.9,577.4,446.9z"/>
		</g>
		<g>
			<g>
				<g>
					<rect x="387.9" y="383" class="st2" width="6.9" height="2"/>
				</g>
				<g>
					<rect x="403.6" y="393.6" class="st2" width="8.8" height="2"/>
				</g>
				<g>
					<rect x="434.4" y="393.6" class="st2" width="8.8" height="2"/>
				</g>
				<g>
					<rect x="465.2" y="393.6" class="st2" width="8.8" height="2"/>
				</g>
				<g>
					<rect x="496" y="393.6" class="st2" width="8.8" height="2"/>
				</g>
				<g>
					<rect x="526.8" y="393.6" class="st2" width="8.8" height="2"/>
				</g>
				<g>
					<rect x="557.6" y="393.6" class="st2" width="8.8" height="2"/>
				</g>
				<g>
					<rect x="387.9" y="356.4" class="st2" width="6.9" height="2"/>
				</g>
				<g>
					<rect x="387.9" y="306.3" class="st2" width="6.9" height="2"/>
				</g>
				<g>
					<rect x="387.9" y="281.1" class="st2" width="6.9" height="2"/>
				</g>
				<g>
					<rect x="388.3" y="331.3" class="st2" width="6.9" height="2"/>
				</g>
				<g>
					<g>
						<path class="st2" d="M566.2,385c0,0-0.2,0-0.7,0c-0.5,0-1.2,0-2.2,0c-1.9,0-4.8,0-8.4,0.1c-7.3,0-17.8,0.1-30.8,0.1
							c-26,0-61.9,0.1-101.6,0.1c-8.2,0-16.3,0-24.1,0h-0.3v-0.3c0-34,0.1-63.8,0.1-85.3c0-10.7,0.1-19.3,0.1-25.2
							c0-2.9,0-5.2,0.1-6.8c0-0.8,0-1.3,0-1.8c0-0.4,0-0.6,0-0.6s0,0.2,0,0.6c0,0.4,0,1,0,1.8c0,1.6,0,3.8,0.1,6.8
							c0,5.9,0.1,14.5,0.1,25.2c0,21.4,0.1,51.3,0.1,85.3l-0.3-0.3c7.7,0,15.8,0,24.1,0c39.6,0,75.5,0.1,101.6,0.1
							c13,0,23.5,0.1,30.8,0.1c3.6,0,6.4,0,8.4,0.1c0.9,0,1.7,0,2.2,0C565.9,384.9,566.2,385,566.2,385z"/>
					</g>
				</g>
				<g>
					<g>
						<path class="st2" d="M568.1,332.3c0,0.2-36.5,0.3-81.5,0.3c-45,0-81.5-0.1-81.5-0.3c0-0.2,36.5-0.3,81.5-0.3
							C531.6,332,568.1,332.1,568.1,332.3z"/>
					</g>
				</g>
				<g>
					<g>
						<path class="st2" d="M568.1,307.2c0,0.2-36.5,0.3-81.5,0.3c-45,0-81.5-0.1-81.5-0.3s36.5-0.3,81.5-0.3
							C531.6,306.9,568.1,307.1,568.1,307.2z"/>
					</g>
				</g>
				<g>
					<g>
						<path class="st2" d="M568.1,282.1c0,0.2-36.5,0.3-81.5,0.3c-45,0-81.5-0.1-81.5-0.3s36.5-0.3,81.5-0.3
							C531.6,281.7,568.1,281.9,568.1,282.1z"/>
					</g>
				</g>
				<g>
					<g>
						<path class="st2" d="M568.1,357.3c0,0.2-36.5,0.3-81.5,0.3c-45,0-81.5-0.1-81.5-0.3c0-0.2,36.5-0.3,81.5-0.3
							C531.6,357,568.1,357.2,568.1,357.3z"/>
					</g>
				</g>
				<g>
					<path class="st3" d="M406.8,379.6c0-4.2,0-22.2,0-22.2l13.9-21.5l9.4,7.2l19.3-30l11.4,8l15.8-27.6l12.9,10.5l19.3-36.7
						l20.8,41l16.8-20.5l19.8-5.7v97.5L406.8,379.6L406.8,379.6z"/>
				</g>
			</g>
			<g>
				<g>
					<path class="st2" d="M568.1,274.2c0,0-0.1,0-0.3,0c-0.3,0-0.6,0-1,0c-0.9,0-2.3,0-4,0c-3.5,0-8.7,0-15.2,0.1l0.1-0.1
						c-4.4,5.8-9.9,13-16.3,21.3l-0.1,0.1h-0.1c-11.8,0-25.7,0-40.7,0.1l0.3-0.2c-5.4,8.9-11.1,18.6-17.1,28.5
						c-5.8,9.7-11.5,19.1-16.8,28l-0.2,0.4l-0.3-0.4c-8-11.1-15.5-21.3-22.1-30.4l0.4,0c-8.4,13.1-15.3,23.8-20.1,31.4
						c-2.4,3.7-4.3,6.7-5.6,8.7c-0.6,1-1.1,1.7-1.5,2.3c-0.3,0.5-0.5,0.8-0.5,0.8s0.1-0.3,0.5-0.8c0.3-0.5,0.8-1.3,1.4-2.3
						c1.3-2,3.1-5,5.5-8.8c4.8-7.6,11.6-18.4,19.9-31.5l0.2-0.3l0.2,0.3c6.6,9,14.1,19.2,22.1,30.3l-0.5,0c5.3-8.9,11-18.3,16.8-28
						c6-10,11.8-19.6,17.1-28.5l0.1-0.2h0.2c15.1,0,28.9,0,40.7,0.1l-0.2,0.1c6.4-8.2,11.9-15.4,16.4-21.2l0.1-0.1h0.1
						c6.5,0,11.6,0.1,15.2,0.1c1.7,0,3.1,0,4,0c0.4,0,0.8,0,1,0C568,274.2,568.1,274.2,568.1,274.2z"/>
				</g>
			</g>
			<g>
				<path class="st2" d="M441.1,328.7c0,0.8-0.7,1.5-1.6,1.5c-0.9,0-1.6-0.7-1.6-1.5s0.7-1.5,1.6-1.5
					C440.4,327.2,441.1,327.8,441.1,328.7z"/>
			</g>
			<g>
				<path class="st2" d="M488.1,302c0,0.8-0.7,1.5-1.6,1.5c-0.9,0-1.6-0.7-1.6-1.5s0.7-1.5,1.6-1.5
					C487.4,300.5,488.1,301.1,488.1,302z"/>
			</g>
			<g>
				<path class="st2" d="M524.6,295.4c0,0.8-0.7,1.5-1.6,1.5s-1.6-0.7-1.6-1.5s0.7-1.5,1.6-1.5S524.6,294.6,524.6,295.4z"/>
			</g>
		</g>
		<g>
			<ellipse class="st1" cx="413.7" cy="420.3" rx="10.1" ry="9.7"/>
		</g>
		<g>
			<rect x="438.8" y="413.7" class="st1" width="118.7" height="3.6"/>
		</g>
		<g>
			<rect x="438.8" y="422.8" class="st1" width="49.3" height="3.6"/>
		</g>
	</g>
	<g>
		<g>
			<path class="st4" d="M652.2,202.4H520c-2.1,0-3.8-1.7-3.8-3.8V90.2c0-2.1,1.7-3.8,3.8-3.8h132.3c2.1,0,3.8,1.7,3.8,3.8v108.4
				C656.1,200.7,654.3,202.4,652.2,202.4z"/>
		</g>
		<g>
			<g>
				<rect x="540.5" y="132.8" class="st3" width="7.5" height="56.9"/>
			</g>
			<g>
				<rect x="574.8" y="128.2" class="st3" width="7.5" height="61.6"/>
			</g>
			<g>
				<rect x="610.3" y="120.4" class="st3" width="7.5" height="69.4"/>
			</g>
			<g>
				<g>
					<rect x="593.7" y="162" class="st3" width="7.5" height="27.7"/>
				</g>
				<g class="st5">
					<rect x="593.7" y="162" width="7.5" height="27.7"/>
				</g>
			</g>
			<g>
				<g>
					<rect x="549.3" y="126.7" class="st3" width="7.5" height="63"/>
				</g>
				<g class="st6">
					<rect x="549.3" y="126.7" width="7.5" height="63"/>
				</g>
			</g>
			<g>
				<g>
					<rect x="584.2" y="113.5" class="st3" width="7.5" height="76.3"/>
				</g>
				<g class="st6">
					<rect x="584.2" y="113.5" width="7.5" height="76.3"/>
				</g>
			</g>
			<g>
				<g>
					<rect x="629.8" y="113.5" class="st3" width="7.5" height="76.3"/>
				</g>
				<g class="st5">
					<rect x="629.8" y="113.5" width="7.5" height="76.3"/>
				</g>
			</g>
			<g>
				<g>
					<rect x="619.9" y="98.5" class="st3" width="7.5" height="91.3"/>
				</g>
				<g class="st6">
					<rect x="619.9" y="98.5" width="7.5" height="91.3"/>
				</g>
			</g>
			<g>
				<g>
					<rect x="558.6" y="149.8" class="st3" width="7.5" height="40"/>
				</g>
				<g class="st5">
					<rect x="558.6" y="149.8" width="7.5" height="40"/>
				</g>
			</g>
			<g>
				<g>
					<path class="st2" d="M648.1,193.2c0,0.2-26.9,0.3-60.1,0.3c-33.2,0-60.1-0.1-60.1-0.3c0-0.2,26.9-0.3,60.1-0.3
						C621.2,192.9,648.1,193,648.1,193.2z"/>
				</g>
			</g>
			<g>
				<rect x="524.4" y="179.6" class="st2" width="4.6" height="1.5"/>
			</g>
			<g>
				<rect x="524.4" y="159.4" class="st2" width="4.6" height="1.5"/>
			</g>
			<g>
				<rect x="524.4" y="121.2" class="st2" width="4.6" height="1.5"/>
			</g>
			<g>
				<rect x="524.4" y="102.1" class="st2" width="4.6" height="1.5"/>
			</g>
			<g>
				<rect x="524.6" y="140.3" class="st2" width="4.6" height="1.5"/>
			</g>
		</g>
	</g>
	<g>
		<g>
			<path class="st3" d="M494.5,117.2H359.1c-2.2,0-4.1-1.8-4.1-4.1V81c0-2.2,1.8-4.1,4.1-4.1h135.4c2.2,0,4.1,1.8,4.1,4.1v32.1
				C498.5,115.3,496.7,117.2,494.5,117.2z"/>
		</g>
		<g>
			<path class="st1" d="M385.2,103.8c-3,3.8-8.5,4.4-12.3,1.4c-3.8-3-4.4-8.5-1.4-12.3c3-3.8,8.5-4.4,12.3-1.4
				C387.7,94.5,388.3,100,385.2,103.8z"/>
			<path class="st2" d="M378.4,107.1c-2,0-3.9-0.7-5.5-1.9c-1.8-1.5-3-3.6-3.2-5.9c-0.3-2.3,0.4-4.6,1.9-6.5s3.6-3,5.9-3.2
				c0.3,0,0.7-0.1,1-0.1c2,0,3.9,0.7,5.5,1.9c1.8,1.5,3,3.6,3.2,5.9c0.3,2.3-0.4,4.6-1.9,6.5l0,0c-1.5,1.8-3.6,3-5.9,3.2
				C379.1,107,378.7,107.1,378.4,107.1z M378.4,89.6c-0.3,0-0.6,0-1,0.1c-2.3,0.3-4.4,1.4-5.8,3.2c-1.5,1.8-2.1,4.1-1.9,6.4
				c0.3,2.3,1.4,4.4,3.2,5.8c1.8,1.5,4.1,2.1,6.4,1.9c2.3-0.3,4.4-1.4,5.8-3.2l0,0c1.5-1.8,2.1-4.1,1.9-6.4
				c-0.3-2.3-1.4-4.4-3.2-5.8C382.3,90.2,380.4,89.6,378.4,89.6z"/>
		</g>
		<g>
			<g>
				<path class="st3" d="M383.3,95.3c0.1,0.1-2,2.4-4.7,5c-0.4,0.4-0.8,0.8-1.2,1.1l-0.2,0.2l-0.2-0.2c-2.1-2.2-3.6-3.9-3.5-4
					s1.8,1.4,4,3.5H377c0.4-0.4,0.8-0.7,1.1-1.1C380.9,97.2,383.2,95.2,383.3,95.3z"/>
			</g>
		</g>
		<g>
			<g>
				<path class="st1" d="M484.5,94.1c0,0.2-18.2,0.3-40.7,0.3c-22.5,0-40.7-0.1-40.7-0.3c0-0.2,18.2-0.3,40.7-0.3
					C466.3,93.8,484.5,93.9,484.5,94.1z"/>
			</g>
		</g>
		<g>
			<g>
				<path class="st1" d="M451.1,102.1c0,0.2-10.5,0.3-23.6,0.3c-13,0-23.6-0.1-23.6-0.3c0-0.2,10.5-0.3,23.6-0.3
					C440.5,101.7,451.1,101.9,451.1,102.1z"/>
			</g>
		</g>
	</g>
	<g>
		<g>
			<g>
				<g>
					<path class="st3" d="M671.9,478.2l-8.2-8.2l15.2-15.4l12.1,11.9l-0.9,1c-4,4.5-20.5,22.5-24.2,24.4
						C661.9,494.2,671.9,478.2,671.9,478.2z"/>
				</g>
				<g>
					<path class="st2" d="M685.4,472c-1.1-1.5-1.6-3.4-1.3-5.2c0.2-1.8,1.1-3.5,2.4-4.7l4.3,4.3L685.4,472z"/>
				</g>
			</g>
			<g>
				<path class="st2" d="M667.2,486.3c0,0-3.2,5.9-1.9,6.1c1.3,0.2,18.7-17.4,25.7-25.8l-0.4-0.3l-20.1,20.7
					C670.6,486.9,668.2,485.4,667.2,486.3z"/>
			</g>
			<g>
				<g>
					<path class="st7" d="M690.9,466c0,0-0.1,0.1-0.2,0.3c-0.2,0.2-0.4,0.5-0.7,0.8c-0.7,0.8-1.6,1.8-2.6,2.9
						c-2.3,2.4-5.4,5.8-9,9.4c-3.6,3.6-6.9,6.8-9.3,9.1c-1.1,1.1-2.1,1.9-2.9,2.7c-0.3,0.3-0.6,0.5-0.8,0.7
						c-0.2,0.2-0.3,0.2-0.3,0.2c0,0,0.1-0.1,0.3-0.3c0.2-0.2,0.5-0.5,0.8-0.8c0.8-0.7,1.7-1.7,2.8-2.7c2.4-2.3,5.7-5.5,9.2-9.1
						c3.6-3.6,6.7-6.9,9-9.3c1.1-1.1,2-2.1,2.7-2.9c0.3-0.3,0.5-0.5,0.7-0.8C690.8,466.1,690.9,466,690.9,466z"/>
				</g>
			</g>
			<g>
				<g>
					<path class="st7" d="M670.8,487.1c0,0.1-0.8-0.6-1.8-0.8c-1.1-0.3-2,0-2-0.1c0-0.1,0.9-0.4,2.1-0.1
						C670.2,486.3,670.9,487.1,670.8,487.1z"/>
				</g>
			</g>
			<g>
				<g>
					<path class="st7" d="M673,480.3c0,0.1-0.5,0-1.1-0.1c-0.6-0.1-1-0.3-1-0.4c0-0.1,0.5,0,1.1,0.1
						C672.5,480.1,673,480.2,673,480.3z"/>
				</g>
			</g>
			<g>
				<g>
					<path class="st7" d="M673.6,478.4c0,0.1-0.4,0.2-0.9,0.2c-0.5,0-0.9,0-0.9-0.1c0-0.1,0.4-0.2,0.9-0.2
						C673.1,478.3,673.6,478.3,673.6,478.4z"/>
				</g>
			</g>
			<g>
				<g>
					<path class="st7" d="M672.9,476.2c0.1,0-0.3,0.5-0.7,0.9c-0.4,0.4-0.8,0.8-0.9,0.7c-0.1,0,0.3-0.5,0.7-0.9
						C672.4,476.4,672.8,476.1,672.9,476.2z"/>
				</g>
			</g>
			<g>
				<g>
					<path class="st7" d="M672.1,474.9c0.1,0-0.1,0.6-0.6,1.1c-0.5,0.6-1,0.9-1,0.8c0-0.1,0.4-0.4,0.8-1
						C671.8,475.3,672.1,474.8,672.1,474.9z"/>
				</g>
			</g>
			<g>
				<g>
					<path class="st7" d="M671.1,479.5c0,0-0.3,0.4-1,1c-0.3,0.3-0.8,0.6-1.3,0.8c-0.3,0.1-0.5,0.3-0.8,0.4c-0.2,0-0.4,0.1-0.6-0.1
						c-0.2-0.1-0.3-0.3-0.2-0.5c0.4-1.4,1.9-1.8,2.7-1.7c0.4,0.1,0.8,0.2,1,0.3c0.2,0.1,0.3,0.2,0.3,0.2c0,0-0.5-0.3-1.3-0.4
						c-0.4,0-0.9,0-1.4,0.3c-0.5,0.2-1,0.7-1.1,1.3c0,0.3,0.2,0.4,0.5,0.3c0.3-0.1,0.5-0.2,0.8-0.3c0.5-0.2,0.9-0.5,1.3-0.8
						C670.7,479.8,671.1,479.5,671.1,479.5z"/>
				</g>
			</g>
			<g>
				<g>
					<path class="st7" d="M670.9,479.8c0,0-0.4-0.1-0.8-0.6c-0.2-0.2-0.4-0.6-0.5-1c0-0.4-0.1-0.9,0.3-1.3c0.3-0.2,0.6-0.1,0.8,0.1
						c0.2,0.2,0.2,0.4,0.3,0.6c0.1,0.4,0.1,0.8,0.1,1.1c0,0.6-0.1,1-0.2,1c0,0,0-0.4,0-1c0-0.3-0.1-0.6-0.2-1
						c-0.1-0.3-0.4-0.8-0.6-0.6c-0.3,0.2-0.3,0.7-0.2,1.1c0.1,0.4,0.2,0.7,0.4,0.9C670.6,479.6,670.9,479.7,670.9,479.8z"/>
				</g>
			</g>
			<g>
				<g>
					<path class="st7" d="M686.4,462.1c0,0-0.5,0.4-1.1,1.2c-0.6,0.8-1.3,2-1.4,3.5c-0.2,1.5,0.2,2.8,0.7,3.7
						c0.4,0.9,0.8,1.4,0.8,1.4c0,0-0.1-0.1-0.3-0.3c-0.2-0.2-0.4-0.5-0.7-1c-0.5-0.9-0.9-2.3-0.8-3.8c0.2-1.6,0.9-2.8,1.6-3.6
						c0.3-0.4,0.6-0.7,0.9-0.8C686.2,462.2,686.4,462.1,686.4,462.1z"/>
				</g>
			</g>
			<g>
				<g>
					<path class="st7" d="M678.4,457.4c0-0.1,1.5,1.3,3.3,3c1.8,1.7,3.2,3.1,3.1,3.2c0,0.1-1.5-1.3-3.3-3
						C679.7,458.9,678.3,457.4,678.4,457.4z"/>
				</g>
			</g>
			<g>
				<g>
					<path class="st7" d="M682,472.4c0.1,0-0.8,1.2-2,2.5c-1.2,1.3-2.4,2.1-2.4,2.1c0-0.1,1-1,2.2-2.3
						C681,473.5,681.9,472.4,682,472.4z"/>
				</g>
			</g>
			<g>
				<g>
					<path class="st7" d="M684.9,469.4c0.1,0,0.1,0.3,0.3,0.6c0.1,0.3,0.3,0.6,0.2,0.6c0,0-0.3-0.2-0.5-0.5
						C684.8,469.8,684.9,469.4,684.9,469.4z"/>
				</g>
			</g>
			<g>
				<g>
					<path class="st7" d="M684.7,466.9c0.1,0,0.1,0.3,0.1,0.6c0,0.3-0.1,0.6-0.1,0.6c-0.1,0-0.1-0.3-0.1-0.6
						C684.5,467.1,684.6,466.9,684.7,466.9z"/>
				</g>
			</g>
			<g>
				<g>
					<path class="st7" d="M685.6,464.6c0,0.1-0.2,0.3-0.3,0.6s-0.2,0.6-0.3,0.6c-0.1,0-0.2-0.3,0-0.7
						C685.3,464.7,685.6,464.6,685.6,464.6z"/>
				</g>
			</g>
			<g>
				<g>
					<path class="st7" d="M686.5,463.2c0.1,0,0.1,0.2,0,0.4c-0.1,0.2-0.2,0.3-0.3,0.3s-0.1-0.2,0-0.4
						C686.3,463.3,686.4,463.1,686.5,463.2z"/>
				</g>
			</g>
		</g>
		<g>
			<g>
				<g>
					<path class="st3" d="M609.5,491.8l0.3-11.5l21.6,0.4l-0.2,16.9l-1.3,0.1c-6,0.2-30.4,0.7-34.4-0.6
						C591.1,495.6,609.5,491.8,609.5,491.8z"/>
				</g>
				<g>
					<path class="st2" d="M623.4,497.2c0.3-1.8,1.4-3.5,2.8-4.6c1.5-1.1,3.3-1.7,5.1-1.5l-0.1,6H623.4z"/>
				</g>
			</g>
			<g>
				<path class="st2" d="M600.5,494c0,0-6.5,1.7-5.7,2.8c0.8,1.1,25.5,1.5,36.4,0.7l0-0.5l-28.8-0.2
					C602.4,496.8,601.8,494,600.5,494z"/>
			</g>
			<g>
				<g>
					<path class="st7" d="M631.5,497c0,0-0.1,0-0.4,0c-0.3,0-0.7,0-1.1,0c-1.1,0-2.4,0.1-3.9,0.1c-3.3,0.1-7.9,0.1-13,0
						c-5.1-0.1-9.7-0.3-13-0.4c-1.5-0.1-2.9-0.2-3.9-0.2c-0.4,0-0.7-0.1-1.1-0.1c-0.2,0-0.4,0-0.4,0s0.1,0,0.4,0c0.3,0,0.7,0,1.1,0
						c1.1,0,2.4,0.1,3.9,0.1c3.3,0.1,7.9,0.3,13,0.4c5.1,0.1,9.7,0.1,13,0.1c1.6,0,2.9,0,3.9,0c0.4,0,0.7,0,1.1,0
						C631.4,497,631.5,497,631.5,497z"/>
				</g>
			</g>
			<g>
				<g>
					<path class="st7" d="M602.4,497.1c-0.1,0-0.1-0.9-0.7-1.9c-0.6-1-1.4-1.5-1.3-1.5c0-0.1,0.9,0.4,1.5,1.4
						C602.5,496.1,602.4,497.1,602.4,497.1z"/>
				</g>
			</g>
			<g>
				<g>
					<path class="st7" d="M608.8,494c-0.1,0-0.4-0.3-0.7-0.8c-0.3-0.5-0.5-0.9-0.4-1c0.1,0,0.4,0.3,0.7,0.8
						C608.7,493.5,608.9,493.9,608.8,494z"/>
				</g>
			</g>
			<g>
				<g>
					<path class="st7" d="M610.6,493.1c0,0.1-0.4-0.2-0.8-0.5c-0.4-0.3-0.6-0.7-0.6-0.7s0.4,0.2,0.8,0.5
						C610.4,492.7,610.6,493,610.6,493.1z"/>
				</g>
			</g>
			<g>
				<g>
					<path class="st7" d="M611.7,491.1c0,0.1-0.5,0.1-1.1,0.1c-0.6,0-1.1-0.1-1.1-0.1c0-0.1,0.5-0.1,1.1-0.1
						C611.2,490.9,611.7,491,611.7,491.1z"/>
				</g>
			</g>
			<g>
				<g>
					<path class="st7" d="M612.1,489.6c0,0.1-0.5,0.3-1.3,0.3c-0.7,0-1.3-0.1-1.3-0.2c0-0.1,0.6,0,1.3-0.1
						C611.5,489.7,612.1,489.6,612.1,489.6z"/>
				</g>
			</g>
			<g>
				<g>
					<path class="st7" d="M608.1,492.1c0,0-0.5,0.1-1.4,0c-0.4-0.1-0.9-0.2-1.5-0.3c-0.3-0.1-0.6-0.2-0.8-0.4
						c-0.1-0.1-0.3-0.2-0.3-0.4c-0.1-0.2,0.1-0.4,0.2-0.6c1.3-0.7,2.7,0.1,3.1,0.8c0.3,0.4,0.4,0.7,0.4,0.9c0.1,0.2,0,0.4,0,0.4
						c0,0-0.1-0.6-0.6-1.2c-0.3-0.3-0.7-0.6-1.2-0.8c-0.5-0.2-1.2-0.2-1.7,0.1c-0.2,0.2-0.1,0.4,0.1,0.6c0.2,0.2,0.5,0.2,0.8,0.3
						c0.5,0.2,1,0.3,1.4,0.4C607.6,492,608.1,492,608.1,492.1z"/>
				</g>
			</g>
			<g>
				<g>
					<path class="st7" d="M607.7,492.1c0,0-0.2-0.3-0.1-1c0-0.3,0.2-0.7,0.4-1c0.2-0.3,0.6-0.7,1.2-0.7c0.3,0,0.5,0.4,0.4,0.7
						c0,0.2-0.1,0.5-0.2,0.6c-0.2,0.3-0.5,0.6-0.7,0.8c-0.4,0.4-0.8,0.6-0.8,0.6c0,0,0.3-0.2,0.7-0.7c0.2-0.2,0.4-0.5,0.6-0.8
						c0.2-0.3,0.3-0.8,0-0.9c-0.3,0-0.7,0.3-0.9,0.6c-0.2,0.3-0.3,0.6-0.4,0.9C607.7,491.8,607.8,492.1,607.7,492.1z"/>
				</g>
			</g>
			<g>
				<g>
					<path class="st7" d="M631.2,491.1c0,0-0.6-0.1-1.6,0c-1,0.1-2.3,0.5-3.5,1.4c-1.2,0.9-1.9,2.1-2.2,3c-0.3,0.9-0.4,1.5-0.4,1.5
						c0,0,0-0.2,0-0.4c0-0.3,0.1-0.7,0.3-1.2c0.3-1,1-2.2,2.2-3.2c1.2-0.9,2.7-1.3,3.7-1.4c0.5,0,0.9,0,1.2,0.1
						C631,491,631.2,491.1,631.2,491.1z"/>
				</g>
			</g>
			<g>
				<g>
					<path class="st7" d="M629.1,482c0.1,0,0.1,2,0.1,4.5c0,2.5-0.1,4.5-0.1,4.5c-0.1,0-0.1-2-0.1-4.5C629,484,629,482,629.1,482z"
						/>
				</g>
			</g>
			<g>
				<g>
					<path class="st7" d="M620.7,495c0,0.1-1.4,0.3-3.2,0.3c-1.8,0-3.2-0.2-3.2-0.3c0-0.1,1.4,0,3.2,0
						C619.3,495.1,620.7,495,620.7,495z"/>
				</g>
			</g>
			<g>
				<g>
					<path class="st7" d="M624.9,495.1c0.1,0.1-0.1,0.3-0.3,0.6c-0.2,0.3-0.2,0.6-0.3,0.6c-0.1,0-0.1-0.3,0.1-0.7
						C624.6,495.2,624.9,495.1,624.9,495.1z"/>
				</g>
			</g>
			<g>
				<g>
					<path class="st7" d="M626.6,493.1c0.1,0.1-0.1,0.3-0.3,0.5c-0.2,0.2-0.5,0.4-0.5,0.3c-0.1-0.1,0.1-0.3,0.3-0.5
						C626.3,493.2,626.5,493.1,626.6,493.1z"/>
				</g>
			</g>
			<g>
				<g>
					<path class="st7" d="M628.9,492.3c0,0.1-0.3,0.1-0.6,0.2c-0.3,0.1-0.6,0.3-0.6,0.2c-0.1,0,0.1-0.3,0.5-0.5
						C628.6,492.1,628.9,492.2,628.9,492.3z"/>
				</g>
			</g>
			<g>
				<g>
					<path class="st7" d="M630.5,491.9c0,0.1-0.1,0.2-0.3,0.2c-0.2,0.1-0.3,0.1-0.4,0c0-0.1,0.1-0.2,0.3-0.2
						C630.3,491.8,630.5,491.8,630.5,491.9z"/>
				</g>
			</g>
		</g>
		<g>
			<path class="st8" d="M621.1,244.2c-8,23.7-22.5,66.6-22.5,66.6c-1,0.6-4.8,2.6-6,2.9c-1.4,0.3-3.3,0.6-4.4,0.5
				c-1.4-0.2-2.2,1.4-1.3,2.2c0.9,0.9,4.6,1.5,8.8,0.2c4.2-1.3,1.1,5.1-0.3,7.2c-1.4,2.1-5.3,9-5,10c0.5,1.4,2.1,0.8,3.5-1.3
				c1.3-2.2,5.3-8.3,5.9-8c1.1,0.6-5.8,11.6-5.8,11.6s-1.6,1.9-0.4,2.9c2.2,1.7,8.9-10.1,9.6-11.3c0.4-0.8,1-0.2,0.5,0.7
				c-0.5,0.9-6.4,10.5-4.6,11.6c1.8,1.1,5.9-8.6,7.6-10.3c1.9-2-3.9,8.1-2.2,9.3c0.6,0.5,1.2,0.7,4.1-5.1c1.8-3.7,4.6-11.9,6.5-17.6
				c6.2-12.4,23.8-50.6,29.7-76.6"/>
		</g>
		<g>
			<path class="st3" d="M625.4,186.4c0,0,17.2-5,20.6,21.3c2.1,16.5,7,56.2,8.8,76.7c0.2,1.9-1,1.2-0.9,2.8c0.2,1.8,1.8,3.3,1.8,4.7
				c0,4.2-4.8,4.1-4.8,4.1l-44.9,2.1c0,0-4.2,0.1-4.2-3.5c0-2.8,1.8-4,1.9-5.7c1.9-24.6,1.9-85.8,4.6-94.2
				C611,186.6,612.7,186.4,625.4,186.4z"/>
		</g>
		<g>
			<g>
				<path class="st2" d="M628.8,187.7c0,0,0.4,0.4,1.1,1.1c0.6,0.7,1.5,1.7,2.4,2.8c0.9,1.1,1.7,2.1,2.3,2.9
					c0.5,0.8,0.8,1.3,0.8,1.3c0,0-0.4-0.4-1-1.2c-0.6-0.7-1.4-1.8-2.3-2.9c-0.9-1.1-1.8-2.1-2.4-2.8
					C629.1,188.2,628.7,187.7,628.8,187.7z"/>
			</g>
		</g>
		<g>
			<g>
				<path class="st2" d="M630.8,187.2c0,0-0.2,0.1-0.7,0.3c-0.6,0.3-1.3,0.5-2,0.8c-1.7,0.7-4,1.6-6.6,2.5c-2.6,0.9-5,1.7-6.7,2.2
					c-0.7,0.2-1.4,0.4-2.1,0.6c-0.5,0.1-0.8,0.2-0.8,0.2c0,0,0.3-0.1,0.7-0.3c0.6-0.2,1.3-0.4,2-0.7c1.7-0.6,4.1-1.3,6.7-2.2
					c2.6-0.9,5-1.8,6.7-2.4c0.7-0.3,1.4-0.5,2-0.7C630.5,187.3,630.8,187.2,630.8,187.2z"/>
			</g>
		</g>
		<g>
			<g>
				<path class="st2" d="M612,189c0.1,0,0.1,1.1,0.1,2.4s-0.1,2.4-0.1,2.4s-0.1-1.1-0.1-2.4C611.9,190,611.9,189,612,189z"/>
			</g>
		</g>
		<g>
			<g>
				<path class="st0" d="M642.7,195.8c0,0.1-7.6,0.1-17,0.1c-9.4,0-17-0.1-17-0.1s7.6-0.1,17-0.1
					C635.1,195.7,642.7,195.7,642.7,195.8z"/>
			</g>
		</g>
		<g>
			<g>
				<path class="st0" d="M644.9,201.4c0,0-0.1,0-0.4,0c-0.3,0-0.7,0-1.1,0c-1.1,0-2.4-0.1-4-0.1c-3.6-0.1-8.2-0.3-13.3-0.4
					c-5.1-0.1-9.8-0.2-13.4-0.2c-1.6,0-3,0-4-0.1c-0.4,0-0.8,0-1.1,0c-0.2,0-0.4,0-0.4,0c0,0,0.1,0,0.4,0c0.3,0,0.7,0,1.1,0
					c1.1,0,2.4,0,4,0c3.4,0,8.1,0,13.4,0.2c5.2,0.1,9.9,0.3,13.3,0.5c1.6,0.1,3,0.2,4,0.2c0.4,0,0.8,0.1,1.1,0.1
					C644.8,201.4,644.9,201.4,644.9,201.4z"/>
			</g>
		</g>
		<g>
			<g>
				<path class="st0" d="M645.5,206.3c0,0.1-8.6,0.1-19.2,0.1c-10.6,0-19.2-0.1-19.2-0.1s8.6-0.1,19.2-0.1
					C636.8,206.2,645.5,206.3,645.5,206.3z"/>
			</g>
		</g>
		<g>
			<g>
				<path class="st0" d="M646.4,211.7c0,0.1-8.9,0.1-19.9,0.1c-11,0-19.9-0.1-19.9-0.1s8.9-0.1,19.9-0.1
					C637.5,211.6,646.4,211.6,646.4,211.7z"/>
			</g>
		</g>
		<g>
			<g>
				<path class="st0" d="M647.4,217.6c0,0.1-9.1,0.1-20.4,0.1c-11.3,0-20.4-0.1-20.4-0.1c0-0.1,9.1-0.1,20.4-0.1
					C638.2,217.5,647.4,217.5,647.4,217.6z"/>
			</g>
		</g>
		<g>
			<g>
				<path class="st0" d="M647.9,223.5c0,0.1-9.3,0.1-20.7,0.1c-11.4,0-20.7-0.1-20.7-0.1s9.3-0.1,20.7-0.1
					C638.6,223.4,647.9,223.4,647.9,223.5z"/>
			</g>
		</g>
		<g>
			<g>
				<path class="st0" d="M648.6,229.8c0,0.1-9.4,0.1-21,0.1c-11.6,0-21-0.1-21-0.1c0-0.1,9.4-0.1,21-0.1S648.6,229.7,648.6,229.8z"
					/>
			</g>
		</g>
		<g>
			<g>
				<path class="st0" d="M649.3,235.3c0,0.1-9.6,0.1-21.4,0.1c-11.8,0-21.4-0.1-21.4-0.1c0-0.1,9.6-0.1,21.4-0.1
					C639.8,235.1,649.3,235.2,649.3,235.3z"/>
			</g>
		</g>
		<g>
			<g>
				<path class="st0" d="M650.2,241.3c0,0.1-9.8,0.1-21.8,0.1c-12.1,0-21.8-0.1-21.8-0.1c0-0.1,9.8-0.1,21.8-0.1
					C640.5,241.1,650.2,241.2,650.2,241.3z"/>
			</g>
		</g>
		<g>
			<g>
				<path class="st0" d="M650.8,247.3c0,0.1-9.9,0.1-22.1,0.1c-12.2,0-22.1-0.1-22.1-0.1c0-0.1,9.9-0.1,22.1-0.1
					C640.9,247.1,650.8,247.2,650.8,247.3z"/>
			</g>
		</g>
		<g>
			<g>
				<path class="st0" d="M651.4,253.3c0,0.1-10,0.1-22.4,0.1c-12.4,0-22.4-0.1-22.4-0.1c0-0.1,10-0.1,22.4-0.1
					C641.4,253.1,651.4,253.2,651.4,253.3z"/>
			</g>
		</g>
		<g>
			<g>
				<path class="st0" d="M652.1,259.3c0,0.1-10.2,0.1-22.8,0.1c-12.6,0-22.8-0.1-22.8-0.1c0-0.1,10.2-0.1,22.8-0.1
					C641.9,259.1,652.1,259.2,652.1,259.3z"/>
			</g>
		</g>
		<g>
			<g>
				<path class="st0" d="M652.8,265.3c0,0.1-10.6,0.1-23.6,0.1c-13.1,0-23.6-0.1-23.6-0.1c0-0.1,10.6-0.1,23.6-0.1
					C642.2,265.1,652.8,265.2,652.8,265.3z"/>
			</g>
		</g>
		<g>
			<g>
				<path class="st0" d="M653.4,271.3c0,0.1-10.9,0.1-24.4,0.1c-13.5,0-24.4-0.1-24.4-0.1c0-0.1,10.9-0.1,24.4-0.1
					C642.5,271.1,653.4,271.2,653.4,271.3z"/>
			</g>
		</g>
		<g>
			<g>
				<path class="st0" d="M654,277.3c0,0.1-11.1,0.1-24.8,0.1c-13.7,0-24.8-0.1-24.8-0.1c0-0.1,11.1-0.1,24.8-0.1
					C642.9,277.2,654,277.2,654,277.3z"/>
			</g>
		</g>
		<g>
			<g>
				<path class="st0" d="M654.6,283.3c0,0.1-11.2,0.1-25.1,0.1c-13.9,0-25.1-0.1-25.1-0.1c0-0.1,11.2-0.1,25.1-0.1
					C643.4,283.2,654.6,283.2,654.6,283.3z"/>
			</g>
		</g>
		<g>
			<g>
				<path class="st0" d="M654.3,289.3c0,0.1-11.3,0-25.3-0.1c-14-0.1-25.3-0.3-25.3-0.4s11.3,0,25.3,0.1
					C643,289.1,654.3,289.2,654.3,289.3z"/>
			</g>
		</g>
		<g>
			<g>
				<path class="st0" d="M654.3,294.8c0,0.1-11.7,0.2-26.2,0.4c-14.5,0.1-26.2,0.2-26.2,0.1s11.7-0.2,26.2-0.4
					C642.6,294.8,654.3,294.8,654.3,294.8z"/>
			</g>
		</g>
		<g>
			<g>
				<path class="st3" d="M620.5,266.7c2.9,0.4,5.8-0.4,8.2-2.1c2.4-1.7,4.2-4,5.8-6.5c5.9-8.8,9.5-19.2,10.2-29.7
					c0.2-2.4,0.4-12.3-0.1-16.3c-1.5,11.4-5,23.8-7.9,30.7c-3.8,8.9-7.4,15.4-13.7,22.7"/>
			</g>
			<g class="st5">
				<path d="M620.5,266.7c2.9,0.4,5.8-0.4,8.2-2.1c2.4-1.7,4.2-4,5.8-6.5c5.9-8.8,9.5-19.2,10.2-29.7c0.2-2.4,0.4-12.3-0.1-16.3
					c-1.5,11.4-5,23.8-7.9,30.7c-3.8,8.9-7.4,15.4-13.7,22.7"/>
			</g>
		</g>
		<g>
			<g>
				<path class="st2" d="M648.8,272.1c0,0-1.6,1.8-4.5,4.2c-1.5,1.2-3.3,2.6-5.4,4c-2.1,1.4-4.5,2.8-7.1,4c-2.6,1.2-5.2,2.2-7.6,3
					c-2.4,0.7-4.6,1.3-6.5,1.6c-3.8,0.7-6.1,0.8-6.1,0.8c0,0,0.1,0,0.4-0.1c0.4,0,0.8-0.1,1.2-0.2c1.1-0.1,2.6-0.4,4.4-0.7
					c1.9-0.4,4.1-0.9,6.5-1.7c2.4-0.8,5-1.8,7.6-3c2.6-1.3,5-2.6,7.1-4c2.1-1.4,3.9-2.7,5.4-3.9c1.5-1.2,2.6-2.2,3.4-3
					c0.3-0.3,0.6-0.6,0.9-0.8C648.6,272.2,648.8,272.1,648.8,272.1z"/>
			</g>
		</g>
		<g>
			<g>
				<g>
					<path class="st2" d="M636.4,243.7c0,0-0.1,0-0.3-0.1c-0.2-0.1-0.5-0.1-0.7-0.2c-0.8-0.3-1.6-0.6-2.6-0.9
						c-2.4-0.9-5.3-1.9-8.4-3.1c-3.3-1.2-6.3-2.2-8.6-2.8c-1-0.3-1.9-0.5-2.6-0.7c-0.2-0.1-0.5-0.1-0.7-0.2c-0.2,0-0.2-0.1-0.2-0.1
						c0,0,0.1,0,0.3,0c0.2,0,0.5,0.1,0.7,0.2c0.6,0.1,1.5,0.4,2.7,0.7c2.2,0.6,5.3,1.5,8.6,2.8c3.3,1.2,6.3,2.4,8.4,3.2
						c1,0.4,1.8,0.7,2.6,1c0.2,0.1,0.5,0.2,0.7,0.3C636.4,243.7,636.4,243.7,636.4,243.7z"/>
				</g>
			</g>
			<g>
				<g>
					<path class="st2" d="M636.4,243.7c0,0,0.1-0.3,0.3-1c0.3-0.7,0.6-1.6,1-2.8c0.9-2.4,2.1-6,3.3-10.4c1.2-4.5,2.1-9.9,2.9-16
						c0.5-3,0.7-6.3-0.4-9.4c-0.5-1.6-1.4-3-2.5-4.3c-0.6-0.6-1.2-1.2-1.8-1.8c-0.6-0.6-1.3-1.1-2.1-1.4c-1.6-0.7-3.4-0.8-5-0.5
						c-1.7,0.3-3.2,1-4.6,1.9c-2.8,1.8-4.1,5-5.1,7.8c-1.9,5.8-3.7,11-5.1,15.4c-1.5,4.3-2.6,7.9-3.5,10.4c-0.4,1.2-0.7,2.1-1,2.8
						c-0.2,0.6-0.3,1-0.3,1s0.1-0.3,0.3-1c0.2-0.7,0.5-1.6,0.9-2.8c0.8-2.5,2-6.1,3.4-10.4c1.5-4.4,3.2-9.6,5.1-15.4
						c0.5-1.4,1.1-2.9,1.9-4.3c0.8-1.4,1.9-2.7,3.3-3.6c1.4-0.9,3-1.6,4.7-1.9c1.7-0.3,3.6-0.2,5.2,0.5c0.8,0.4,1.6,0.9,2.2,1.5
						c0.7,0.6,1.3,1.2,1.8,1.8c1.2,1.3,2,2.8,2.6,4.4c1.1,3.2,0.9,6.5,0.4,9.6c-0.9,6-1.8,11.5-3,16c-1.2,4.5-2.5,8-3.4,10.4
						C637,242.4,636.4,243.7,636.4,243.7z"/>
				</g>
			</g>
		</g>
		<g>
			<path class="st2" d="M647.1,315.8l1,73.2c0.1,5.1,0.6,10.1,1.6,15c1.4,6.8,3.7,15.6,7.6,21c5.9,8.3,26.8,31.7,26.8,31.7
				l-17.6,20.6c0,0-37.3-29.7-39.7-57.2c-1.2-13.9,0-97.3,0-97.3L647.1,315.8z"/>
		</g>
		<g>
			<path class="st2" d="M605.9,298.1l-0.5,189.4h29.2l5.1-164.8c0,0,8.4-5.6,9.9-12.7c2-9.6,1.1-14.1,1.1-14.1L605.9,298.1z"/>
		</g>
		<g>
			<rect x="604.2" y="482.9" class="st7" width="31.7" height="4.6"/>
		</g>
		<g>
			
				<rect x="658.4" y="463.3" transform="matrix(0.6881 -0.7256 0.7256 0.6881 -127.5363 634.4627)" class="st7" width="31.7" height="4.6"/>
		</g>
		<g>
			<g>
				<path class="st2" d="M682.3,454.2c0,0-0.1,0.1-0.2,0.2c-0.2,0.2-0.3,0.4-0.5,0.6c-0.6,0.6-1.3,1.3-2,2.2c-1.7,1.8-4,4.4-6.7,7.2
					c-2.6,2.6-5,5-6.9,6.9c-0.8,0.8-1.5,1.5-2.1,2.1c-0.2,0.2-0.4,0.4-0.6,0.6c-0.1,0.1-0.2,0.2-0.2,0.2c0,0,0.1-0.1,0.2-0.2
					c0.2-0.2,0.4-0.4,0.6-0.6c0.6-0.6,1.3-1.3,2.1-2.1c1.9-1.9,4.2-4.3,6.8-7c2.6-2.7,4.9-5.1,6.7-7.1c0.9-0.9,1.6-1.6,2.1-2.1
					c0.2-0.2,0.4-0.4,0.6-0.6C682.2,454.3,682.3,454.2,682.3,454.2z"/>
			</g>
		</g>
		<g>
			<g>
				<path class="st7" d="M628.2,297.1c0,0,0,0.2-0.1,0.5c-0.1,0.3-0.2,0.8-0.5,1.4c-0.2,0.6-0.6,1.3-1.2,2c-0.6,0.7-1.4,1.4-2.2,2.3
					c-0.8,0.8-1.8,1.8-2.7,2.9c-0.9,1.2-0.8,2.9-0.9,4.5c-0.1,3.4-0.2,7.3-0.4,11.5c-0.1,4.3-0.3,8.9-0.5,14c-0.1,5-0.3,10.4-0.5,16
					c-0.3,11.3-0.7,23.7-1,36.7c-0.4,26-0.8,49.6-1.1,66.7c-0.3,16.7-0.5,25.9-0.5,27.6c0,0,0-0.7,0-1.9c0-1.3,0-3.1,0.1-5.5
					c0.1-4.8,0.2-11.7,0.3-20.2c0.3-17.1,0.6-40.7,1-66.7c0.3-13,0.7-25.4,1-36.7c0.2-5.6,0.3-11,0.5-16c0.2-5,0.3-9.7,0.5-14
					c0.2-4.3,0.3-8.1,0.4-11.5c0.1-1.7,0-3.4,0.9-4.6c0.9-1.2,1.8-2.1,2.7-2.9c0.9-0.8,1.7-1.5,2.2-2.2c0.6-0.7,1-1.4,1.3-1.9
					s0.4-1,0.5-1.3C628.1,297.3,628.2,297.1,628.2,297.1z"/>
			</g>
		</g>
		<g>
			<g>
				<g>
					<path class="st7" d="M610.7,299.4c-0.1,0-0.2-0.2-0.4-0.5c-0.2-0.3-0.2-0.6-0.2-0.6c0.1,0,0.3,0.2,0.4,0.5
						C610.7,299.1,610.8,299.3,610.7,299.4z"/>
				</g>
			</g>
			<g>
				<g>
					<path class="st7" d="M612.4,301.3c0,0.1-0.3-0.1-0.5-0.3c-0.3-0.2-0.4-0.5-0.4-0.5c0.1,0,0.3,0.1,0.5,0.3
						C612.3,301,612.5,301.2,612.4,301.3z"/>
				</g>
			</g>
			<g>
				<g>
					<path class="st7" d="M614.5,302.6c0,0.1-0.3,0-0.6-0.2c-0.3-0.2-0.5-0.3-0.5-0.4c0-0.1,0.3,0,0.6,0.2
						C614.3,302.3,614.6,302.5,614.5,302.6z"/>
				</g>
			</g>
			<g>
				<g>
					<path class="st7" d="M617,303.3c0,0.1-0.3,0.1-0.6,0c-0.3-0.1-0.6-0.2-0.6-0.3s0.3-0.1,0.6,0C616.7,303.1,617,303.2,617,303.3z
						"/>
				</g>
			</g>
			<g>
				<g>
					<path class="st7" d="M619.5,303.2c0,0.1-0.3,0.2-0.6,0.2c-0.3,0.1-0.6,0-0.6-0.1c0-0.1,0.3-0.1,0.6-0.2
						C619.2,303.1,619.5,303.1,619.5,303.2z"/>
				</g>
			</g>
			<g>
				<g>
					<path class="st7" d="M621.8,302.3c0,0.1-0.2,0.2-0.5,0.4c-0.3,0.1-0.6,0.2-0.6,0.1s0.2-0.2,0.5-0.4
						C621.5,302.3,621.8,302.2,621.8,302.3z"/>
				</g>
			</g>
			<g>
				<g>
					<path class="st7" d="M623.8,300.8c0.1,0.1-0.1,0.3-0.4,0.5c-0.3,0.2-0.5,0.4-0.6,0.3c0-0.1,0.1-0.3,0.4-0.5
						C623.5,300.9,623.8,300.8,623.8,300.8z"/>
				</g>
			</g>
			<g>
				<g>
					<path class="st7" d="M625.4,298.8c0.1,0,0,0.3-0.2,0.6c-0.2,0.3-0.4,0.5-0.5,0.5c-0.1,0,0-0.3,0.2-0.6
						C625.1,299,625.3,298.8,625.4,298.8z"/>
				</g>
			</g>
			<g>
				<g>
					<path class="st7" d="M626,297.2c0.1,0,0.1,0.1,0.1,0.3c0,0.1-0.1,0.2-0.2,0.2s-0.1-0.1-0.1-0.3
						C625.9,297.3,625.9,297.2,626,297.2z"/>
				</g>
			</g>
		</g>
		<g>
			<g>
				<g>
					<path class="st7" d="M618.3,308.1c-0.1,0-0.1-0.3-0.1-0.6c0-0.3,0.1-0.6,0.2-0.6c0.1,0,0.1,0.3,0.1,0.6
						C618.4,307.8,618.3,308.1,618.3,308.1z"/>
				</g>
			</g>
			<g>
				<g>
					<path class="st7" d="M618.2,310.6c-0.1,0-0.1-0.3-0.1-0.6c0-0.3,0.1-0.6,0.2-0.6c0.1,0,0.1,0.3,0.1,0.6
						C618.3,310.3,618.3,310.6,618.2,310.6z"/>
				</g>
			</g>
			<g>
				<g>
					<path class="st7" d="M618.1,313.1c-0.1,0-0.1-0.3-0.1-0.6c0-0.3,0.1-0.6,0.2-0.6c0.1,0,0.1,0.3,0.1,0.6
						C618.2,312.9,618.2,313.1,618.1,313.1z"/>
				</g>
			</g>
			<g>
				<g>
					<path class="st7" d="M618,315.6c-0.1,0-0.1-0.3-0.1-0.6c0-0.3,0.1-0.6,0.1-0.6c0.1,0,0.1,0.3,0.1,0.6
						C618.2,315.4,618.1,315.6,618,315.6z"/>
				</g>
			</g>
			<g>
				<g>
					<path class="st7" d="M618,318.2c-0.1,0-0.1-0.3-0.1-0.6c0-0.3,0.1-0.6,0.1-0.6s0.1,0.3,0.1,0.6
						C618.1,317.9,618,318.2,618,318.2z"/>
				</g>
			</g>
			<g>
				<g>
					<path class="st7" d="M617.9,320.7c-0.1,0-0.1-0.3-0.1-0.6c0-0.3,0.1-0.6,0.1-0.6c0.1,0,0.1,0.3,0.1,0.6
						C618,320.4,617.9,320.7,617.9,320.7z"/>
				</g>
			</g>
			<g>
				<g>
					<path class="st7" d="M617.8,323.2c-0.1,0-0.1-0.3-0.1-0.6c0-0.3,0.1-0.6,0.1-0.6s0.1,0.3,0.1,0.6
						C617.9,322.9,617.9,323.2,617.8,323.2z"/>
				</g>
			</g>
			<g>
				<g>
					<path class="st7" d="M617.7,325.7c-0.1,0-0.1-0.3-0.1-0.6c0-0.3,0.1-0.6,0.1-0.6c0.1,0,0.1,0.3,0.1,0.6
						C617.9,325.4,617.8,325.7,617.7,325.7z"/>
				</g>
			</g>
			<g>
				<g>
					<path class="st7" d="M617.6,328.2c-0.1,0-0.1-0.3-0.1-0.6c0-0.3,0.1-0.6,0.1-0.6c0.1,0,0.1,0.3,0.1,0.6
						S617.7,328.2,617.6,328.2z"/>
				</g>
			</g>
			<g>
				<g>
					<path class="st7" d="M617.6,330.8c-0.1,0-0.1-0.3-0.1-0.6c0-0.3,0.1-0.6,0.1-0.6c0.1,0,0.1,0.3,0.1,0.6
						C617.7,330.5,617.7,330.8,617.6,330.8z"/>
				</g>
			</g>
			<g>
				<g>
					<path class="st7" d="M617.5,333.3c-0.1,0-0.1-0.3-0.1-0.6c0-0.3,0.1-0.6,0.1-0.6c0.1,0,0.1,0.3,0.1,0.6
						C617.6,333,617.6,333.3,617.5,333.3z"/>
				</g>
			</g>
			<g>
				<g>
					<path class="st7" d="M617.4,335.8c-0.1,0-0.1-0.3-0.1-0.6c0-0.3,0.1-0.6,0.1-0.6s0.1,0.3,0.1,0.6
						C617.6,335.5,617.5,335.8,617.4,335.8z"/>
				</g>
			</g>
			<g>
				<g>
					<path class="st7" d="M617.4,338.3c-0.1,0-0.1-0.3-0.1-0.6c0-0.3,0.1-0.6,0.1-0.6s0.1,0.3,0.1,0.6
						C617.5,338,617.5,338.3,617.4,338.3z"/>
				</g>
			</g>
			<g>
				<g>
					<path class="st7" d="M617.3,340.8c-0.1,0-0.1-0.3-0.1-0.6s0.1-0.6,0.1-0.6c0.1,0,0.1,0.3,0.1,0.6
						C617.5,340.6,617.4,340.8,617.3,340.8z"/>
				</g>
			</g>
			<g>
				<g>
					<path class="st7" d="M617.3,343.4c-0.1,0-0.1-0.3-0.1-0.6c0-0.3,0.1-0.6,0.1-0.6c0.1,0,0.1,0.3,0.1,0.6
						C617.4,343.1,617.3,343.4,617.3,343.4z"/>
				</g>
			</g>
			<g>
				<g>
					<path class="st7" d="M617.2,345.9c-0.1,0-0.1-0.3-0.1-0.6c0-0.3,0.1-0.6,0.1-0.6c0.1,0,0.1,0.3,0.1,0.6
						C617.3,345.6,617.3,345.9,617.2,345.9z"/>
				</g>
			</g>
			<g>
				<g>
					<path class="st7" d="M617.1,348.4c-0.1,0-0.1-0.3-0.1-0.6c0-0.3,0.1-0.6,0.1-0.6c0.1,0,0.1,0.3,0.1,0.6
						C617.3,348.1,617.2,348.4,617.1,348.4z"/>
				</g>
			</g>
			<g>
				<g>
					<path class="st7" d="M617.1,350.9c-0.1,0-0.1-0.3-0.1-0.6s0.1-0.6,0.1-0.6c0.1,0,0.1,0.3,0.1,0.6
						C617.2,350.7,617.1,350.9,617.1,350.9z"/>
				</g>
			</g>
			<g>
				<g>
					<path class="st7" d="M617,353.5c-0.1,0-0.1-0.3-0.1-0.6s0.1-0.6,0.1-0.6c0.1,0,0.1,0.3,0.1,0.6
						C617.2,353.2,617.1,353.5,617,353.5z"/>
				</g>
			</g>
			<g>
				<g>
					<path class="st7" d="M617,356c-0.1,0-0.1-0.3-0.1-0.6c0-0.3,0.1-0.6,0.1-0.6c0.1,0,0.1,0.3,0.1,0.6
						C617.1,355.7,617,356,617,356z"/>
				</g>
			</g>
			<g>
				<g>
					<path class="st7" d="M616.9,358.5c-0.1,0-0.1-0.3-0.1-0.6s0.1-0.6,0.1-0.6c0.1,0,0.1,0.3,0.1,0.6
						C617,358.2,617,358.5,616.9,358.5z"/>
				</g>
			</g>
			<g>
				<g>
					<path class="st7" d="M616.8,361c-0.1,0-0.1-0.3-0.1-0.6c0-0.3,0.1-0.6,0.1-0.6c0.1,0,0.1,0.3,0.1,0.6
						C617,360.7,616.9,361,616.8,361z"/>
				</g>
			</g>
			<g>
				<g>
					<path class="st7" d="M616.8,363.6c-0.1,0-0.1-0.3-0.1-0.6c0-0.3,0.1-0.6,0.1-0.6c0.1,0,0.1,0.3,0.1,0.6
						C616.9,363.3,616.9,363.6,616.8,363.6z"/>
				</g>
			</g>
			<g>
				<g>
					<path class="st7" d="M616.7,366.1c-0.1,0-0.1-0.3-0.1-0.6c0-0.3,0.1-0.6,0.1-0.6c0.1,0,0.1,0.3,0.1,0.6
						C616.9,365.8,616.8,366.1,616.7,366.1z"/>
				</g>
			</g>
			<g>
				<g>
					<path class="st7" d="M616.7,368.6c-0.1,0-0.1-0.3-0.1-0.6c0-0.3,0.1-0.6,0.1-0.6c0.1,0,0.1,0.3,0.1,0.6
						S616.8,368.6,616.7,368.6z"/>
				</g>
			</g>
			<g>
				<g>
					<path class="st7" d="M616.6,371.1c-0.1,0-0.1-0.3-0.1-0.6c0-0.3,0.1-0.6,0.1-0.6c0.1,0,0.1,0.3,0.1,0.6
						C616.8,370.8,616.7,371.1,616.6,371.1z"/>
				</g>
			</g>
			<g>
				<g>
					<path class="st7" d="M616.6,373.7c-0.1,0-0.1-0.3-0.1-0.6s0.1-0.6,0.1-0.6c0.1,0,0.1,0.3,0.1,0.6
						C616.7,373.4,616.7,373.7,616.6,373.7z"/>
				</g>
			</g>
			<g>
				<g>
					<path class="st7" d="M616.5,376.2c-0.1,0-0.1-0.3-0.1-0.6c0-0.3,0.1-0.6,0.1-0.6c0.1,0,0.1,0.3,0.1,0.6
						C616.7,375.9,616.6,376.2,616.5,376.2z"/>
				</g>
			</g>
			<g>
				<g>
					<path class="st7" d="M616.5,378.7c-0.1,0-0.1-0.3-0.1-0.6c0-0.3,0.1-0.6,0.1-0.6c0.1,0,0.1,0.3,0.1,0.6
						C616.6,378.4,616.6,378.7,616.5,378.7z"/>
				</g>
			</g>
			<g>
				<g>
					<path class="st7" d="M616.4,381.2c-0.1,0-0.1-0.3-0.1-0.6c0-0.3,0.1-0.6,0.1-0.6s0.1,0.3,0.1,0.6
						C616.6,380.9,616.5,381.2,616.4,381.2z"/>
				</g>
			</g>
			<g>
				<g>
					<path class="st7" d="M616.4,383.8c-0.1,0-0.1-0.3-0.1-0.6c0-0.3,0.1-0.6,0.1-0.6c0.1,0,0.1,0.3,0.1,0.6
						C616.5,383.5,616.5,383.8,616.4,383.8z"/>
				</g>
			</g>
			<g>
				<g>
					<path class="st7" d="M616.3,386.3c-0.1,0-0.1-0.3-0.1-0.6c0-0.3,0.1-0.6,0.1-0.6s0.1,0.3,0.1,0.6
						C616.5,386,616.4,386.3,616.3,386.3z"/>
				</g>
			</g>
			<g>
				<g>
					<path class="st7" d="M616.3,388.8c-0.1,0-0.1-0.3-0.1-0.6c0-0.3,0.1-0.6,0.1-0.6c0.1,0,0.1,0.3,0.1,0.6
						C616.4,388.5,616.4,388.8,616.3,388.8z"/>
				</g>
			</g>
			<g>
				<g>
					<path class="st7" d="M616.2,391.3c-0.1,0-0.1-0.3-0.1-0.6c0-0.3,0.1-0.6,0.1-0.6c0.1,0,0.1,0.3,0.1,0.6
						C616.4,391.1,616.3,391.3,616.2,391.3z"/>
				</g>
			</g>
			<g>
				<g>
					<path class="st7" d="M616.2,393.9c-0.1,0-0.1-0.3-0.1-0.6s0.1-0.6,0.1-0.6c0.1,0,0.1,0.3,0.1,0.6
						C616.3,393.6,616.3,393.9,616.2,393.9z"/>
				</g>
			</g>
			<g>
				<g>
					<path class="st7" d="M616.2,396.4c-0.1,0-0.1-0.3-0.1-0.6c0-0.3,0.1-0.6,0.1-0.6c0.1,0,0.1,0.3,0.1,0.6
						C616.3,396.1,616.2,396.4,616.2,396.4z"/>
				</g>
			</g>
			<g>
				<g>
					<path class="st7" d="M616.1,398.9c-0.1,0-0.1-0.3-0.1-0.6c0-0.3,0.1-0.6,0.1-0.6c0.1,0,0.1,0.3,0.1,0.6
						C616.2,398.6,616.2,398.9,616.1,398.9z"/>
				</g>
			</g>
			<g>
				<g>
					<path class="st7" d="M616.1,401.4c-0.1,0-0.1-0.3-0.1-0.6c0-0.3,0.1-0.6,0.1-0.6c0.1,0,0.1,0.3,0.1,0.6
						C616.2,401.2,616.1,401.4,616.1,401.4z"/>
				</g>
			</g>
			<g>
				<g>
					<path class="st7" d="M616,404c-0.1,0-0.1-0.3-0.1-0.6c0-0.3,0.1-0.6,0.1-0.6c0.1,0,0.1,0.3,0.1,0.6
						C616.2,403.7,616.1,404,616,404z"/>
				</g>
			</g>
			<g>
				<g>
					<path class="st7" d="M616,406.5c-0.1,0-0.1-0.3-0.1-0.6s0.1-0.6,0.1-0.6c0.1,0,0.1,0.3,0.1,0.6
						C616.1,406.2,616,406.5,616,406.5z"/>
				</g>
			</g>
			<g>
				<g>
					<path class="st7" d="M615.9,409c-0.1,0-0.1-0.3-0.1-0.6s0.1-0.6,0.1-0.6c0.1,0,0.1,0.3,0.1,0.6C616.1,408.7,616,409,615.9,409z
						"/>
				</g>
			</g>
			<g>
				<g>
					<path class="st7" d="M615.9,411.5c-0.1,0-0.1-0.3-0.1-0.6c0-0.3,0.1-0.6,0.1-0.6c0.1,0,0.1,0.3,0.1,0.6
						C616,411.3,615.9,411.5,615.9,411.5z"/>
				</g>
			</g>
			<g>
				<g>
					<path class="st7" d="M615.8,414.1c-0.1,0-0.1-0.3-0.1-0.6c0-0.3,0.1-0.6,0.1-0.6c0.1,0,0.1,0.3,0.1,0.6
						C616,413.8,615.9,414.1,615.8,414.1z"/>
				</g>
			</g>
			<g>
				<g>
					<path class="st7" d="M615.8,416.6c-0.1,0-0.1-0.3-0.1-0.6c0-0.3,0.1-0.6,0.1-0.6c0.1,0,0.1,0.3,0.1,0.6
						C615.9,416.3,615.8,416.6,615.8,416.6z"/>
				</g>
			</g>
			<g>
				<g>
					<path class="st7" d="M615.7,419.1c-0.1,0-0.1-0.3-0.1-0.6c0-0.3,0.1-0.6,0.1-0.6c0.1,0,0.1,0.3,0.1,0.6
						C615.9,418.8,615.8,419.1,615.7,419.1z"/>
				</g>
			</g>
			<g>
				<g>
					<path class="st7" d="M615.7,421.6c-0.1,0-0.1-0.3-0.1-0.6s0.1-0.6,0.1-0.6c0.1,0,0.1,0.3,0.1,0.6
						C615.8,421.4,615.8,421.6,615.7,421.6z"/>
				</g>
			</g>
			<g>
				<g>
					<path class="st7" d="M615.6,424.2c-0.1,0-0.1-0.3-0.1-0.6c0-0.3,0.1-0.6,0.1-0.6c0.1,0,0.1,0.3,0.1,0.6
						C615.8,423.9,615.7,424.2,615.6,424.2z"/>
				</g>
			</g>
			<g>
				<g>
					<path class="st7" d="M615.6,426.7c-0.1,0-0.1-0.3-0.1-0.6c0-0.3,0.1-0.6,0.1-0.6s0.1,0.3,0.1,0.6
						C615.7,426.4,615.7,426.7,615.6,426.7z"/>
				</g>
			</g>
			<g>
				<g>
					<path class="st7" d="M615.5,429.2c-0.1,0-0.1-0.3-0.1-0.6c0-0.3,0.1-0.6,0.1-0.6c0.1,0,0.1,0.3,0.1,0.6
						C615.7,428.9,615.6,429.2,615.5,429.2z"/>
				</g>
			</g>
			<g>
				<g>
					<path class="st7" d="M615.5,431.7c-0.1,0-0.1-0.3-0.1-0.6c0-0.3,0.1-0.6,0.1-0.6c0.1,0,0.1,0.3,0.1,0.6
						C615.6,431.5,615.6,431.7,615.5,431.7z"/>
				</g>
			</g>
			<g>
				<g>
					<path class="st7" d="M615.4,434.3c-0.1,0-0.1-0.3-0.1-0.6c0-0.3,0.1-0.6,0.1-0.6c0.1,0,0.1,0.3,0.1,0.6
						C615.6,434,615.5,434.3,615.4,434.3z"/>
				</g>
			</g>
			<g>
				<g>
					<path class="st7" d="M615.4,436.8c-0.1,0-0.1-0.3-0.1-0.6c0-0.3,0.1-0.6,0.1-0.6c0.1,0,0.1,0.3,0.1,0.6
						C615.5,436.5,615.5,436.8,615.4,436.8z"/>
				</g>
			</g>
			<g>
				<g>
					<path class="st7" d="M615.3,439.3c-0.1,0-0.1-0.3-0.1-0.6c0-0.3,0.1-0.6,0.1-0.6c0.1,0,0.1,0.3,0.1,0.6
						C615.5,439,615.4,439.3,615.3,439.3z"/>
				</g>
			</g>
			<g>
				<g>
					<path class="st7" d="M615.3,441.8c-0.1,0-0.1-0.3-0.1-0.6c0-0.3,0.1-0.6,0.1-0.6c0.1,0,0.1,0.3,0.1,0.6
						C615.4,441.6,615.4,441.8,615.3,441.8z"/>
				</g>
			</g>
			<g>
				<g>
					<path class="st7" d="M615.2,444.4c-0.1,0-0.1-0.3-0.1-0.6c0-0.3,0.1-0.6,0.1-0.6c0.1,0,0.1,0.3,0.1,0.6
						C615.4,444.1,615.3,444.4,615.2,444.4z"/>
				</g>
			</g>
			<g>
				<g>
					<path class="st7" d="M615.2,446.9c-0.1,0-0.1-0.3-0.1-0.6c0-0.3,0.1-0.6,0.1-0.6c0.1,0,0.1,0.3,0.1,0.6
						C615.3,446.6,615.3,446.9,615.2,446.9z"/>
				</g>
			</g>
			<g>
				<g>
					<path class="st7" d="M615.1,449.4c-0.1,0-0.1-0.3-0.1-0.6c0-0.3,0.1-0.6,0.1-0.6c0.1,0,0.1,0.3,0.1,0.6
						C615.3,449.1,615.2,449.4,615.1,449.4z"/>
				</g>
			</g>
			<g>
				<g>
					<path class="st7" d="M615.1,451.9c-0.1,0-0.1-0.3-0.1-0.6c0-0.3,0.1-0.6,0.1-0.6c0.1,0,0.1,0.3,0.1,0.6
						C615.2,451.7,615.2,451.9,615.1,451.9z"/>
				</g>
			</g>
			<g>
				<g>
					<path class="st7" d="M615,454.4c-0.1,0-0.1-0.3-0.1-0.6c0-0.3,0.1-0.6,0.1-0.6c0.1,0,0.1,0.3,0.1,0.6
						C615.2,454.2,615.1,454.5,615,454.4z"/>
				</g>
			</g>
			<g>
				<g>
					<path class="st7" d="M615,457c-0.1,0-0.1-0.3-0.1-0.6s0.1-0.6,0.1-0.6c0.1,0,0.1,0.3,0.1,0.6C615.1,456.7,615,457,615,457z"/>
				</g>
			</g>
			<g>
				<g>
					<path class="st7" d="M614.9,459.5c-0.1,0-0.1-0.3-0.1-0.6c0-0.3,0.1-0.6,0.1-0.6c0.1,0,0.1,0.3,0.1,0.6
						C615.1,459.2,615,459.5,614.9,459.5z"/>
				</g>
			</g>
			<g>
				<g>
					<path class="st7" d="M614.9,462c-0.1,0-0.1-0.3-0.1-0.6c0-0.3,0.1-0.6,0.1-0.6c0.1,0,0.1,0.3,0.1,0.6
						C615,461.7,614.9,462,614.9,462z"/>
				</g>
			</g>
			<g>
				<g>
					<path class="st7" d="M614.8,464.5c-0.1,0-0.1-0.3-0.1-0.6c0-0.3,0.1-0.6,0.1-0.6c0.1,0,0.1,0.3,0.1,0.6
						C614.9,464.3,614.9,464.5,614.8,464.5z"/>
				</g>
			</g>
			<g>
				<g>
					<path class="st7" d="M614.7,467.1c-0.1,0-0.1-0.3-0.1-0.6c0-0.3,0.1-0.6,0.1-0.6c0.1,0,0.1,0.3,0.1,0.6
						C614.9,466.8,614.8,467.1,614.7,467.1z"/>
				</g>
			</g>
			<g>
				<g>
					<path class="st7" d="M614.7,469.6c-0.1,0-0.1-0.3-0.1-0.6c0-0.3,0.1-0.6,0.1-0.6c0.1,0,0.1,0.3,0.1,0.6
						C614.8,469.3,614.8,469.6,614.7,469.6z"/>
				</g>
			</g>
			<g>
				<g>
					<path class="st7" d="M614.6,472.1c-0.1,0-0.1-0.3-0.1-0.6c0-0.3,0.1-0.6,0.1-0.6c0.1,0,0.1,0.3,0.1,0.6
						C614.8,471.8,614.7,472.1,614.6,472.1z"/>
				</g>
			</g>
			<g>
				<g>
					<path class="st7" d="M614.6,474.6c-0.1,0-0.1-0.3-0.1-0.6c0-0.3,0.1-0.6,0.1-0.6c0.1,0,0.1,0.3,0.1,0.6
						C614.7,474.3,614.6,474.6,614.6,474.6z"/>
				</g>
			</g>
			<g>
				<g>
					<path class="st7" d="M614.5,477.1c-0.1,0-0.1-0.3-0.1-0.6c0-0.3,0.1-0.6,0.1-0.6s0.1,0.3,0.1,0.6
						C614.6,476.9,614.6,477.1,614.5,477.1z"/>
				</g>
			</g>
			<g>
				<g>
					<path class="st7" d="M614.4,479.6c-0.1,0-0.1-0.3-0.1-0.6c0-0.3,0.1-0.6,0.1-0.6s0.1,0.3,0.1,0.6
						C614.6,479.4,614.5,479.6,614.4,479.6z"/>
				</g>
			</g>
			<g>
				<g>
					<path class="st7" d="M614.4,482c-0.1,0-0.1-0.3-0.1-0.6c0-0.3,0.1-0.6,0.1-0.6c0.1,0,0.1,0.3,0.1,0.6
						C614.5,481.8,614.4,482,614.4,482z"/>
				</g>
			</g>
		</g>
		<path class="st8" d="M612.3,193.1c-0.1-2.5-0.8-13.7-0.8-13.7s-7.9-0.5-8.7-8.2c-0.8-7.8-1.1-25.7-1.1-25.7l0,0
			c8.6-4.7,19.2-4.4,27.5,0.8l2,1.2l0.2,9.1l-0.4,8.2l-0.3,22.3L612.3,193.1C612.3,193.1,612.3,193.1,612.3,193.1z"/>
		<path class="st2" d="M602.8,157.9c0,0.6,0.5,1,1,1c0.6,0,1-0.5,1-1c0-0.6-0.5-1-1-1C603.2,156.9,602.8,157.3,602.8,157.9z"/>
		<path class="st2" d="M602.8,157.5c0.1,0.1,0.8-0.5,1.9-0.6c1.1-0.1,1.9,0.4,2,0.2c0.1-0.1-0.1-0.3-0.5-0.5
			c-0.4-0.2-0.9-0.4-1.6-0.3c-0.7,0.1-1.2,0.4-1.5,0.7C602.8,157.2,602.7,157.5,602.8,157.5z"/>
		<path class="st2" d="M615.1,156.6c-0.4,0.3-0.5,1-0.2,1.4c0.3,0.4,1,0.5,1.4,0.2c0.4-0.3,0.5-1,0.2-1.4
			C616.1,156.3,615.5,156.2,615.1,156.6z"/>
		<path class="st2" d="M614.7,157c0.1,0.1,0.8-0.5,1.9-0.6c1.1-0.1,1.9,0.4,2,0.2c0.1-0.1-0.1-0.3-0.5-0.5c-0.4-0.2-0.9-0.4-1.6-0.3
			s-1.2,0.4-1.5,0.7C614.7,156.7,614.6,156.9,614.7,157z"/>
		<path class="st2" d="M611.2,166.2c0,0.1-0.7,0.2-1.8,0.2c-0.2,0-0.7,0.1-1-0.4c-0.2-0.4,0-0.8,0-1.2c0.2-0.8,0.4-1.5,0.6-2.3
			c0.9-3.2,1.7-5.8,1.9-5.7c0.1,0-0.4,2.7-1.3,5.9c-0.2,0.8-0.4,1.5-0.6,2.3c-0.1,0.3-0.2,0.7-0.1,0.8c0,0.2,0.3,0.2,0.6,0.2
			C610.5,166.1,611.2,166.2,611.2,166.2z"/>
		<path class="st1" d="M614.8,167.1c1.1-0.8-2.9,1.9-5.1,2c0,0,1.4,1.9,3.6,0.9C615.5,168.9,614.8,167.1,614.8,167.1z"/>
		<path class="st9" d="M611.5,179.5c0,0,5.2-0.2,10.2-3.9c0,0-2.1,5.8-9.9,5.8L611.5,179.5z"/>
		<g>
			<path class="st2" d="M627,140.8c-2.3-1.7-4.5-3.5-7.2-4.5c-2.6-1-5.7-1.3-8.3-0.1c-1.2,0.6-2.2,1.4-3.4,1.9
				c-2.5,1-5.7,0.3-7.9,1.8c-2,1.5-2.5,4.6-1.3,6.8c1.2,2.2,3.6,3.5,6.1,3.9c2.5,0.3,5-0.3,7.4-1.1c1.4-0.5,2.9-1.1,4.3-0.5
				c1.3,0.5,2.2,1.9,3.6,2.1c1.2,0.1,2.7-0.8,3.5,0c0.4,0.3,0.5,0.9,0.6,1.4c0.5,2.7,2.1,8.1,2.5,10.8c1.8,0.8,2.6-1.6,4.5-1.6
				c0.3-5.9,2.9-11.9,1.4-17.6c-0.4-1.4-1-2.8-2.3-3.7c-1.2-0.8-3.1-0.7-4,0.4"/>
		</g>
		<g>
			<g>
				<path class="st8" d="M628.2,155.3c0.1-0.1,5.2-2,6.1,4.3c0.9,6.3-5.7,5.1-5.8,4.9C628.5,164.4,628.2,155.3,628.2,155.3z"/>
			</g>
			<g>
				<g>
					<path class="st9" d="M630.2,162.1c0,0,0.1,0.1,0.3,0.1s0.5,0.1,0.8-0.1c0.6-0.3,1-1.5,0.9-2.6c-0.1-0.6-0.3-1.1-0.5-1.5
						c-0.3-0.4-0.6-0.7-0.9-0.7c-0.3,0-0.6,0.2-0.6,0.4c-0.1,0.2,0,0.3,0,0.3c0,0-0.1-0.1-0.1-0.3c0-0.1,0.1-0.3,0.2-0.4
						c0.1-0.1,0.3-0.2,0.6-0.2c0.5,0,1,0.3,1.3,0.8c0.3,0.5,0.6,1,0.6,1.7c0.1,1.3-0.3,2.5-1.2,2.9c-0.4,0.2-0.8,0.1-1,0
						C630.2,162.3,630.2,162.1,630.2,162.1z"/>
				</g>
			</g>
		</g>
		<g>
			<g>
				<path class="st2" d="M625.7,136.7c0.2,0,0.6,1,0.8,2.2c0.3,1.3,0.4,2.3,0.2,2.4c-0.2,0-0.6-1-0.8-2.2
					C625.6,137.7,625.5,136.7,625.7,136.7z"/>
			</g>
		</g>
		<g>
			<g>
				<path class="st2" d="M628.5,137c0.2,0.1-0.1,1.1-0.6,2.3c-0.5,1.2-1.1,2.1-1.2,2c-0.2-0.1,0.1-1.1,0.6-2.3
					C627.7,137.8,628.3,136.9,628.5,137z"/>
			</g>
		</g>
		<g>
			<path class="st8" d="M613.2,235.9c-0.8,2.5-1.4,4.1-2.2,5c-3.6,3.9-34.5-29.7-34.5-29.7c-0.2-1.2-0.5-5.4-0.2-6.5
				c0.3-1.4,0.8-3.2,1.3-4.2c0.7-1.1-0.3-2.6-1.5-2.1c-1.1,0.5-3.1,3.6-3.7,7.9c-0.5,4.3-5.1-1-6.4-3.1c-1.4-2.1-6.1-8.3-7.1-8.4
				c-1.4-0.1-1.6,1.6-0.2,3.7c1.4,2.1,5.5,8.1,4.9,8.5c-1,0.8-8.3-9.8-8.3-9.8s-1.1-2.2-2.5-1.5c-2.4,1.3,5.7,12.1,6.4,13.1
				c0.6,0.7-0.2,1-0.8,0.2c-0.6-0.8-7-9.9-8.7-8.8c-1.8,1.2,5.4,8.7,6.4,11c1.1,2.5-5.8-6.7-7.6-5.6c-0.7,0.4-1.1,0.8,3.1,5.7
				c2.6,3.1,8.9,8.9,13.3,12.8c8.8,10.4,39.1,45.2,53.3,43.2c3.1-0.4,6-1.9,7.8-4.9c4.1-6.7,7.2-12.1,9.7-18.6L613.2,235.9z"/>
		</g>
	</g>
	<g>
		<g>
			<g>
				<g>
					<g>
						<path class="st3" d="M279.1,489.4l-0.3-11.5l-21.6,0.4l0.2,16.9l1.3,0.1c6,0.2,30.4,0.7,34.4-0.6
							C297.5,493.2,279.1,489.4,279.1,489.4z"/>
					</g>
					<g>
						<path class="st2" d="M265.1,494.9c-0.3-1.8-1.4-3.5-2.8-4.6c-1.5-1.1-3.3-1.7-5.1-1.5l0.1,6H265.1z"/>
					</g>
				</g>
				<g>
					<path class="st2" d="M288.1,491.6c0,0,6.5,1.7,5.7,2.8s-25.5,1.5-36.4,0.7l0-0.5l28.8-0.2C286.2,494.4,286.8,491.7,288.1,491.6
						z"/>
				</g>
				<g>
					<g>
						<path class="st7" d="M257.1,494.7c0,0,0.1,0,0.4,0c0.3,0,0.7,0,1.1,0c1.1,0,2.4,0,3.9,0c3.3,0,7.9,0,13-0.1
							c5.1-0.1,9.7-0.2,13-0.4c1.6-0.1,2.9-0.1,3.9-0.1c0.4,0,0.7,0,1.1,0c0.2,0,0.4,0,0.4,0c0,0-0.1,0-0.4,0
							c-0.3,0-0.7,0.1-1.1,0.1c-1.1,0.1-2.4,0.1-3.9,0.2c-3.3,0.2-7.9,0.3-13,0.4c-5.1,0.1-9.7,0.1-13,0c-1.6,0-2.9-0.1-3.9-0.1
							c-0.4,0-0.7,0-1.1,0C257.2,494.7,257.1,494.7,257.1,494.7z"/>
					</g>
				</g>
				<g>
					<g>
						<path class="st7" d="M286.2,494.8c-0.1,0-0.1-1,0.5-2c0.6-1,1.5-1.5,1.5-1.4c0,0.1-0.8,0.6-1.3,1.5
							C286.3,493.8,286.3,494.8,286.2,494.8z"/>
					</g>
				</g>
				<g>
					<g>
						<path class="st7" d="M279.8,491.6c-0.1,0,0.1-0.5,0.4-1c0.3-0.5,0.6-0.9,0.7-0.8c0.1,0-0.1,0.5-0.4,1
							C280.1,491.3,279.8,491.7,279.8,491.6z"/>
					</g>
				</g>
				<g>
					<g>
						<path class="st7" d="M278,490.7c0-0.1,0.2-0.4,0.6-0.7c0.4-0.3,0.7-0.6,0.8-0.5c0,0.1-0.2,0.4-0.6,0.7S278.1,490.8,278,490.7z
							"/>
					</g>
				</g>
				<g>
					<g>
						<path class="st7" d="M276.9,488.7c0-0.1,0.5-0.1,1.1-0.1c0.6,0,1.1,0.1,1.1,0.1c0,0.1-0.5,0.1-1.1,0.1
							C277.4,488.8,276.9,488.8,276.9,488.7z"/>
					</g>
				</g>
				<g>
					<g>
						<path class="st7" d="M276.5,487.3c0-0.1,0.6,0,1.3,0.1c0.7,0,1.3,0,1.3,0.1c0,0.1-0.6,0.2-1.3,0.2
							C277,487.6,276.4,487.3,276.5,487.3z"/>
					</g>
				</g>
				<g>
					<g>
						<path class="st7" d="M280.5,489.7c0,0,0.5-0.1,1.4-0.2c0.4-0.1,0.9-0.2,1.4-0.4c0.3-0.1,0.6-0.2,0.8-0.3
							c0.2-0.1,0.3-0.4,0.1-0.6c-0.5-0.3-1.2-0.2-1.7-0.1c-0.5,0.2-0.9,0.5-1.2,0.8c-0.5,0.6-0.6,1.2-0.6,1.2c0,0,0-0.1,0-0.4
							c0.1-0.2,0.2-0.6,0.4-0.9c0.5-0.7,1.8-1.5,3.1-0.8c0.2,0.1,0.3,0.3,0.2,0.6c0,0.2-0.2,0.3-0.3,0.4c-0.3,0.2-0.6,0.3-0.8,0.4
							c-0.5,0.2-1,0.3-1.5,0.3C281,489.8,280.5,489.8,280.5,489.7z"/>
					</g>
				</g>
				<g>
					<g>
						<path class="st7" d="M280.8,489.8c0,0,0.1-0.4,0-0.9c-0.1-0.3-0.2-0.6-0.4-0.9c-0.2-0.3-0.6-0.6-0.9-0.6
							c-0.3,0.1-0.2,0.6,0,0.9c0.2,0.3,0.4,0.6,0.6,0.8c0.4,0.4,0.7,0.6,0.7,0.7c0,0-0.4-0.1-0.8-0.6c-0.2-0.2-0.5-0.5-0.7-0.8
							c-0.1-0.2-0.2-0.4-0.2-0.6c-0.1-0.2,0.1-0.6,0.4-0.7c0.6,0,0.9,0.4,1.2,0.7c0.2,0.3,0.4,0.7,0.4,1
							C281.1,489.4,280.9,489.8,280.8,489.8z"/>
					</g>
				</g>
				<g>
					<g>
						<path class="st7" d="M257.4,488.7c0,0,0.1-0.1,0.4-0.1c0.3,0,0.7-0.1,1.2-0.1c1,0,2.4,0.4,3.7,1.4c1.2,1,1.9,2.2,2.2,3.2
							c0.2,0.5,0.2,0.9,0.3,1.2c0,0.3,0,0.4,0,0.4c0,0-0.1-0.6-0.4-1.5c-0.3-0.9-1-2.1-2.2-3c-1.2-0.9-2.5-1.3-3.5-1.4
							C258,488.7,257.4,488.8,257.4,488.7z"/>
					</g>
				</g>
				<g>
					<g>
						<path class="st7" d="M259.5,479.7c0.1,0,0.1,2,0.1,4.4c0,2.5,0,4.5-0.1,4.5c-0.1,0-0.1-2-0.1-4.5
							C259.4,481.7,259.4,479.7,259.5,479.7z"/>
					</g>
				</g>
				<g>
					<g>
						<path class="st7" d="M267.9,492.7c0-0.1,1.4,0,3.2,0c1.7,0,3.2-0.1,3.2,0c0,0.1-1.4,0.3-3.2,0.3
							C269.3,493,267.9,492.8,267.9,492.7z"/>
					</g>
				</g>
				<g>
					<g>
						<path class="st7" d="M263.7,492.8c0-0.1,0.3,0.1,0.5,0.5c0.2,0.4,0.1,0.7,0.1,0.7c-0.1,0-0.2-0.3-0.3-0.6
							C263.8,493.1,263.6,492.8,263.7,492.8z"/>
					</g>
				</g>
				<g>
					<g>
						<path class="st7" d="M262,490.8c0.1-0.1,0.3,0.1,0.5,0.3c0.2,0.2,0.4,0.4,0.3,0.5c-0.1,0.1-0.3-0.1-0.5-0.3
							S262,490.8,262,490.8z"/>
					</g>
				</g>
				<g>
					<g>
						<path class="st7" d="M259.7,489.9c0-0.1,0.3-0.2,0.7-0.1c0.4,0.1,0.6,0.4,0.5,0.5c-0.1,0-0.3-0.1-0.6-0.2
							C260,490,259.7,490,259.7,489.9z"/>
					</g>
				</g>
				<g>
					<g>
						<path class="st7" d="M258.1,489.5c0-0.1,0.2-0.1,0.4,0c0.2,0.1,0.3,0.2,0.3,0.2c0,0.1-0.2,0.1-0.4,0
							C258.2,489.7,258.1,489.6,258.1,489.5z"/>
					</g>
				</g>
			</g>
		</g>
		<g>
			<g>
				<path class="st8" d="M354.8,165.4c0,0,18.5-19.1,20.1-18.2c1.7,0.9-6.8,8.6-5.7,9.6c1.1,1,10,7.8-4.3,18.5L354.8,165.4z"/>
			</g>
			<g>
				<g>
					<path class="st9" d="M370.7,159.9c0,0-0.1,0.2-0.3,0.6c-0.3,0.5-0.6,1-0.9,1.5c-0.4,0.7-0.9,1.4-1.4,2.2
						c-0.3,0.4-0.6,0.8-1.1,1.1c-0.5,0.3-1.2,0.3-1.7-0.2c-0.4-0.6-0.1-1.2,0.1-1.7c0.3-0.5,0.6-0.9,0.8-1.3c0.5-0.7,1-1.5,1.4-2.1
						c0.3-0.5,0.7-1,1-1.4c0.2-0.3,0.4-0.5,0.4-0.5c0,0-0.1,0.2-0.3,0.6c-0.3,0.5-0.6,1-0.9,1.5c-0.4,0.7-0.9,1.4-1.4,2.2
						c-0.3,0.4-0.5,0.8-0.8,1.3c-0.2,0.4-0.4,1-0.1,1.4c0.3,0.4,0.9,0.4,1.3,0.2c0.4-0.2,0.7-0.6,1-1c0.5-0.7,1-1.5,1.4-2.1
						c0.3-0.5,0.7-1,1-1.4C370.6,160,370.7,159.8,370.7,159.9z"/>
				</g>
			</g>
			<g>
				<g>
					<path class="st9" d="M371.7,161.9c0,0,0,0.2-0.1,0.5c-0.1,0.3-0.2,0.8-0.5,1.4c-0.3,0.6-0.6,1.2-1.2,1.9
						c-0.3,0.3-0.6,0.7-1,0.9c-0.4,0.2-1.1,0.3-1.4-0.1c-0.4-0.4-0.4-1-0.2-1.5c0.2-0.5,0.5-0.8,0.7-1.1c0.5-0.7,0.9-1.3,1.2-1.8
						c0.3-0.5,0.6-1,0.8-1.2c0.2-0.3,0.3-0.4,0.3-0.4c0,0-0.1,0.2-0.3,0.5c-0.2,0.4-0.5,0.9-0.7,1.3c-0.3,0.5-0.7,1.2-1.1,1.9
						c-0.2,0.3-0.5,0.7-0.7,1.1c-0.2,0.4-0.1,0.9,0.1,1.2c0.3,0.3,0.8,0.3,1.1,0.1c0.4-0.2,0.7-0.5,0.9-0.8c0.5-0.6,0.9-1.2,1.2-1.8
						C371.5,162.7,371.6,161.9,371.7,161.9z"/>
				</g>
			</g>
			<g>
				<g>
					<path class="st8" d="M360.6,161.5c2.3-0.2,4.5-0.3,6.8-0.5c0.1,0,0.3,0,0.4,0c0.4,0.1,0.4,0.6,0.3,1c-0.3,1.1-1.3,2-2.4,2.5
						c-1.1,0.4-2.3,0.5-3.5,0.6c-1.1,0.1-2.2,0.1-3.2,0.2"/>
				</g>
				<g>
					<g>
						<path class="st9" d="M358.9,165.3c0,0,0.3-0.1,0.7-0.1c0.6-0.1,1.3-0.1,2-0.2c0.8-0.1,1.8-0.1,2.9-0.3
							c1.1-0.2,2.2-0.8,2.9-1.8c0.3-0.5,0.6-1.2,0.3-1.6c-0.1-0.2-0.4-0.1-0.7-0.1c-0.3,0-0.6,0-0.9,0.1c-1,0.1-2,0.1-3,0.2
							c-0.7,0-1.4,0.1-2,0.1c-0.5,0-0.7,0-0.7,0s0.3-0.1,0.7-0.1c0.6-0.1,1.3-0.1,2-0.2c0.9-0.1,1.9-0.1,3-0.2c0.3,0,0.6,0,0.9-0.1
							c0.1,0,0.3,0,0.5,0c0.2,0,0.4,0.1,0.5,0.2c0.2,0.3,0.2,0.7,0.1,1c-0.1,0.3-0.2,0.6-0.4,0.9c-0.7,1.1-2,1.7-3.1,1.9
							c-1.1,0.2-2.1,0.2-3,0.3c-0.7,0-1.4,0.1-2,0.1C359.2,165.3,359,165.3,358.9,165.3z"/>
					</g>
				</g>
			</g>
			<g>
				<g>
					<path class="st9" d="M372.8,163.8c0,0-0.1,0.1-0.2,0.4c-0.1,0.3-0.2,0.6-0.3,1.1c-0.1,0.5-0.3,1.1-0.6,1.7
						c-0.2,0.3-0.4,0.6-0.8,0.8c-0.2,0.1-0.4,0.2-0.6,0.1c-0.2,0-0.4-0.2-0.5-0.4c-0.3-0.4-0.2-0.8-0.1-1.2c0.1-0.4,0.3-0.7,0.4-1
						c0.2-0.5,0.5-1,0.7-1.6c0.4-0.9,0.7-1.5,0.7-1.4c0,0-0.2,0.6-0.6,1.5c-0.2,0.6-0.5,1.1-0.7,1.6c-0.2,0.6-0.7,1.3-0.3,1.9
						c0.2,0.3,0.5,0.3,0.8,0.1c0.3-0.2,0.5-0.4,0.7-0.7c0.3-0.5,0.5-1.1,0.7-1.6C372.4,164.3,372.8,163.8,372.8,163.8z"/>
				</g>
			</g>
			<g>
				<g>
					<path class="st9" d="M364.3,170.7c-0.1,0,0.3-1.3,0.4-2.9c0.1-1.6-0.1-2.9,0-2.9c0.1,0,0.4,1.3,0.3,2.9
						C364.8,169.4,364.3,170.7,364.3,170.7z"/>
				</g>
			</g>
		</g>
		<g>
			<g>
				<path class="st2" d="M276.5,159c0,4.9,2.7,9.7,6.8,12.2c1.1,0.7,2.4,1.2,3.4,2c1,0.8,1.9,2,1.8,3.3c-0.1,2.1-2.2,3.4-4,4.3
					c2,1.9,2,5.5,0,7.4c-2,1.9-5.6,1.7-7.4-0.3c-0.1,3.9-3.2,7.3-6.9,8.3s-7.8,0-11-2.2c-3.1-2.2-5.4-5.5-7-9.1"/>
			</g>
			<g>
				<path class="st8" d="M267.1,195c-0.3-1.9,0.5-10.1,0.5-10.1s7.5-0.8,7.9-8.2c0.5-7.4,0-24.5,0-24.5l-13.6-6.6l-15,11.3l2.3,37
					L267.1,195z"/>
			</g>
			<g>
				<g>
					<path class="st2" d="M274,164.7c0,0.5-0.4,0.9-0.9,0.9c-0.5,0-0.9-0.4-0.9-0.9s0.4-0.9,0.9-0.9
						C273.6,163.7,274,164.1,274,164.7z"/>
				</g>
				<g>
					<g>
						<path class="st2" d="M274.9,163.6c-0.1,0.1-0.8-0.5-1.8-0.5c-1-0.1-1.8,0.4-1.9,0.3c-0.1-0.1,0.1-0.3,0.4-0.5
							c0.3-0.2,0.9-0.4,1.5-0.4c0.6,0,1.2,0.3,1.5,0.6C274.9,163.3,275,163.6,274.9,163.6z"/>
					</g>
				</g>
			</g>
			<g>
				<g>
					<path class="st2" d="M263,164.7c0,0.5-0.4,0.9-0.9,0.9c-0.5,0-0.9-0.4-0.9-0.9s0.4-0.9,0.9-0.9
						C262.6,163.7,263,164.1,263,164.7z"/>
				</g>
				<g>
					<g>
						<path class="st2" d="M263.6,163.6c-0.1,0.1-0.8-0.5-1.8-0.5c-1-0.1-1.8,0.4-1.9,0.3c-0.1-0.1,0.1-0.3,0.4-0.5
							c0.3-0.2,0.9-0.4,1.5-0.4c0.6,0,1.2,0.3,1.5,0.6C263.6,163.3,263.7,163.6,263.6,163.6z"/>
					</g>
				</g>
			</g>
			<g>
				<g>
					<path class="st2" d="M267.3,172.2c0-0.1,0.6-0.1,1.7-0.2c0.3,0,0.5,0,0.6-0.2c0.1-0.2,0-0.5-0.1-0.8c-0.2-0.7-0.5-1.4-0.7-2.1
						c-0.5-1.5-0.9-2.9-1.2-3.8c-0.3-1-0.4-1.6-0.4-1.6c0.1,0,0.3,0.6,0.6,1.5c0.3,1,0.8,2.3,1.3,3.8c0.2,0.7,0.5,1.4,0.7,2.1
						c0.1,0.3,0.2,0.7,0.1,1.1c-0.2,0.4-0.7,0.4-0.9,0.4C267.9,172.3,267.3,172.2,267.3,172.2z"/>
				</g>
			</g>
			<g>
				<path class="st1" d="M263.9,173.2c-1-0.7,2.9,1.7,4.9,1.7c0,0-1.3,1.8-3.4,1C263.3,175,263.9,173.2,263.9,173.2z"/>
			</g>
			<g>
				<path class="st9" d="M267.6,184.9c0,0-5,0.1-9.8-3.3c0,0,2.2,5.4,9.7,5.1L267.6,184.9z"/>
			</g>
			<g>
				<path class="st2" d="M272.4,146.8c-7.3-7.6-12.4-6-15.3-6c-2,0-10.4,1.7-16,9.3v0c-2.1,2.1-5,9.1-5.3,11.5
					c-0.3,2.5,0.1,4.9,0.1,7.4c0,2.5-0.6,5.1-2.4,6.8c-1.2,1-2.8,1.6-3.5,3c-0.8,1.6,0.1,3.7,1.6,4.7c1.5,1,3.5,1.2,5.3,1.1
					c-0.4,3.7,2.4,7.4,6,8c1.9,0.3,3.8-0.3,5.3-1.4c1.2,1.2,2.5,2.3,3.9,3.4c0.3-10.8,0.1-21.6-0.7-32.3c4.9-0.9,13.8-3.5,15.4-11.5
					c2,4.5,5,7,9,10.4C275.7,161.1,279.7,154.4,272.4,146.8z"/>
			</g>
			<g>
				<g>
					<path class="st2" d="M251.9,159.3c0-0.1,1.2-0.1,3,0c1.8,0.1,4.5,0.3,7-0.8c1.3-0.5,2.3-1.4,2.9-2.4c0.7-1,1-2,1.2-2.9
						c0.3-1.8,0.2-3,0.3-3c0.1,0,0.4,1.1,0.2,3c-0.1,0.9-0.4,2.1-1.1,3.2c-0.7,1.1-1.8,2.1-3.2,2.6c-2.8,1.2-5.5,0.9-7.3,0.7
						C253.1,159.6,251.9,159.4,251.9,159.3z"/>
				</g>
			</g>
			<g>
				<g>
					<path class="st2" d="M232.7,177.5c0-0.1,0.5,0.1,1.2-0.2c0.7-0.3,1.7-1,2-2.4c0.3-1.4-0.1-3.1-0.9-4.8c-0.4-0.9-0.8-1.8-1-2.9
						c-0.2-1.1-0.3-2.2-0.2-3.3c0.2-2.3,1.1-4.3,2.2-6c1.1-1.6,2.3-2.9,3.3-3.9c1.1-1,2-1.8,2.6-2.3c0.6-0.5,1-0.8,1-0.7
						c0.1,0.1-1.3,1.3-3.3,3.4c-1,1-2.2,2.3-3.2,3.9c-1,1.6-1.8,3.6-2.1,5.7c-0.1,1.1,0,2.1,0.2,3.1c0.2,1,0.6,1.9,1,2.8
						c0.7,1.8,1.2,3.6,0.8,5.1c-0.4,1.5-1.6,2.3-2.4,2.5c-0.4,0.1-0.8,0.1-1,0C232.8,177.5,232.7,177.5,232.7,177.5z"/>
				</g>
			</g>
			<g>
				<g>
					<path class="st2" d="M286.5,166.9c0,0,0.2,0.3,0.2,0.9c0,0.6-0.3,1.5-1.3,2.2c-0.9,0.6-2.4,0.7-3.7,0c-1.3-0.6-2.3-1.9-3.1-3.3
						c-1.6-2.8-2.3-5.6-2.6-7.7c-0.3-2.1-0.1-3.3,0-3.3c0.1,0,0.1,1.3,0.5,3.3c0.4,2,1.1,4.7,2.7,7.4c0.8,1.3,1.7,2.5,2.8,3.1
						c1.1,0.6,2.4,0.6,3.2,0.1c0.8-0.5,1.2-1.3,1.3-1.8C286.5,167.2,286.4,166.9,286.5,166.9z"/>
				</g>
			</g>
		</g>
		<g>
			<g>
				<path class="st10" d="M265.7,481.6"/>
			</g>
		</g>
		<g>
			<path class="st2" d="M275,283.4c0,0,25.2,81.9,23.6,108.4c-1.6,26.5-20.1,92.2-20.1,92.2L275,283.4z"/>
		</g>
		<g>
			<path class="st2" d="M239.4,269.4c-0.6-0.2-11.6,16.1-12,30.1c0,1.3,0,2.7,0.2,4.1c0.4,4.9,1.7,9.7,3.5,14.3
				c9.4,23.6,19,51.7,19.2,58c0.5,19.7,4.3,110.1,4.3,110.1l27.2-1.9l-0.9-108.2l-6.6-107.4L239.4,269.4z"/>
		</g>
		<g>
			<g>
				<path class="st7" d="M254.2,269c0.2,0,0.2,3,0.2,8.5c0.1,5.5-0.3,13.4,0.1,23.2c0.1,2.4,0.2,5,0.4,7.7c0.2,2.7,0.4,5.4,0.7,8.3
					c0.6,5.7,1.4,11.8,2.4,18.3s2.2,13.1,3.2,20.1c1,7,1.8,14.3,2.2,21.8c0.5,7.5,0.3,14.8,0.5,21.9c0.1,7.1,0.3,13.9,0.5,20.4
					c0.4,13,0.8,24.7,1.2,34.5c0.4,9.8,0.7,17.7,0.9,23.2c0.1,2.7,0.1,4.8,0.2,6.3c0,1.4,0,2.2,0,2.2c-0.1-1.8-0.5-12.5-1.3-31.7
					c-0.4-9.8-0.9-21.5-1.3-34.5c-0.2-6.5-0.4-13.3-0.5-20.4c-0.1-7.1,0-14.4-0.5-21.9c-0.4-7.5-1.2-14.7-2.2-21.7
					s-2.1-13.7-3.1-20.1c-1-6.4-1.8-12.5-2.4-18.3c-0.3-2.9-0.5-5.6-0.7-8.3c-0.2-2.7-0.3-5.2-0.4-7.7c-0.3-9.8,0-17.8,0-23.2
					c0-2.7,0-4.9,0-6.3C254.3,269.7,254.3,268.9,254.2,269z"/>
			</g>
		</g>
		<g>
			<rect x="254.4" y="482.1" class="st7" width="27.4" height="4.1"/>
		</g>
		<g>
			<path class="st11" d="M257,294.3"/>
		</g>
		<g>
			<g>
				<g>
					<path class="st7" d="M256.1,269.8c-0.1,0-0.1-0.3-0.1-0.6c0-0.3,0-0.6,0.1-0.6c0.1,0,0.1,0.3,0.1,0.6
						C256.2,269.5,256.1,269.8,256.1,269.8z"/>
				</g>
			</g>
			<g>
				<g>
					<path class="st7" d="M256.1,272.3c-0.1,0-0.1-0.3-0.1-0.6c0-0.3,0-0.6,0.1-0.6c0.1,0,0.1,0.3,0.1,0.6
						C256.3,272,256.2,272.3,256.1,272.3z"/>
				</g>
			</g>
			<g>
				<g>
					<path class="st7" d="M256.2,274.8c-0.1,0-0.1-0.3-0.1-0.6c0-0.3,0-0.6,0.1-0.6c0.1,0,0.1,0.3,0.1,0.6
						C256.3,274.5,256.3,274.8,256.2,274.8z"/>
				</g>
			</g>
			<g>
				<g>
					<path class="st7" d="M256.3,277.3c-0.1,0-0.1-0.3-0.1-0.6c0-0.3,0-0.6,0.1-0.6c0.1,0,0.1,0.3,0.1,0.6
						C256.4,277.1,256.4,277.3,256.3,277.3z"/>
				</g>
			</g>
			<g>
				<g>
					<path class="st7" d="M256.4,279.9c-0.1,0-0.1-0.3-0.1-0.6c0-0.3,0-0.6,0.1-0.6c0.1,0,0.1,0.3,0.1,0.6
						C256.5,279.6,256.4,279.9,256.4,279.9z"/>
				</g>
			</g>
			<g>
				<g>
					<path class="st7" d="M256.4,282.4c-0.1,0-0.1-0.3-0.1-0.6c0-0.3,0-0.6,0.1-0.6c0.1,0,0.1,0.3,0.1,0.6
						C256.6,282.1,256.5,282.4,256.4,282.4z"/>
				</g>
			</g>
			<g>
				<g>
					<path class="st7" d="M256.5,284.9c-0.1,0-0.1-0.3-0.1-0.6c0-0.3,0-0.6,0.1-0.6c0.1,0,0.1,0.3,0.1,0.6
						C256.6,284.6,256.6,284.9,256.5,284.9z"/>
				</g>
			</g>
			<g>
				<g>
					<path class="st7" d="M256.6,287.4c-0.1,0-0.1-0.3-0.1-0.6c0-0.3,0-0.6,0.1-0.6c0.1,0,0.1,0.3,0.1,0.6
						C256.7,287.1,256.7,287.4,256.6,287.4z"/>
				</g>
			</g>
			<g>
				<g>
					<path class="st7" d="M256.7,289.9c-0.1,0-0.1-0.3-0.1-0.6c0-0.3,0-0.6,0.1-0.6c0.1,0,0.1,0.3,0.1,0.6
						C256.8,289.6,256.7,289.9,256.7,289.9z"/>
				</g>
			</g>
			<g>
				<g>
					<path class="st7" d="M256.7,292.4c-0.1,0-0.1-0.3-0.1-0.6c0-0.3,0-0.6,0.1-0.6c0.1,0,0.1,0.3,0.1,0.6
						C256.9,292.2,256.8,292.4,256.7,292.4z"/>
				</g>
			</g>
			<g>
				<g>
					<path class="st7" d="M256.8,295c-0.1,0-0.1-0.3-0.1-0.6c0-0.3,0-0.6,0.1-0.6c0.1,0,0.1,0.3,0.1,0.6
						C256.9,294.7,256.9,295,256.8,295z"/>
				</g>
			</g>
			<g>
				<g>
					<path class="st7" d="M256.8,297.5c-0.1,0-0.1-0.3-0.1-0.6s0.1-0.6,0.1-0.6c0.1,0,0.1,0.3,0.1,0.6
						C256.9,297.2,256.9,297.5,256.8,297.5z"/>
				</g>
			</g>
			<g>
				<g>
					<path class="st7" d="M256.9,300c-0.1,0-0.1-0.3-0.1-0.6c0-0.3,0-0.6,0.1-0.6c0.1,0,0.1,0.3,0.1,0.6
						C257,299.7,256.9,300,256.9,300z"/>
				</g>
			</g>
			<g>
				<g>
					<path class="st7" d="M256.9,302.5c-0.1,0-0.1-0.3-0.1-0.6c0-0.3,0-0.6,0.1-0.6c0.1,0,0.1,0.3,0.1,0.6
						C257,302.2,257,302.5,256.9,302.5z"/>
				</g>
			</g>
			<g>
				<g>
					<path class="st7" d="M257,305c-0.1,0-0.1-0.3-0.2-0.6c0-0.3,0-0.6,0.1-0.6c0.1,0,0.1,0.3,0.2,0.6
						C257.1,304.8,257.1,305,257,305z"/>
				</g>
			</g>
			<g>
				<g>
					<path class="st7" d="M257.1,307.6c-0.1,0-0.1-0.3-0.2-0.6c0-0.3,0-0.6,0.1-0.6c0.1,0,0.1,0.3,0.2,0.6
						C257.2,307.3,257.2,307.6,257.1,307.6z"/>
				</g>
			</g>
			<g>
				<g>
					<path class="st7" d="M257.2,310.1c-0.1,0-0.1-0.3-0.2-0.6c0-0.3,0-0.6,0.1-0.6c0.1,0,0.1,0.3,0.2,0.6
						C257.3,309.8,257.3,310.1,257.2,310.1z"/>
				</g>
			</g>
			<g>
				<g>
					<path class="st7" d="M257.4,312.6c-0.1,0-0.1-0.3-0.2-0.6s0-0.6,0.1-0.6c0.1,0,0.1,0.3,0.2,0.6
						C257.5,312.3,257.5,312.6,257.4,312.6z"/>
				</g>
			</g>
			<g>
				<g>
					<path class="st7" d="M257.6,315.1c-0.1,0-0.2-0.3-0.2-0.6c0-0.3,0-0.6,0.1-0.6c0.1,0,0.2,0.3,0.2,0.6
						C257.7,314.8,257.7,315.1,257.6,315.1z"/>
				</g>
			</g>
			<g>
				<g>
					<path class="st7" d="M257.8,317.6c-0.1,0-0.2-0.3-0.2-0.6c0-0.3,0-0.6,0.1-0.6c0.1,0,0.2,0.3,0.2,0.6
						C257.9,317.3,257.9,317.6,257.8,317.6z"/>
				</g>
			</g>
			<g>
				<g>
					<path class="st7" d="M258,320.1c-0.1,0-0.2-0.3-0.2-0.6c0-0.3,0-0.6,0.1-0.6c0.1,0,0.2,0.3,0.2,0.6
						C258.1,319.8,258.1,320.1,258,320.1z"/>
				</g>
			</g>
			<g>
				<g>
					<path class="st7" d="M258.3,322.6c-0.1,0-0.2-0.3-0.2-0.6c0-0.3,0-0.6,0.1-0.6c0.1,0,0.2,0.3,0.2,0.6
						C258.4,322.3,258.4,322.6,258.3,322.6z"/>
				</g>
			</g>
			<g>
				<g>
					<path class="st7" d="M258.6,325.1c-0.1,0-0.2-0.3-0.2-0.6c0-0.3,0-0.6,0.1-0.6c0.1,0,0.2,0.3,0.2,0.6
						C258.7,324.8,258.7,325.1,258.6,325.1z"/>
				</g>
			</g>
			<g>
				<g>
					<path class="st7" d="M259,327.6c-0.1,0-0.2-0.3-0.2-0.6c0-0.3,0-0.6,0-0.6c0.1,0,0.2,0.3,0.2,0.6
						C259,327.3,259,327.6,259,327.6z"/>
				</g>
			</g>
			<g>
				<g>
					<path class="st7" d="M259.3,330.1c-0.1,0-0.2-0.3-0.2-0.6c0-0.3,0-0.6,0-0.6c0.1,0,0.2,0.3,0.2,0.6
						C259.4,329.8,259.4,330.1,259.3,330.1z"/>
				</g>
			</g>
			<g>
				<g>
					<path class="st7" d="M259.7,332.6c-0.1,0-0.2-0.3-0.2-0.6c-0.1-0.3,0-0.6,0-0.6c0.1,0,0.2,0.3,0.2,0.6
						C259.8,332.3,259.7,332.6,259.7,332.6z"/>
				</g>
			</g>
			<g>
				<g>
					<path class="st7" d="M260.1,335.1c-0.1,0-0.2-0.3-0.2-0.6c-0.1-0.3,0-0.6,0-0.6c0.1,0,0.2,0.3,0.2,0.6
						C260.2,334.8,260.1,335.1,260.1,335.1z"/>
				</g>
			</g>
			<g>
				<g>
					<path class="st7" d="M260.5,337.6c-0.1,0-0.2-0.3-0.2-0.6c-0.1-0.3,0-0.6,0-0.6c0.1,0,0.2,0.3,0.2,0.6
						C260.6,337.3,260.5,337.5,260.5,337.6z"/>
				</g>
			</g>
			<g>
				<g>
					<path class="st7" d="M260.9,340c-0.1,0-0.2-0.3-0.2-0.6c-0.1-0.3,0-0.6,0-0.6c0.1,0,0.2,0.3,0.2,0.6
						C261,339.7,261,340,260.9,340z"/>
				</g>
			</g>
			<g>
				<g>
					<path class="st7" d="M261.3,342.5c-0.1,0-0.2-0.3-0.2-0.6c-0.1-0.3,0-0.6,0-0.6c0.1,0,0.2,0.3,0.2,0.6
						C261.4,342.2,261.4,342.5,261.3,342.5z"/>
				</g>
			</g>
			<g>
				<g>
					<path class="st7" d="M261.7,345c-0.1,0-0.2-0.3-0.2-0.6c-0.1-0.3,0-0.6,0-0.6c0.1,0,0.2,0.3,0.2,0.6
						C261.8,344.7,261.8,345,261.7,345z"/>
				</g>
			</g>
			<g>
				<g>
					<path class="st7" d="M262.1,347.5c-0.1,0-0.2-0.3-0.2-0.6c-0.1-0.3,0-0.6,0-0.6c0.1,0,0.2,0.3,0.2,0.6
						C262.2,347.2,262.2,347.5,262.1,347.5z"/>
				</g>
			</g>
			<g>
				<g>
					<path class="st7" d="M262.6,349.9c-0.1,0-0.2-0.3-0.2-0.6c-0.1-0.3,0-0.6,0-0.6c0.1,0,0.2,0.3,0.2,0.6
						C262.6,349.6,262.6,349.9,262.6,349.9z"/>
				</g>
			</g>
			<g>
				<g>
					<path class="st7" d="M262.9,352.4c-0.1,0-0.2-0.3-0.2-0.6c-0.1-0.3,0-0.6,0-0.6c0.1,0,0.2,0.3,0.2,0.6
						C263,352.1,263,352.4,262.9,352.4z"/>
				</g>
			</g>
			<g>
				<g>
					<path class="st7" d="M263.3,354.9c-0.1,0-0.2-0.3-0.2-0.6c-0.1-0.3,0-0.6,0-0.6c0.1,0,0.2,0.3,0.2,0.6
						C263.4,354.6,263.4,354.9,263.3,354.9z"/>
				</g>
			</g>
			<g>
				<g>
					<path class="st7" d="M263.7,357.4c-0.1,0-0.2-0.3-0.2-0.6c0-0.3,0-0.6,0-0.6c0.1,0,0.2,0.3,0.2,0.6
						C263.8,357.1,263.8,357.4,263.7,357.4z"/>
				</g>
			</g>
			<g>
				<g>
					<path class="st7" d="M264,359.9c-0.1,0-0.2-0.3-0.2-0.6c0-0.3,0-0.6,0-0.6c0.1,0,0.2,0.3,0.2,0.6
						C264.1,359.6,264.1,359.9,264,359.9z"/>
				</g>
			</g>
			<g>
				<g>
					<path class="st7" d="M264.3,362.4c-0.1,0-0.2-0.3-0.2-0.6c0-0.3,0-0.6,0.1-0.6c0.1,0,0.2,0.3,0.2,0.6
						C264.4,362.1,264.4,362.4,264.3,362.4z"/>
				</g>
			</g>
			<g>
				<g>
					<path class="st7" d="M264.6,364.9c-0.1,0-0.2-0.3-0.2-0.6c0-0.3,0-0.6,0.1-0.6c0.1,0,0.2,0.3,0.2,0.6
						C264.7,364.6,264.7,364.9,264.6,364.9z"/>
				</g>
			</g>
			<g>
				<g>
					<path class="st7" d="M264.9,367.4c-0.1,0-0.2-0.3-0.2-0.6c0-0.3,0-0.6,0.1-0.6c0.1,0,0.2,0.3,0.2,0.6
						C265,367.1,264.9,367.4,264.9,367.4z"/>
				</g>
			</g>
			<g>
				<g>
					<path class="st7" d="M265.1,369.9c-0.1,0-0.2-0.3-0.2-0.6c0-0.3,0-0.6,0.1-0.6c0.1,0,0.2,0.3,0.2,0.6
						C265.2,369.6,265.2,369.9,265.1,369.9z"/>
				</g>
			</g>
			<g>
				<g>
					<path class="st7" d="M265.3,372.4c-0.1,0-0.2-0.3-0.2-0.6c0-0.3,0-0.6,0.1-0.6c0.1,0,0.2,0.3,0.2,0.6
						C265.4,372.1,265.4,372.4,265.3,372.4z"/>
				</g>
			</g>
			<g>
				<g>
					<path class="st7" d="M265.5,374.9c-0.1,0-0.1-0.3-0.2-0.6c0-0.3,0-0.6,0.1-0.6c0.1,0,0.1,0.3,0.2,0.6
						C265.6,374.6,265.5,374.9,265.5,374.9z"/>
				</g>
			</g>
			<g>
				<g>
					<path class="st7" d="M265.6,377.4c-0.1,0-0.1-0.3-0.2-0.6c0-0.3,0-0.6,0.1-0.6c0.1,0,0.1,0.3,0.2,0.6
						C265.7,377.1,265.7,377.4,265.6,377.4z"/>
				</g>
			</g>
			<g>
				<g>
					<path class="st7" d="M265.7,379.9c-0.1,0-0.1-0.3-0.2-0.6c0-0.3,0-0.6,0.1-0.6c0.1,0,0.1,0.3,0.2,0.6S265.8,379.9,265.7,379.9z
						"/>
				</g>
			</g>
			<g>
				<g>
					<path class="st7" d="M265.8,382.4c-0.1,0-0.1-0.3-0.1-0.6c0-0.3,0-0.6,0.1-0.6c0.1,0,0.1,0.3,0.1,0.6
						C265.9,382.1,265.9,382.4,265.8,382.4z"/>
				</g>
			</g>
			<g>
				<g>
					<path class="st7" d="M265.9,384.9c-0.1,0-0.1-0.3-0.1-0.6c0-0.3,0-0.6,0.1-0.6c0.1,0,0.1,0.3,0.1,0.6
						C266,384.6,265.9,384.9,265.9,384.9z"/>
				</g>
			</g>
			<g>
				<g>
					<path class="st7" d="M265.9,387.4c-0.1,0-0.1-0.3-0.1-0.6s0.1-0.6,0.1-0.6c0.1,0,0.1,0.3,0.1,0.6
						C266,387.2,266,387.4,265.9,387.4z"/>
				</g>
			</g>
			<g>
				<g>
					<path class="st7" d="M265.9,390c-0.1,0-0.1-0.3-0.1-0.6s0.1-0.6,0.1-0.6c0.1,0,0.1,0.3,0.1,0.6C266.1,389.7,266,390,265.9,390z
						"/>
				</g>
			</g>
			<g>
				<g>
					<path class="st7" d="M265.9,392.5c-0.1,0-0.1-0.3-0.1-0.6c0-0.3,0.1-0.6,0.1-0.6c0.1,0,0.1,0.3,0.1,0.6S266,392.5,265.9,392.5z
						"/>
				</g>
			</g>
			<g>
				<g>
					<path class="st7" d="M266,395c-0.1,0-0.1-0.3-0.1-0.6c0-0.3,0.1-0.6,0.1-0.6c0.1,0,0.1,0.3,0.1,0.6
						C266.1,394.7,266,395,266,395z"/>
				</g>
			</g>
			<g>
				<g>
					<path class="st7" d="M266,397.5c-0.1,0-0.1-0.3-0.1-0.6c0-0.3,0-0.6,0.1-0.6c0.1,0,0.1,0.3,0.1,0.6
						C266.1,397.2,266.1,397.5,266,397.5z"/>
				</g>
			</g>
			<g>
				<g>
					<path class="st7" d="M266,400c-0.1,0-0.1-0.3-0.1-0.6s0-0.6,0.1-0.6c0.1,0,0.1,0.3,0.1,0.6C266.2,399.7,266.1,400,266,400z"/>
				</g>
			</g>
			<g>
				<g>
					<path class="st7" d="M266.1,402.6c-0.1,0-0.1-0.3-0.1-0.6c0-0.3,0-0.6,0.1-0.6c0.1,0,0.1,0.3,0.1,0.6
						C266.2,402.3,266.2,402.6,266.1,402.6z"/>
				</g>
			</g>
			<g>
				<g>
					<path class="st7" d="M266.1,405.1c-0.1,0-0.1-0.3-0.1-0.6c0-0.3,0-0.6,0.1-0.6c0.1,0,0.1,0.3,0.1,0.6
						C266.3,404.8,266.2,405.1,266.1,405.1z"/>
				</g>
			</g>
			<g>
				<g>
					<path class="st7" d="M266.2,407.6c-0.1,0-0.1-0.3-0.1-0.6c0-0.3,0-0.6,0.1-0.6c0.1,0,0.1,0.3,0.1,0.6
						C266.3,407.3,266.3,407.6,266.2,407.6z"/>
				</g>
			</g>
			<g>
				<g>
					<path class="st7" d="M266.3,410.1c-0.1,0-0.1-0.3-0.1-0.6c0-0.3,0-0.6,0.1-0.6c0.1,0,0.1,0.3,0.1,0.6
						C266.4,409.8,266.3,410.1,266.3,410.1z"/>
				</g>
			</g>
			<g>
				<g>
					<path class="st7" d="M266.3,412.6c-0.1,0-0.1-0.3-0.1-0.6c0-0.3,0-0.6,0.1-0.6c0.1,0,0.1,0.3,0.1,0.6
						C266.4,412.3,266.4,412.6,266.3,412.6z"/>
				</g>
			</g>
			<g>
				<g>
					<path class="st7" d="M266.4,415.1c-0.1,0-0.1-0.3-0.1-0.6c0-0.3,0-0.6,0.1-0.6c0.1,0,0.1,0.3,0.1,0.6
						C266.5,414.9,266.5,415.1,266.4,415.1z"/>
				</g>
			</g>
			<g>
				<g>
					<path class="st7" d="M266.5,417.7c-0.1,0-0.1-0.3-0.1-0.6c0-0.3,0-0.6,0.1-0.6c0.1,0,0.1,0.3,0.1,0.6
						C266.6,417.4,266.5,417.7,266.5,417.7z"/>
				</g>
			</g>
			<g>
				<g>
					<path class="st7" d="M266.5,420.2c-0.1,0-0.1-0.3-0.1-0.6c0-0.3,0-0.6,0.1-0.6c0.1,0,0.1,0.3,0.1,0.6
						C266.7,419.9,266.6,420.2,266.5,420.2z"/>
				</g>
			</g>
			<g>
				<g>
					<path class="st7" d="M266.6,422.7c-0.1,0-0.1-0.3-0.1-0.6c0-0.3,0-0.6,0.1-0.6c0.1,0,0.1,0.3,0.1,0.6
						C266.7,422.4,266.7,422.7,266.6,422.7z"/>
				</g>
			</g>
			<g>
				<g>
					<path class="st7" d="M266.7,425.2c-0.1,0-0.1-0.3-0.2-0.6c0-0.3,0-0.6,0.1-0.6c0.1,0,0.1,0.3,0.2,0.6
						C266.8,424.9,266.8,425.2,266.7,425.2z"/>
				</g>
			</g>
			<g>
				<g>
					<path class="st7" d="M266.8,427.7c-0.1,0-0.1-0.3-0.2-0.6c0-0.3,0-0.6,0.1-0.6c0.1,0,0.1,0.3,0.2,0.6
						C266.9,427.4,266.9,427.7,266.8,427.7z"/>
				</g>
			</g>
			<g>
				<g>
					<path class="st7" d="M266.9,430.2c-0.1,0-0.1-0.3-0.2-0.6c0-0.3,0-0.6,0.1-0.6c0.1,0,0.1,0.3,0.2,0.6
						C267,430,266.9,430.2,266.9,430.2z"/>
				</g>
			</g>
			<g>
				<g>
					<path class="st7" d="M267,432.8c-0.1,0-0.1-0.3-0.2-0.6c0-0.3,0-0.6,0.1-0.6c0.1,0,0.1,0.3,0.2,0.6
						C267.1,432.5,267,432.8,267,432.8z"/>
				</g>
			</g>
			<g>
				<g>
					<path class="st7" d="M267,435.3c-0.1,0-0.1-0.3-0.2-0.6c0-0.3,0-0.6,0.1-0.6c0.1,0,0.1,0.3,0.2,0.6
						C267.2,435,267.1,435.3,267,435.3z"/>
				</g>
			</g>
			<g>
				<g>
					<path class="st7" d="M267.1,437.8c-0.1,0-0.1-0.3-0.2-0.6c0-0.3,0-0.6,0.1-0.6c0.1,0,0.1,0.3,0.2,0.6
						C267.3,437.5,267.2,437.8,267.1,437.8z"/>
				</g>
			</g>
			<g>
				<g>
					<path class="st7" d="M267.2,440.3c-0.1,0-0.1-0.3-0.2-0.6c0-0.3,0-0.6,0.1-0.6c0.1,0,0.1,0.3,0.2,0.6
						C267.4,440,267.3,440.3,267.2,440.3z"/>
				</g>
			</g>
			<g>
				<g>
					<path class="st7" d="M267.3,442.8c-0.1,0-0.1-0.3-0.2-0.6c0-0.3,0-0.6,0.1-0.6c0.1,0,0.1,0.3,0.2,0.6
						C267.5,442.5,267.4,442.8,267.3,442.8z"/>
				</g>
			</g>
			<g>
				<g>
					<path class="st7" d="M267.4,445.3c-0.1,0-0.1-0.3-0.2-0.6c0-0.3,0-0.6,0.1-0.6c0.1,0,0.1,0.3,0.2,0.6
						C267.5,445.1,267.5,445.3,267.4,445.3z"/>
				</g>
			</g>
			<g>
				<g>
					<path class="st7" d="M267.5,447.9c-0.1,0-0.1-0.3-0.2-0.6c0-0.3,0-0.6,0.1-0.6c0.1,0,0.1,0.3,0.2,0.6
						C267.6,447.6,267.6,447.9,267.5,447.9z"/>
				</g>
			</g>
			<g>
				<g>
					<path class="st7" d="M267.6,450.4c-0.1,0-0.1-0.3-0.2-0.6c0-0.3,0-0.6,0.1-0.6c0.1,0,0.1,0.3,0.2,0.6
						C267.7,450.1,267.7,450.4,267.6,450.4z"/>
				</g>
			</g>
			<g>
				<g>
					<path class="st7" d="M267.7,452.9c-0.1,0-0.1-0.3-0.2-0.6c0-0.3,0-0.6,0.1-0.6c0.1,0,0.1,0.3,0.2,0.6
						C267.8,452.6,267.8,452.9,267.7,452.9z"/>
				</g>
			</g>
			<g>
				<g>
					<path class="st7" d="M267.8,455.4c-0.1,0-0.1-0.3-0.2-0.6c0-0.3,0-0.6,0.1-0.6c0.1,0,0.1,0.3,0.2,0.6
						C268,455.1,267.9,455.4,267.8,455.4z"/>
				</g>
			</g>
			<g>
				<g>
					<path class="st7" d="M267.9,457.9c-0.1,0-0.1-0.3-0.2-0.6c0-0.3,0-0.6,0.1-0.6c0.1,0,0.1,0.3,0.2,0.6
						C268.1,457.6,268,457.9,267.9,457.9z"/>
				</g>
			</g>
			<g>
				<g>
					<path class="st7" d="M268,460.4c-0.1,0-0.1-0.3-0.2-0.6c0-0.3,0-0.6,0.1-0.6c0.1,0,0.1,0.3,0.2,0.6
						C268.1,460.1,268.1,460.4,268,460.4z"/>
				</g>
			</g>
			<g>
				<g>
					<path class="st7" d="M268.1,463c-0.1,0-0.1-0.3-0.2-0.6c0-0.3,0-0.6,0.1-0.6c0.1,0,0.1,0.3,0.2,0.6
						C268.3,462.7,268.2,463,268.1,463z"/>
				</g>
			</g>
			<g>
				<g>
					<path class="st7" d="M268.2,465.5c-0.1,0-0.1-0.3-0.2-0.6c0-0.3,0-0.6,0.1-0.6c0.1,0,0.1,0.3,0.2,0.6
						C268.3,465.2,268.3,465.5,268.2,465.5z"/>
				</g>
			</g>
			<g>
				<g>
					<path class="st7" d="M268.3,468c-0.1,0-0.1-0.3-0.2-0.6c0-0.3,0-0.6,0.1-0.6c0.1,0,0.1,0.3,0.2,0.6
						C268.4,467.7,268.4,468,268.3,468z"/>
				</g>
			</g>
			<g>
				<g>
					<path class="st7" d="M268.4,470.5c-0.1,0-0.1-0.3-0.2-0.6c0-0.3,0-0.6,0.1-0.6c0.1,0,0.1,0.3,0.2,0.6
						C268.5,470.2,268.5,470.5,268.4,470.5z"/>
				</g>
			</g>
			<g>
				<g>
					<path class="st7" d="M268.5,473c-0.1,0-0.1-0.3-0.2-0.6c0-0.3,0-0.6,0.1-0.6c0.1,0,0.1,0.3,0.2,0.6
						C268.6,472.7,268.6,473,268.5,473z"/>
				</g>
			</g>
			<g>
				<g>
					<path class="st7" d="M268.6,475.5c-0.1,0-0.1-0.3-0.2-0.6c0-0.3,0-0.6,0.1-0.6c0.1,0,0.1,0.3,0.2,0.6
						C268.7,475.2,268.7,475.5,268.6,475.5z"/>
				</g>
			</g>
			<g>
				<g>
					<path class="st7" d="M268.7,478c-0.1,0-0.1-0.3-0.2-0.6c0-0.3,0-0.6,0.1-0.6c0.1,0,0.1,0.3,0.2,0.6
						C268.8,477.8,268.8,478,268.7,478z"/>
				</g>
			</g>
			<g>
				<g>
					<path class="st7" d="M268.8,480.6c-0.1,0-0.1-0.3-0.2-0.6c0-0.3,0-0.6,0.1-0.6c0.1,0,0.1,0.3,0.2,0.6
						C268.9,480.3,268.9,480.6,268.8,480.6z"/>
				</g>
			</g>
			<g>
				<g>
					<path class="st7" d="M268.9,483.1c-0.1,0-0.1-0.3-0.2-0.6c0-0.3,0-0.6,0.1-0.6c0.1,0,0.1,0.3,0.2,0.6
						C269,482.8,268.9,483.1,268.9,483.1z"/>
				</g>
			</g>
			<g>
				<g>
					<path class="st7" d="M268.9,484.9c-0.1,0-0.1-0.1-0.1-0.3c0-0.2,0-0.3,0.1-0.3c0.1,0,0.1,0.1,0.1,0.3
						C269.1,484.8,269,484.9,268.9,484.9z"/>
				</g>
			</g>
		</g>
		<g>
			<g>
				<path class="st7" d="M276.1,297.3c0,0-0.4,0.3-1.2,0.1c-0.4-0.1-0.8-0.4-1.1-0.8c-0.3-0.5-0.5-1.1-0.6-1.7
					c-0.2-2.7-0.4-6.4-0.6-10.5c-0.2-4-0.4-7.6-0.5-10.5c-0.1-1.2-0.1-2.3-0.1-3.2c0-0.3,0-0.6,0-0.9c0-0.2,0-0.3,0-0.3s0,0.1,0,0.3
					c0,0.3,0,0.6,0.1,0.9c0.1,0.9,0.1,2,0.2,3.2c0.2,2.9,0.4,6.5,0.6,10.5c0.2,4,0.4,7.6,0.6,10.5c0.1,0.7,0.2,1.3,0.5,1.7
					s0.7,0.7,1,0.8C275.7,297.5,276.1,297.3,276.1,297.3z"/>
			</g>
		</g>
		<g>
			<g>
				<path class="st7" d="M230.8,316.7c0,0,0.4,0,1-0.3c0.6-0.3,1.4-0.9,1.8-2.1c0.5-1.1,0.5-2.6,0.5-4.2c-0.1-1.6-0.2-3.4-0.5-5.2
					c-0.6-3.6-1.6-6.7-2.4-8.9l0.1,0.1c-1.1,0.2-2.1,0.3-3,0.5c-0.3,0-0.6,0.1-0.8,0.1c-0.2,0-0.3,0-0.3,0c0,0,0.1,0,0.3-0.1
					c0.2-0.1,0.5-0.1,0.8-0.2c0.9-0.2,1.8-0.4,3-0.6l0.1,0l0,0.1c0.9,2.2,1.9,5.4,2.5,9c0.3,1.8,0.5,3.6,0.5,5.2
					c0.1,1.6,0,3.1-0.5,4.2c-0.5,1.1-1.4,1.8-2,2.1C231.2,316.7,230.8,316.7,230.8,316.7z"/>
			</g>
		</g>
		<g>
			<g>
				<path class="st7" d="M232.2,299.8c0,0.1-1.1,0.4-2.4,0.7c-1.3,0.3-2.4,0.5-2.5,0.4s1.1-0.4,2.4-0.7
					C231.1,299.9,232.2,299.7,232.2,299.8z"/>
			</g>
		</g>
		<g>
			<path class="st7" d="M368.6,175.8l-14.1-11.6c-38.3,34.6-87.7,30.7-87.7,30.7l0,0.1c-2.2-0.4-13.9-2.2-17.7-2.3
				c-3-0.1-10-0.6-14.9,4l0,0l0,0c-0.1,0.1-0.2,0.2-0.4,0.3c-4.5,4.3-49.1,48.3-44.3,59.2c5,11.5,47.4,36.4,47.4,36.4l10.3-18.7
				c0,0-3.2-2.1-7.6-5.1l34.6-0.9l1.5-25.9c0,0,5.9-6.6,5.9-11.3c0-3.3-1.8-8.7-4.2-14.4C332,211.8,368.6,175.8,368.6,175.8z
				 M215.1,250.1c0.4-1.4,9.3-11.1,17.3-19.6c2.8,16.9,6.5,36.5,6.9,38.4C229.7,262.3,214.6,251.8,215.1,250.1z"/>
		</g>
		<g>
			<g>
				<path class="st1" d="M279.6,236.5c0,0-0.4,0-1.3,0c-0.8,0-2.1,0-3.6-0.4c-1.5-0.4-3.4-1.4-4.5-3.5c-0.5-1-0.6-2.4,0-3.6
					c0.6-1.1,1.8-2.2,3.3-2.2c1.5,0.1,2.8,1.4,3.2,3c0.4,1.6-0.2,3.3-1.2,4.6c-2.1,2.7-5.8,4.3-9.6,4c-1.9-0.1-3.8-0.7-5.5-1.9
					c-1.6-1.1-3.1-2.7-3.6-4.8c-0.3-1-0.3-2.1,0.2-3.2c0.4-1,1.3-1.8,2.3-2.2c1-0.4,2.3-0.4,3.2,0.4c0.9,0.7,1.2,2,1.1,3.1
					c-0.1,1.1-0.5,2.2-1.1,3.1c-0.6,0.9-1.4,1.7-2.2,2.3c-1.7,1.3-3.7,2.1-5.8,2.4c-4.1,0.6-8.4-0.9-10.7-4c-0.6-0.8-1-1.6-1.2-2.6
					c-0.2-0.9,0-1.9,0.3-2.7c0.4-0.8,1.1-1.5,2-1.8c0.9-0.3,1.8-0.1,2.6,0.2c1.5,0.7,2.7,2.3,2.7,3.9c0,1.6-0.7,3.1-1.7,4.1
					c-2,2.1-4.8,2.8-7,2.7c-2.3-0.1-4.2-0.9-5.5-1.8c-1.4-0.9-2.2-1.8-2.6-2.5c-0.5-0.7-0.7-1.1-0.7-1.1c0,0,0.2,0.4,0.7,1
					c0.5,0.7,1.3,1.6,2.7,2.4c1.3,0.8,3.2,1.6,5.4,1.7c2.2,0.1,4.9-0.6,6.8-2.7c0.9-1,1.7-2.4,1.6-3.9c0-1.5-1.1-2.9-2.5-3.6
					c-0.7-0.3-1.6-0.5-2.4-0.2c-0.8,0.2-1.4,0.9-1.8,1.6c-0.4,0.8-0.5,1.7-0.3,2.5c0.2,0.9,0.6,1.7,1.1,2.4
					c2.3,2.9,6.4,4.4,10.4,3.8c2-0.3,4-1,5.6-2.3c0.8-0.6,1.6-1.4,2.1-2.3c0.6-0.9,0.9-1.9,1-2.9c0.1-1-0.2-2.1-1-2.7
					c-0.8-0.7-1.9-0.7-2.8-0.3c-0.9,0.4-1.7,1.1-2.1,2c-0.4,0.9-0.4,2-0.2,2.9c0.5,1.9,1.9,3.5,3.5,4.6c1.6,1.1,3.5,1.7,5.3,1.8
					c3.7,0.3,7.3-1.2,9.3-3.8c1-1.3,1.6-2.9,1.2-4.4c-0.3-1.4-1.5-2.7-2.9-2.8c-1.4-0.1-2.6,0.9-3.1,2c-0.6,1.1-0.5,2.4,0,3.4
					c0.9,2,2.8,3.1,4.3,3.5c1.5,0.4,2.8,0.5,3.6,0.5c0.4,0,0.7,0,0.9,0C279.5,236.5,279.6,236.5,279.6,236.5z"/>
			</g>
		</g>
		<g>
			<g>
				<path class="st1" d="M274.6,260.4c0,0-0.2,0.2-0.6,0.4c-0.4,0.3-1,0.7-1.8,1.2c-0.8,0.5-1.8,1.1-3.1,1.5
					c-1.3,0.4-2.9,0.6-4.5,0.4c-1.7-0.2-3.6-0.6-5.1-2c-0.7-0.7-1.3-1.7-1.4-2.8c-0.1-1.1,0.3-2.3,1.3-3c0.5-0.4,1-0.6,1.7-0.6
					c0.6,0,1.2,0.2,1.7,0.6c0.9,0.8,1.3,2.2,1.1,3.4c-0.3,1.3-1.1,2.3-2.1,3.1c-1,0.8-2.1,1.5-3.3,1.9c-2.4,0.9-5.1,1.1-7.5,0.5
					c-2.4-0.6-4.6-1.8-5.8-3.8c-0.6-1-0.8-2.2-0.3-3.3c0.5-1,1.5-1.7,2.5-1.8c0.5-0.1,1.1,0.1,1.5,0.4c0.4,0.3,0.7,0.8,0.8,1.3
					c0.2,0.9,0,1.9-0.5,2.6c-1,1.4-2.5,2.1-3.7,2.6c-1.3,0.4-2.5,0.6-3.4,0.5c-0.9,0-1.7-0.2-2.2-0.3c-0.5-0.1-0.7-0.3-0.7-0.3
					c0-0.1,1,0.4,2.9,0.4c0.9,0,2.1-0.1,3.3-0.6c1.2-0.5,2.6-1.2,3.6-2.5c0.5-0.7,0.7-1.5,0.5-2.4c-0.2-0.8-1-1.6-1.9-1.4
					c-0.9,0.1-1.8,0.8-2.2,1.7c-0.4,0.9-0.2,2,0.3,2.9c1.1,1.9,3.3,3,5.6,3.6c2.3,0.6,4.9,0.4,7.3-0.5c1.2-0.4,2.3-1.1,3.2-1.9
					c0.9-0.8,1.7-1.8,1.9-2.9c0.2-1.1-0.1-2.4-0.9-3.1c-0.8-0.7-2.1-0.6-2.9,0c-0.9,0.6-1.3,1.7-1.1,2.7c0.1,1,0.6,1.9,1.3,2.6
					c1.4,1.4,3.3,1.8,4.9,2c1.7,0.2,3.2,0.1,4.4-0.3c1.3-0.4,2.3-1,3.1-1.4c0.8-0.5,1.4-0.8,1.9-1.1
					C274.4,260.5,274.6,260.4,274.6,260.4z"/>
			</g>
		</g>
		<g>
			<g>
				<path class="st1" d="M293.6,193.2c0,0,0.6,0.2,1.4,1c0.8,0.7,1.8,2.1,2.1,4.1c0.1,1,0,2.1-0.4,3.2c-0.4,1.1-1.2,2.2-2.2,3
					c-1,0.8-2.3,1.5-3.7,1.7c-0.7,0.1-1.5,0.1-2.2,0c-0.7-0.1-1.5-0.4-2-1.1c-0.2-0.3-0.3-0.8-0.2-1.2c0.1-0.4,0.4-0.7,0.7-1
					c0.6-0.5,1.4-0.6,2.1-0.6c1.5,0,2.8,0.7,3.7,1.7c0.9,1,1.4,2.2,1.4,3.4c0.1,1.2-0.2,2.3-0.6,3.2c-0.8,1.8-2.2,2.9-3.1,3.4
					c-0.5,0.3-0.9,0.5-1.1,0.6c-0.3,0.1-0.4,0.1-0.4,0.1c0,0,0.6-0.2,1.5-0.8c0.9-0.6,2.2-1.6,2.9-3.4c0.4-0.9,0.6-1.9,0.5-3
					c-0.1-1.1-0.5-2.3-1.4-3.2c-0.9-0.9-2.1-1.5-3.5-1.5c-0.7,0-1.4,0.1-1.9,0.6c-0.6,0.4-0.8,1.1-0.4,1.7c0.4,0.5,1.1,0.8,1.8,1
					c0.7,0.1,1.4,0.1,2.1,0c1.4-0.2,2.6-0.8,3.6-1.6c2-1.6,2.7-4,2.5-5.9c-0.2-1.9-1.2-3.3-1.9-4
					C294.1,193.6,293.6,193.3,293.6,193.2z"/>
			</g>
		</g>
		<g>
			<g>
				<path class="st1" d="M312,188.8c0,0,0.3,0.2,0.6,0.8c0.1,0.3,0.3,0.7,0.2,1.2c0,0.5-0.2,1-0.5,1.5c-0.5,1-1.3,2.1-2.3,3.2
					c-1,1.1-2.2,2.2-3.1,3.6c-1.8,2.8-2.2,6-2.1,8.2c0.2,2.2,0.7,3.5,0.7,3.5c0,0-0.2-0.3-0.4-0.9c-0.2-0.6-0.4-1.5-0.5-2.6
					c-0.2-2.2,0.1-5.5,2-8.4c0.9-1.5,2.2-2.6,3.2-3.6c1-1,1.8-2.1,2.3-3.1c0.3-0.5,0.5-0.9,0.5-1.4c0.1-0.4,0-0.8-0.1-1.1
					C312.2,189,311.9,188.8,312,188.8z"/>
			</g>
		</g>
		<g>
			<g>
				<path class="st1" d="M325.9,203.6c0,0-0.6,0.4-1.9,0.4c-1.2,0-3.2-0.5-4.5-2.4c-1.3-1.9-1.5-4.9-0.3-7.6
					c0.6-1.4,1.5-2.7,2.8-3.7c1.3-1,3.1-1.5,4.8-1c0.8,0.2,1.6,0.8,2.1,1.5c0.5,0.7,0.7,1.6,0.7,2.4c0,0.8-0.4,1.7-1,2.2
					c-0.6,0.5-1.4,0.8-2.2,0.8c-1.5,0-2.9-0.6-3.9-1.5c-1-0.9-1.6-2.1-1.9-3.1c-0.6-2.2-0.2-4.1,0.3-5.2c0.5-1.1,1.1-1.6,1.1-1.6
					c0,0-0.5,0.5-0.9,1.7c-0.5,1.1-0.8,3-0.2,5c0.3,1,0.9,2.1,1.8,3c0.9,0.9,2.2,1.4,3.7,1.4c0.7,0,1.4-0.2,1.9-0.7
					c0.6-0.5,0.9-1.2,0.9-1.9c0.1-1.5-0.9-3.1-2.5-3.5c-1.6-0.5-3.3,0-4.5,0.9c-1.2,0.9-2.1,2.2-2.7,3.5c-1.2,2.6-1,5.5,0.2,7.3
					c1.2,1.8,3.1,2.4,4.3,2.4C325.2,203.9,325.9,203.6,325.9,203.6z"/>
			</g>
		</g>
		<g>
			<g>
				<path class="st1" d="M335.8,178.2c0,0,0.3,0.1,0.8,0.3s1.1,0.6,1.9,1.3c0.7,0.6,1.5,1.5,2.2,2.6c0.6,1.1,1.1,2.4,1.4,3.9
					c0.6,2.9,0,5.6-0.8,7.4c-0.4,0.9-0.8,1.5-1.1,2c-0.3,0.4-0.5,0.6-0.5,0.6c-0.1,0,0.7-1,1.4-2.7c0.7-1.7,1.3-4.4,0.7-7.2
					c-0.3-1.4-0.8-2.7-1.4-3.8c-0.6-1.1-1.3-1.9-2-2.6C336.9,178.7,335.8,178.3,335.8,178.2z"/>
			</g>
		</g>
		<g>
			<g>
				<path class="st1" d="M356.5,185.8c0,0-0.5,0.3-1.6,0.4c-0.5,0-1.2,0-1.9-0.2c-0.7-0.2-1.5-0.7-2.2-1.4c-1.3-1.4-2.3-3.7-1.9-6.3
					c0.2-1.3,0.8-2.6,2-3.4c0.6-0.4,1.3-0.7,2-0.7c0.7,0,1.5,0.2,2.1,0.7c0.6,0.5,1,1.2,1.1,1.9c0.1,0.8-0.2,1.5-0.6,2.1
					c-0.9,1.2-2.4,1.5-3.7,1.4c-2.6-0.3-4.6-1.8-5.6-3.5c-0.5-0.8-0.8-1.7-0.7-2.5c0.1-0.8,0.3-1.4,0.5-1.9c0.2-0.5,0.4-0.8,0.5-1.1
					c0.1-0.2,0.2-0.4,0.2-0.4c0,0,0,0.1-0.1,0.4c-0.1,0.3-0.3,0.7-0.5,1.1c-0.2,0.5-0.4,1.1-0.4,1.8c0,0.7,0.2,1.5,0.8,2.3
					c1,1.5,2.9,3,5.4,3.3c1.2,0.1,2.6-0.2,3.4-1.2c0.4-0.5,0.6-1.1,0.6-1.8c-0.1-0.6-0.5-1.2-1-1.7c-1.1-0.9-2.6-0.8-3.7,0
					c-1.1,0.7-1.7,1.9-1.9,3.1c-0.4,2.4,0.5,4.7,1.8,6c1.2,1.4,2.9,1.6,3.9,1.6C355.9,186,356.4,185.7,356.5,185.8z"/>
			</g>
		</g>
		<g>
			<g>
				<path class="st1" d="M274.8,248.1c0,0-0.3,0.5-1.2,1c-0.8,0.6-2.1,1.3-3.9,1.8c-1.8,0.5-4,0.6-6.4,0.4c-2.4-0.2-5-0.9-7.6-1.5
					c-2.7-0.7-5.2-1.2-7.6-1.3c-2.4-0.1-4.5,0.3-6.2,0.9c-1.7,0.6-2.9,1.5-3.6,2.1c-0.7,0.7-1.1,1.1-1.1,1.1c0,0,0.3-0.5,1-1.2
					c0.7-0.7,1.9-1.6,3.6-2.3c1.7-0.7,3.9-1.1,6.3-1c2.4,0.1,5,0.6,7.7,1.3c2.7,0.7,5.2,1.3,7.6,1.5c2.4,0.2,4.5,0.1,6.3-0.3
					C273.2,249.8,274.7,248,274.8,248.1z"/>
			</g>
		</g>
		<g>
			<g>
				<path class="st1" d="M221.5,209.6c0,0.1,0.7-0.7,2.3-0.5c0.8,0.1,1.7,0.6,2.6,1.2c0.9,0.7,1.8,1.5,2.9,2.4c1.1,0.9,2.1,2,3.4,3
					c1.3,1,2.9,1.7,4.7,2.1c3.6,0.7,7.7-0.1,11.6-1.7c3.9-1.6,7.5-3.5,11.1-4.4c1.8-0.5,3.5-0.8,5.2-0.7c1.7,0,3.2,0.3,4.5,0.8
					c2.7,0.9,4.5,2.5,5.3,3.9c0.2,0.3,0.4,0.6,0.5,0.9c0.1,0.3,0.2,0.5,0.3,0.7c0.1,0.4,0.2,0.6,0.2,0.6c-0.1,0-0.2-0.8-1.1-2.1
					c-0.8-1.3-2.6-2.8-5.2-3.7c-1.3-0.4-2.8-0.7-4.4-0.7c-1.6,0-3.3,0.3-5.1,0.8c-3.5,1-7.1,2.9-11.1,4.5c-3.9,1.6-8.1,2.4-11.8,1.7
					c-1.8-0.3-3.5-1.2-4.8-2.2c-1.3-1-2.3-2.2-3.4-3.1c-1.1-0.9-2-1.7-2.9-2.4c-0.9-0.7-1.7-1.1-2.5-1.2
					C222.3,209,221.5,209.7,221.5,209.6z"/>
			</g>
		</g>
		<g>
			<g>
				<path class="st1" d="M278.7,194.9c0,0,0.1,0.3,0.2,1c0.1,0.7,0.1,1.7-0.2,3c-0.3,1.3-0.9,2.8-2.1,4.2c-1.2,1.4-3,2.7-5.3,3.1
					c-2.3,0.4-5-0.1-7.3-1.6c-1.1-0.8-2.2-1.8-2.8-3.2c-0.3-0.7-0.3-1.6,0.2-2.2c0.5-0.6,1.3-1,2.1-1.1c0.8-0.1,1.7,0.1,2.3,0.8
					c0.6,0.6,0.9,1.4,1,2.2c0.1,1.7-0.7,3.4-2.1,4.4c-1.3,1.1-3,1.6-4.6,2.1c-1.6,0.5-3.4,0.8-5.2,0.7c-1.8-0.1-3.5-0.7-4.9-1.8
					c-1.4-1.1-2.3-2.8-2.3-4.5c0-1.7,0.8-3.5,2.3-4.2c1.5-0.7,3.4-0.6,4.6,0.5c1.2,1.1,1.3,3,0.7,4.3c-0.6,1.4-1.8,2.4-3,2.9
					c-2.5,1.1-5.1,1.3-7.4,1c-4.6-0.7-7.8-3.1-9.5-5c-0.9-1-1.4-1.8-1.7-2.4c-0.3-0.6-0.5-0.9-0.5-0.9c0.1,0,0.6,1.3,2.3,3.2
					c1.7,1.8,4.9,4.2,9.4,4.8c2.2,0.3,4.8,0.1,7.2-1c1.2-0.6,2.3-1.5,2.8-2.8c0.5-1.3,0.5-2.9-0.6-3.9c-1.1-1-2.8-1.1-4.2-0.4
					c-1.4,0.7-2.1,2.3-2.1,3.9c0,1.6,0.8,3.2,2.1,4.2c1.3,1,3,1.6,4.7,1.7c1.7,0.1,3.4-0.2,5-0.6c1.6-0.5,3.2-1,4.5-2
					c1.3-1,2-2.5,1.9-4.1c-0.1-0.8-0.3-1.5-0.9-2c-0.5-0.5-1.3-0.7-2-0.7c-0.7,0.1-1.4,0.4-1.8,0.9c-0.4,0.5-0.4,1.3-0.2,1.9
					c0.5,1.3,1.6,2.3,2.6,3c2.2,1.5,4.8,2,7,1.6c2.2-0.4,4-1.6,5.2-3c1.2-1.4,1.8-2.9,2.1-4.1C279.1,196.3,278.6,194.9,278.7,194.9z
					"/>
			</g>
		</g>
		<g>
			<g>
				<path class="st1" d="M214.4,216.9c0,0,0.2-0.1,0.5-0.2c0.3-0.1,0.8-0.3,1.5-0.5c1.3-0.3,3.3-0.7,5.6,0.2
					c1.1,0.4,2.3,1.2,3.2,2.3c0.9,1.1,1.7,2.5,1.7,4.2c0,1.6-0.6,3.4-1.9,4.6c-1.3,1.2-3.2,1.9-5.1,1.7c-0.9-0.1-1.9-0.5-2.5-1.1
					c-0.7-0.6-1.1-1.7-0.8-2.6c0.2-0.9,0.9-1.6,1.5-2.1c0.7-0.5,1.5-0.8,2.3-1c3.2-0.8,6.2,0.3,8,2c1.8,1.7,2.4,3.7,2.6,5
					c0.2,1.3,0,2.1,0,2.1c0,0,0.1-0.7-0.2-2.1c-0.2-1.3-0.9-3.2-2.7-4.8c-1.7-1.6-4.7-2.6-7.7-1.9c-0.8,0.2-1.5,0.5-2.1,1
					c-0.6,0.5-1.2,1.1-1.4,1.9c-0.2,0.8,0.1,1.6,0.7,2.2c0.6,0.6,1.5,0.9,2.3,1c1.8,0.2,3.5-0.4,4.7-1.6c1.2-1.2,1.8-2.8,1.8-4.3
					c0-1.5-0.7-2.9-1.6-4c-0.9-1-2-1.8-3.1-2.2c-2.2-0.9-4.2-0.6-5.5-0.3c-0.7,0.1-1.1,0.3-1.5,0.4
					C214.6,216.8,214.4,216.9,214.4,216.9z"/>
			</g>
		</g>
		<g>
			<g>
				<path class="st1" d="M219.8,244.2c0,0,0.2-0.4,0.1-1.1c-0.1-0.7-0.5-1.7-1.2-2.8c-0.7-1.1-2.2-1.7-3.9-1.6
					c-1.7,0.1-3.5,0.8-5.6,0.7c-2-0.2-3.9-1.2-5-2.6c-1.1-1.4-1.4-3.1-1.4-4.4c0-1.3,0.4-2.4,0.8-3c0.4-0.6,0.8-0.8,0.8-0.8
					c0,0-0.3,0.3-0.7,0.9c-0.4,0.6-0.7,1.6-0.6,2.9c0,1.3,0.4,2.8,1.4,4.2c1,1.3,2.8,2.3,4.7,2.4c1.9,0.2,3.8-0.6,5.5-0.6
					c0.9,0,1.7,0.1,2.5,0.4c0.8,0.3,1.3,0.9,1.7,1.4c0.7,1.1,1.1,2.2,1.1,2.9C220.2,243.9,219.8,244.2,219.8,244.2z"/>
			</g>
		</g>
		<g>
			<g>
				<path class="st1" d="M205.9,272.3c0-0.1,0.7,0.1,1.7-0.5c0.5-0.3,1.1-0.7,1.4-1.5c0.3-0.7,0.4-1.7,0.3-2.7
					c-0.1-1-0.5-2.1-0.8-3.3c-0.4-1.2-0.8-2.4-1.7-3.4c-0.8-1-2.3-1.7-3.7-1.4c-0.7,0.2-1.3,0.7-1.5,1.4c-0.3,0.7-0.3,1.5,0,2.2
					c0.5,1.5,2.1,2.2,3.5,2.2c1.5,0,2.8-0.6,3.9-1.4c2.1-1.7,3.5-3.9,4.4-5.7c0.9-1.9,1.3-3.5,1.4-4.7c0.1-1.2,0.1-1.8,0.1-1.8
					c0,0,0.1,0.6,0.1,1.8c-0.1,1.2-0.4,2.9-1.3,4.8c-0.9,1.9-2.3,4.1-4.4,5.9c-1.1,0.9-2.5,1.6-4.1,1.5c-0.8,0-1.6-0.2-2.3-0.6
					c-0.7-0.4-1.3-1.1-1.6-1.9c-0.3-0.8-0.3-1.7,0-2.5c0.3-0.8,1-1.4,1.8-1.6c1.6-0.4,3.2,0.4,4.1,1.5c0.9,1.1,1.4,2.4,1.7,3.6
					c0.4,1.2,0.7,2.3,0.8,3.4c0.1,1.1,0,2.1-0.3,2.8c-0.4,0.8-1,1.2-1.5,1.5c-0.5,0.2-1,0.3-1.3,0.3
					C206.1,272.3,205.9,272.3,205.9,272.3z"/>
			</g>
		</g>
		<g>
			<g>
				<path class="st1" d="M222.5,282c0,0,0.4,0,1-0.2c0.6-0.2,1.4-0.9,1.8-2c0.5-1.1,0.4-2.5-0.2-3.9c-0.5-1.5-1.5-2.9-2-4.7
					c-0.3-0.9-0.4-1.8-0.3-2.7c0.1-0.9,0.4-1.7,0.9-2.3c1-1.3,2.3-2,3.5-2.3c1.2-0.3,2.2-0.2,2.8-0.2c0.7,0.1,1,0.2,1,0.2
					c0,0.1-1.5-0.3-3.8,0.2c-1.1,0.3-2.4,1-3.3,2.2c-0.4,0.6-0.8,1.4-0.8,2.2c-0.1,0.8,0.1,1.7,0.3,2.5c0.5,1.7,1.5,3.2,2,4.7
					c0.5,1.5,0.6,3,0.1,4.2c-0.5,1.1-1.3,1.8-2,2C222.9,282.1,222.5,282,222.5,282z"/>
			</g>
		</g>
		<g>
			<g>
				<path class="st2" d="M230.3,232.8c0,0,0.4-0.6,1.2-1.6c0.8-1,2-2.4,3.5-4.1c1.5-1.7,3.3-3.7,5.2-6c1-1.2,1.9-2.4,2.9-3.7
					c1-1.3,2-2.6,2.7-4.2c1.5-3.1,2.5-6.3,2.5-9.2c0-3-1.1-5.6-2.6-7.1c-1.5-1.6-3.3-2.3-4.5-2.5c-1.2-0.2-1.9-0.1-1.9-0.1
					c0,0,0.2-0.1,0.5-0.1c0.3,0,0.8-0.1,1.5,0c1.3,0.1,3.2,0.8,4.8,2.5c1.7,1.6,2.9,4.4,2.9,7.5c0.1,3.1-0.9,6.4-2.5,9.5
					c-0.8,1.6-1.8,3-2.8,4.3c-1,1.3-2,2.5-3,3.7c-1.9,2.3-3.8,4.3-5.3,6c-1.5,1.6-2.7,2.9-3.6,4
					C230.8,232.3,230.3,232.8,230.3,232.8z"/>
			</g>
		</g>
		<g>
			<g>
				<path class="st2" d="M216.2,250.1c0.1,0.2-1.9,0.9-4.4,1.7c-2.5,0.7-4.5,1.2-4.5,1c-0.1-0.2,1.9-0.9,4.4-1.7
					C214.1,250.4,216.1,249.9,216.2,250.1z"/>
			</g>
		</g>
		<g>
			<g>
				<path class="st2" d="M215.6,249.9c0.1,0.2-1.4,1.1-2.8,2.7c-1.5,1.6-2.3,3.1-2.4,3c-0.2-0.1,0.4-1.8,1.9-3.5
					C213.8,250.5,215.6,249.7,215.6,249.9z"/>
			</g>
		</g>
		<g>
			<g>
				<path class="st2" d="M279.1,220c-0.1,0-0.7-0.9-1.5-2.6c-0.8-1.7-1.8-4-2.7-6.6c-0.9-2.7-1.6-5.1-2-6.9
					c-0.4-1.8-0.6-2.9-0.5-2.9c0.1,0,0.4,1.1,0.9,2.8c0.5,1.8,1.3,4.2,2.2,6.8s1.9,5,2.5,6.7C278.7,218.9,279.1,220,279.1,220z"/>
			</g>
		</g>
		<g>
			<g>
				<path class="st2" d="M265.8,232.1c0.1,0-0.4,1.1-1.7,2.6c-1.2,1.5-3.3,3.2-6,4.3c-2.7,1.2-5.4,1.5-7.2,1.4c-1.9-0.1-3-0.5-3-0.6
					c0-0.1,1.2,0.1,3,0.1c1.8,0,4.4-0.4,7-1.5c2.6-1.1,4.6-2.7,5.9-4.1C265,233,265.7,232,265.8,232.1z"/>
			</g>
		</g>
		<g>
			<g>
				<path class="st8" d="M257,294.3c0,0-8.7,1.9-9.8,0.9c-1.1-1,1.7-2,1.7-2s-2.5,0.3-2.6-0.6c-0.1-0.9,0.9-1.5,0.9-1.5L257,294.3z"
					/>
			</g>
			<g>
				<path class="st8" d="M245.2,277.4c0,0,12.2,5.5,12.4,5.9s0.5,9.1-0.6,10.9c-1.2,1.8-17.2-7-17.2-7L245.2,277.4z"/>
			</g>
			<g>
				<g>
					<path class="st9" d="M254.3,292.3c0,0-0.2,0-0.6,0c-0.5-0.1-1.1-0.1-1.7-0.2c-1.4-0.2-3.3-0.5-5.4-1.2c-2.1-0.6-3.8-1.6-5-2.4
						c-0.5-0.3-0.9-0.6-1.4-0.9c-0.3-0.2-0.5-0.4-0.5-0.4c0,0,0.2,0.1,0.5,0.3c0.5,0.3,0.9,0.6,1.4,0.9c1.2,0.8,2.9,1.7,5,2.3
						c2.1,0.6,4,1,5.4,1.2c0.6,0.1,1.1,0.2,1.6,0.3C254.1,292.2,254.3,292.3,254.3,292.3z"/>
				</g>
			</g>
			<g>
				<g>
					<path class="st9" d="M254.2,292.5c0,0.1-1.2,0.5-2.8,0.7c-1.6,0.2-2.9,0.2-2.9,0.2c0-0.1,1.3-0.2,2.9-0.4
						C252.9,292.7,254.2,292.4,254.2,292.5z"/>
				</g>
			</g>
		</g>
	</g>
</g>
</svg>
