<?xml version="1.0" encoding="utf-8"?>
<!-- Generator: Adobe Illustrator 23.0.3, SVG Export Plug-In . SVG Version: 6.00 Build 0)  -->
<svg version="1.1" id="Layer_1" xmlns="http://www.w3.org/2000/svg" xmlns:xlink="http://www.w3.org/1999/xlink" x="0px" y="0px"
	 width="48" height="48" viewBox="0 0 28 28" style="enable-background:new 0 0 28 28;" xml:space="preserve">
<style type="text/css">
	.st0{fill:#FFFFFF;}
</style>
<path class="st0" d="M19,16.1L19,16.1c-2-0.9-2.2-1.1-2.5-0.7c-0.2,0.3-0.7,0.9-0.9,1.1c-0.2,0.2-0.3,0.2-0.6,0.1
	c-0.3-0.1-1.1-0.4-2.2-1.4c-0.8-0.7-1.3-1.6-1.5-1.9c-0.3-0.5,0.3-0.5,0.8-1.5c0.1-0.2,0-0.3,0-0.5c-0.1-0.1-0.6-1.5-0.8-2
	c-0.2-0.5-0.4-0.5-0.6-0.5c-0.5,0-0.9,0-1.2,0.3c-1.5,1.6-1.1,3.3,0.2,5c2.5,3.2,3.8,3.8,6.2,4.7c0.6,0.2,1.2,0.2,1.7,0.1
	c0.5-0.1,1.6-0.7,1.8-1.3c0.2-0.6,0.2-1.2,0.2-1.3C19.5,16.3,19.3,16.2,19,16.1L19,16.1z"/>
<path class="st0" d="M21.8,6.2c-7-6.8-18.6-1.9-18.6,7.7c0,1.9,0.5,3.8,1.5,5.4l-1.5,5.6l5.8-1.5c7.2,3.9,16.1-1.3,16.1-9.5
	C24.9,11,23.8,8.3,21.8,6.2L21.8,6.2z M23.1,13.9c0,6.9-7.6,11.3-13.7,7.7l-0.3-0.2l-3.4,0.9L6.6,19l-0.2-0.3
	C2.6,12.7,7,4.9,14.1,4.9c2.4,0,4.7,0.9,6.4,2.6C22.2,9.2,23.1,11.5,23.1,13.9L23.1,13.9z"/>
</svg>
